<?xml version="1.0" encoding="utf-8"?>
<!DOCTYPE svg PUBLIC "-//W3C//DTD SVG 1.1//EN" "http://www.w3.org/Graphics/SVG/1.1/DTD/svg11.dtd">
<svg xmlns="http://www.w3.org/2000/svg" xmlns:xlink="http://www.w3.org/1999/xlink" version="1.1" baseProfile="full" width="470" height="429.016" viewBox="0 0 470.00 429.02" enable-background="new 0 0 470.00 429.02" xml:space="preserve" id="map">
	<g>
		<path fill="#FFFFFF" fill-opacity="1" stroke-linecap="square" stroke-linejoin="miter" stroke="#E0E0E0" stroke-opacity="1" d="M 204.543,340.577C 252.565,427.5 362.5,428.516 362.5,428.516L 362.5,396.5L 469.5,396.5L 469.5,76.4999L 368.5,76.4999L 368.5,145.5L 365.5,145.5L 365.5,161.5L 377.5,161.5L 377.5,241.5L 245.5,241.5L 245.5,161.5L 243.5,161.5L 243.5,145.5L 239.5,145.5L 239.5,79.4999L 218.5,79.4999L 175.5,46.4999L 179.5,41.4999L 125.5,0.5L 0.5,163.5L 89.5,231.5L 85.5,236.5L 210.5,332.5C 210.5,332.5 205.079,340.631 204.543,340.577 Z "/>
		<path fill="#E0E0E0" fill-opacity="1" stroke-linejoin="round" d="M 208.815,346.781L 209.643,348.21L 211.489,350.967L 210.645,351.503L 208.799,348.745L 207.94,347.265L 208.815,346.781 Z M 213.194,353.437L 214.636,355.597L 216.066,357.49L 215.255,358.074L 213.825,356.181L 212.349,353.972L 213.194,353.437 Z M 217.912,359.856L 219.928,362.514L 220.983,363.762L 220.207,364.393L 219.152,363.144L 217.101,360.44L 217.912,359.856 Z M 222.961,366.018L 225.487,368.976L 226.228,369.765L 225.488,370.438L 224.748,369.649L 222.185,366.649L 222.961,366.018 Z M 228.328,371.908L 231.283,374.998L 231.783,375.483L 231.082,376.196L 230.582,375.711L 227.589,372.581L 228.328,371.908 Z M 233.995,377.51L 237.633,380.94L 236.932,381.653L 233.294,378.223L 233.995,377.51 Z M 239.944,382.815L 243.754,386.051L 243.092,386.8L 239.281,383.564L 239.944,382.815 Z M 246.152,387.816L 250.119,390.859L 249.495,391.64L 245.528,388.597L 246.152,387.816 Z M 252.597,392.509L 256.204,395.003L 256.701,395.325L 256.153,396.162L 255.657,395.839L 252.012,393.319L 252.597,392.509 Z M 259.258,396.893L 262.713,399.06L 263.491,399.512L 262.981,400.372L 262.203,399.92L 258.711,397.73L 259.258,396.893 Z M 266.112,400.972L 269.27,402.771L 270.462,403.395L 269.987,404.275L 268.796,403.651L 265.602,401.832L 266.112,400.972 Z M 273.139,404.749L 275.845,406.151L 277.592,406.977L 277.152,407.875L 275.405,407.049L 272.664,405.629L 273.139,404.749 Z M 280.318,408.23L 282.405,409.215L 284.863,410.268L 284.457,411.181L 281.999,410.129L 279.878,409.128L 280.318,408.23 Z M 287.632,411.423L 288.92,411.979L 292.257,413.273L 291.883,414.2L 288.546,412.906L 287.225,412.337L 287.632,411.423 Z M 295.044,414.341L 299.759,416.003L 299.415,416.942L 294.7,415.279L 295.044,414.341 Z M 302.591,416.946L 307.354,418.466L 307.039,419.415L 302.276,417.895L 302.591,416.946 Z M 310.224,419.287L 313.895,420.341L 315.024,420.638L 314.763,421.603L 313.633,421.306L 309.937,420.244L 310.224,419.287 Z M 317.933,421.372L 319.709,421.835L 322.779,422.549L 322.542,423.521L 319.473,422.807L 317.672,422.337L 317.933,421.372 Z M 325.695,423.2L 330.59,424.219L 330.377,425.196L 325.482,424.177L 325.695,423.2 Z M 333.532,424.747L 335.622,425.135L 338.448,425.596L 338.278,426.582L 335.452,426.12L 333.341,425.728L 333.532,424.747 Z M 341.404,426.041L 344.637,426.503L 346.348,426.717L 346.218,427.708L 344.507,427.494L 341.255,427.03L 341.404,426.041 Z M 349.32,427.058L 352.086,427.351L 354.287,427.548L 354.192,428.543L 351.99,428.347L 349.207,428.052L 349.32,427.058 Z M 357.262,427.774L 359.767,427.919L 361.271,427.983L 362.242,428.014L 362.207,429.014L 361.236,428.983L 359.718,428.918L 357.199,428.772L 357.262,427.774 Z M 362,425.791L 362,420.791L 363,420.791L 363,425.791L 362,425.791 Z M 362,417.791L 362,412.791L 363,412.791L 363,417.791L 362,417.791 Z M 362,409.791L 362,404.791L 363,404.791L 363,409.791L 362,409.791 Z M 362,401.791L 362,396.791L 363,396.791L 363,401.791L 362,401.791 Z M 365.209,396L 370.209,396L 370.209,397L 365.209,397L 365.209,396 Z M 373.209,396L 378.209,396L 378.209,397L 373.209,397L 373.209,396 Z M 381.209,396L 386.209,396L 386.209,397L 381.209,397L 381.209,396 Z M 389.209,396L 394.209,396L 394.209,397L 389.209,397L 389.209,396 Z M 397.209,396L 402.209,396L 402.209,397L 397.209,397L 397.209,396 Z M 405.209,396L 410.209,396L 410.209,397L 405.209,397L 405.209,396 Z M 413.209,396L 418.209,396L 418.209,397L 413.209,397L 413.209,396 Z M 421.209,396L 426.209,396L 426.209,397L 421.209,397L 421.209,396 Z M 429.209,396L 434.209,396L 434.209,397L 429.209,397L 429.209,396 Z M 437.209,396L 442.209,396L 442.209,397L 437.209,397L 437.209,396 Z M 445.209,396L 450.209,396L 450.209,397L 445.209,397L 445.209,396 Z M 453.209,396L 458.209,396L 458.209,397L 453.209,397L 453.209,396 Z M 461.209,396L 466.209,396L 466.209,397L 461.209,397L 461.209,396 Z M 469,396.791L 469,391.791L 470,391.791L 470,396.791L 469,396.791 Z M 469,388.791L 469,383.791L 470,383.791L 470,388.791L 469,388.791 Z M 469,380.791L 469,375.791L 470,375.791L 470,380.791L 469,380.791 Z M 469,372.791L 469,367.791L 470,367.791L 470,372.791L 469,372.791 Z M 469,364.791L 469,359.791L 470,359.791L 470,364.791L 469,364.791 Z M 469,356.791L 469,351.791L 470,351.791L 470,356.791L 469,356.791 Z M 469,348.791L 469,343.791L 470,343.791L 470,348.791L 469,348.791 Z M 469,340.791L 469,335.791L 470,335.791L 470,340.791L 469,340.791 Z M 469,332.791L 469,327.791L 470,327.791L 470,332.791L 469,332.791 Z M 469,324.791L 469,319.791L 470,319.791L 470,324.791L 469,324.791 Z M 469,316.791L 469,311.791L 470,311.791L 470,316.791L 469,316.791 Z M 469,308.791L 469,303.791L 470,303.791L 470,308.791L 469,308.791 Z M 469,300.791L 469,295.791L 470,295.791L 470,300.791L 469,300.791 Z M 469,292.791L 469,287.791L 470,287.791L 470,292.791L 469,292.791 Z M 469,284.791L 469,279.791L 470,279.791L 470,284.791L 469,284.791 Z M 469,276.791L 469,271.791L 470,271.791L 470,276.791L 469,276.791 Z M 469,268.791L 469,263.791L 470,263.791L 470,268.791L 469,268.791 Z M 469,260.791L 469,255.791L 470,255.791L 470,260.791L 469,260.791 Z M 469,252.791L 469,247.791L 470,247.791L 470,252.791L 469,252.791 Z M 469,244.791L 469,239.791L 470,239.791L 470,244.791L 469,244.791 Z M 469,236.791L 469,231.791L 470,231.791L 470,236.791L 469,236.791 Z M 469,228.791L 469,223.791L 470,223.791L 470,228.791L 469,228.791 Z M 469,220.791L 469,215.791L 470,215.791L 470,220.791L 469,220.791 Z M 469,212.791L 469,207.791L 470,207.791L 470,212.791L 469,212.791 Z M 469,204.791L 469,199.791L 470,199.791L 470,204.791L 469,204.791 Z M 469,196.791L 469,191.791L 470,191.791L 470,196.791L 469,196.791 Z M 469,188.791L 469,183.791L 470,183.791L 470,188.791L 469,188.791 Z M 469,180.791L 469,175.791L 470,175.791L 470,180.791L 469,180.791 Z M 469,172.791L 469,167.791L 470,167.791L 470,172.791L 469,172.791 Z M 469,164.791L 469,159.791L 470,159.791L 470,164.791L 469,164.791 Z M 469,156.791L 469,151.791L 470,151.791L 470,156.791L 469,156.791 Z M 469,148.791L 469,143.791L 470,143.791L 470,148.791L 469,148.791 Z M 469,140.791L 469,135.791L 470,135.791L 470,140.791L 469,140.791 Z M 469,132.791L 469,127.791L 470,127.791L 470,132.791L 469,132.791 Z M 469,124.791L 469,119.791L 470,119.791L 470,124.791L 469,124.791 Z M 469,116.791L 469,111.791L 470,111.791L 470,116.791L 469,116.791 Z M 469,108.791L 469,103.791L 470,103.791L 470,108.791L 469,108.791 Z M 469,100.791L 469,95.791L 470,95.791L 470,100.791L 469,100.791 Z M 469,92.791L 469,87.791L 470,87.791L 470,92.791L 469,92.791 Z M 469,84.791L 469,79.791L 470,79.791L 470,84.791L 469,84.791 Z M 469.791,76.9999L 464.791,76.9999L 464.791,75.9999L 469.791,75.9999L 469.791,76.9999 Z M 461.791,76.9999L 456.791,76.9999L 456.791,75.9999L 461.791,75.9999L 461.791,76.9999 Z M 453.791,76.9999L 448.791,76.9999L 448.791,75.9999L 453.791,75.9999L 453.791,76.9999 Z M 445.791,76.9999L 440.791,76.9999L 440.791,75.9999L 445.791,75.9999L 445.791,76.9999 Z M 437.791,76.9999L 432.791,76.9999L 432.791,75.9999L 437.791,75.9999L 437.791,76.9999 Z M 429.791,76.9999L 424.791,76.9999L 424.791,75.9999L 429.791,75.9999L 429.791,76.9999 Z M 421.791,76.9999L 416.791,76.9999L 416.791,75.9999L 421.791,75.9999L 421.791,76.9999 Z M 413.791,76.9999L 408.791,76.9999L 408.791,75.9999L 413.791,75.9999L 413.791,76.9999 Z M 405.791,76.9999L 400.791,76.9999L 400.791,75.9999L 405.791,75.9999L 405.791,76.9999 Z M 397.791,76.9999L 392.791,76.9999L 392.791,75.9999L 397.791,75.9999L 397.791,76.9999 Z M 389.791,76.9999L 384.791,76.9999L 384.791,75.9999L 389.791,75.9999L 389.791,76.9999 Z M 381.791,76.9999L 376.791,76.9999L 376.791,75.9999L 381.791,75.9999L 381.791,76.9999 Z M 373.791,76.9999L 368.791,76.9999L 368.791,75.9999L 373.791,75.9999L 373.791,76.9999 Z M 369,79.2087L 369,84.2087L 368,84.2087L 368,79.2087L 369,79.2087 Z M 369,87.2087L 369,92.2087L 368,92.2087L 368,87.2087L 369,87.2087 Z M 369,95.2087L 369,100.209L 368,100.209L 368,95.2087L 369,95.2087 Z M 369,103.209L 369,108.209L 368,108.209L 368,103.209L 369,103.209 Z M 369,111.209L 369,116.209L 368,116.209L 368,111.209L 369,111.209 Z M 369,119.209L 369,124.209L 368,124.209L 368,119.209L 369,119.209 Z M 369,127.209L 369,132.209L 368,132.209L 368,127.209L 369,127.209 Z M 369,135.209L 369,140.209L 368,140.209L 368,135.209L 369,135.209 Z M 369,143.209L 369,146L 365.791,146L 365.791,145L 368.5,145L 368,145.5L 368,143.209L 369,143.209 Z M 366,148.209L 366,153.209L 365,153.209L 365,148.209L 366,148.209 Z M 366,156.209L 366,161.209L 365,161.209L 365,156.209L 366,156.209 Z M 368.209,161L 373.209,161L 373.209,162L 368.209,162L 368.209,161 Z M 376.209,161L 378,161L 378,165.208L 377,165.208L 377,161.5L 377.5,162L 376.209,162L 376.209,161 Z M 378,168.208L 378,173.208L 377,173.208L 377,168.208L 378,168.208 Z M 378,176.208L 378,181.208L 377,181.208L 377,176.208L 378,176.208 Z M 378,184.208L 378,189.208L 377,189.208L 377,184.208L 378,184.208 Z M 378,192.208L 378,197.208L 377,197.208L 377,192.208L 378,192.208 Z M 378,200.208L 378,205.208L 377,205.208L 377,200.208L 378,200.208 Z M 378,208.208L 378,213.208L 377,213.208L 377,208.208L 378,208.208 Z M 378,216.208L 378,221.208L 377,221.208L 377,216.208L 378,216.208 Z M 378,224.208L 378,229.208L 377,229.208L 377,224.208L 378,224.208 Z M 378,232.208L 378,237.208L 377,237.208L 377,232.208L 378,232.208 Z M 378,240.208L 378,242L 373.791,242L 373.791,241L 377.5,241L 377,241.5L 377,240.208L 378,240.208 Z M 370.791,242L 365.791,242L 365.791,241L 370.791,241L 370.791,242 Z M 362.791,242L 357.791,242L 357.791,241L 362.791,241L 362.791,242 Z M 354.791,242L 349.791,242L 349.791,241L 354.791,241L 354.791,242 Z M 346.791,242L 341.791,242L 341.791,241L 346.791,241L 346.791,242 Z M 338.791,242L 333.791,242L 333.791,241L 338.791,241L 338.791,242 Z M 330.791,242L 325.791,242L 325.791,241L 330.791,241L 330.791,242 Z M 322.791,242L 317.791,242L 317.791,241L 322.791,241L 322.791,242 Z M 314.791,242L 309.791,242L 309.791,241L 314.791,241L 314.791,242 Z M 306.791,242L 301.791,242L 301.791,241L 306.791,241L 306.791,242 Z M 298.791,242L 293.791,242L 293.791,241L 298.791,241L 298.791,242 Z M 290.791,242L 285.791,242L 285.791,241L 290.791,241L 290.791,242 Z M 282.791,242L 277.791,242L 277.791,241L 282.791,241L 282.791,242 Z M 274.791,242L 269.791,242L 269.791,241L 274.791,241L 274.791,242 Z M 266.791,242L 261.791,242L 261.791,241L 266.791,241L 266.791,242 Z M 258.791,242L 253.791,242L 253.791,241L 258.791,241L 258.791,242 Z M 250.791,242L 245.791,242L 245.791,241L 250.791,241L 250.791,242 Z M 245,238.791L 245,233.791L 246,233.791L 246,238.791L 245,238.791 Z M 245,230.791L 245,225.791L 246,225.791L 246,230.791L 245,230.791 Z M 245,222.791L 245,217.791L 246,217.791L 246,222.791L 245,222.791 Z M 245,214.791L 245,209.791L 246,209.791L 246,214.791L 245,214.791 Z M 245,206.791L 245,201.791L 246,201.791L 246,206.791L 245,206.791 Z M 245,198.791L 245,193.791L 246,193.791L 246,198.791L 245,198.791 Z M 245,190.791L 245,185.791L 246,185.791L 246,190.791L 245,190.791 Z M 245,182.791L 245,177.791L 246,177.791L 246,182.791L 245,182.791 Z M 245,174.791L 245,169.791L 246,169.791L 246,174.791L 245,174.791 Z M 245,166.791L 245,161.791L 246,161.791L 246,166.791L 245,166.791 Z M 243,160.791L 243,155.791L 244,155.791L 244,160.791L 243,160.791 Z M 243,152.791L 243,147.791L 244,147.791L 244,152.791L 243,152.791 Z M 242.791,146L 239,146L 239,143.792L 240,143.792L 240,145.5L 239.5,145L 242.791,145L 242.791,146 Z M 239,140.792L 239,135.792L 240,135.792L 240,140.792L 239,140.792 Z M 239,132.792L 239,127.792L 240,127.792L 240,132.792L 239,132.792 Z M 239,124.792L 239,119.792L 240,119.792L 240,124.792L 239,124.792 Z M 239,116.792L 239,111.792L 240,111.792L 240,116.792L 239,116.792 Z M 239,108.792L 239,103.792L 240,103.792L 240,108.792L 239,108.792 Z M 239,100.792L 239,95.7915L 240,95.7915L 240,100.792L 239,100.792 Z M 239,92.7915L 239,87.7915L 240,87.7915L 240,92.7915L 239,92.7915 Z M 239,84.7915L 239,79.7915L 240,79.7915L 240,84.7915L 239,84.7915 Z M 236.792,79.9999L 231.792,79.9999L 231.792,78.9999L 236.792,78.9999L 236.792,79.9999 Z M 228.792,79.9999L 223.792,79.9999L 223.792,78.9999L 228.792,78.9999L 228.792,79.9999 Z M 220.792,79.9999L 218.33,79.9999L 216.047,78.2476L 216.656,77.4543L 218.804,79.1033L 218.5,78.9999L 220.792,78.9999L 220.792,79.9999 Z M 213.667,76.4212L 209.7,73.3771L 210.309,72.5838L 214.276,75.6279L 213.667,76.4212 Z M 207.321,71.5506L 203.354,68.5065L 203.963,67.7132L 207.929,70.7573L 207.321,71.5506 Z M 200.974,66.6801L 197.008,63.636L 197.616,62.8427L 201.583,65.8868L 200.974,66.6801 Z M 194.628,61.8095L 190.661,58.7654L 191.27,57.9721L 195.236,61.0162L 194.628,61.8095 Z M 188.281,56.939L 184.315,53.8949L 184.923,53.1016L 188.89,56.1457L 188.281,56.939 Z M 181.935,52.0684L 177.968,49.0244L 178.577,48.231L 182.543,51.2751L 181.935,52.0684 Z M 174.8,46.574L 177.924,42.6697L 178.705,43.2944L 175.581,47.1987L 174.8,46.574 Z M 178.32,41.2318L 174.338,38.2082L 174.942,37.4117L 178.925,40.4353L 178.32,41.2318 Z M 171.948,36.3941L 167.966,33.3705L 168.571,32.5741L 172.553,35.5977L 171.948,36.3941 Z M 165.577,31.5564L 161.595,28.5329L 162.199,27.7365L 166.182,30.7599L 165.577,31.5564 Z M 159.205,26.7188L 155.223,23.6952L 155.828,22.8987L 159.81,25.9223L 159.205,26.7188 Z M 152.834,21.8811L 148.851,18.8575L 149.456,18.0611L 153.438,21.0847L 152.834,21.8811 Z M 146.462,17.0434L 142.48,14.0198L 143.085,13.2234L 147.067,16.2469L 146.462,17.0434 Z M 140.09,12.2057L 136.108,9.18219L 136.713,8.38574L 140.695,11.4093L 140.09,12.2057 Z M 133.719,7.36804L 129.737,4.34454L 130.341,3.5481L 134.324,6.57159L 133.719,7.36804 Z M 127.347,2.5304L 125.198,0.898193L 125.897,0.80426L 124.497,2.63007L 123.703,2.02155L 125.406,-0.199158L 127.952,1.73395L 127.347,2.5304 Z M 122.671,5.01062L 119.628,8.97827L 118.835,8.36975L 121.877,4.4021L 122.671,5.01062 Z M 117.803,11.3588L 114.76,15.3265L 113.967,14.718L 117.009,10.7503L 117.803,11.3588 Z M 112.934,17.7071L 109.892,21.6747L 109.098,21.0662L 112.141,17.0986L 112.934,17.7071 Z M 108.066,24.0553L 105.024,28.0229L 104.23,27.4144L 107.273,23.4468L 108.066,24.0553 Z M 103.198,30.4035L 100.155,34.3712L 99.3617,33.7626L 102.404,29.795L 103.198,30.4035 Z M 98.3296,36.7518L 95.287,40.7194L 94.4934,40.1108L 97.5361,36.1432L 98.3296,36.7518 Z M 93.4614,43.1L 90.4187,47.0676L 89.6252,46.4591L 92.6678,42.4915L 93.4614,43.1 Z M 88.5931,49.4482L 85.5504,53.4158L 84.7569,52.8073L 87.7996,48.8397L 88.5931,49.4482 Z M 83.7248,55.7964L 80.6822,59.764L 79.8886,59.1555L 82.9313,55.1879L 83.7248,55.7964 Z M 78.8566,62.1447L 75.8139,66.1123L 75.0204,65.5037L 78.063,61.5361L 78.8566,62.1447 Z M 73.9883,68.4929L 70.9456,72.4605L 70.1521,71.852L 73.1948,67.8843L 73.9883,68.4929 Z M 69.12,74.8411L 66.0774,78.8087L 65.2838,78.2002L 68.3265,74.2325L 69.12,74.8411 Z M 64.2518,81.1893L 61.2091,85.157L 60.4156,84.5484L 63.4582,80.5808L 64.2518,81.1893 Z M 59.3835,87.5375L 56.3408,91.5052L 55.5473,90.8967L 58.59,86.929L 59.3835,87.5375 Z M 54.5152,93.8857L 51.4725,97.8534L 50.679,97.2449L 53.7217,93.2772L 54.5152,93.8857 Z M 49.6469,100.234L 46.6043,104.202L 45.8107,103.593L 48.8534,99.6254L 49.6469,100.234 Z M 44.7787,106.582L 41.736,110.55L 40.9425,109.941L 43.9851,105.974L 44.7787,106.582 Z M 39.9104,112.93L 36.8677,116.898L 36.0742,116.29L 39.1169,112.322L 39.9104,112.93 Z M 35.0421,119.279L 31.9995,123.246L 31.2059,122.638L 34.2486,118.67L 35.0421,119.279 Z M 30.1739,125.627L 27.1312,129.595L 26.3377,128.986L 29.3803,125.018L 30.1739,125.627 Z M 25.3056,131.975L 22.2629,135.943L 21.4694,135.334L 24.5121,131.367L 25.3056,131.975 Z M 20.4373,138.323L 17.3946,142.291L 16.6011,141.682L 19.6438,137.715L 20.4373,138.323 Z M 15.569,144.672L 12.5264,148.639L 11.7328,148.031L 14.7755,144.063L 15.569,144.672 Z M 10.7008,151.02L 7.65811,154.987L 6.86458,154.379L 9.90724,150.411L 10.7008,151.02 Z M 5.8325,157.368L 2.78984,161.336L 1.99631,160.727L 5.03897,156.759L 5.8325,157.368 Z M 0.715454,163.035L 4.68851,166.071L 4.08139,166.866L 0.108337,163.83L 0.715454,163.035 Z M 7.07234,167.892L 11.0454,170.928L 10.4383,171.722L 6.46523,168.687L 7.07234,167.892 Z M 13.4292,172.749L 17.4023,175.785L 16.7952,176.579L 12.8221,173.544L 13.4292,172.749 Z M 19.7861,177.606L 23.7592,180.642L 23.1521,181.436L 19.179,178.401L 19.7861,177.606 Z M 26.143,182.463L 30.1161,185.499L 29.5089,186.293L 25.5359,183.258L 26.143,182.463 Z M 32.4999,187.32L 36.473,190.356L 35.8658,191.15L 31.8928,188.115L 32.4999,187.32 Z M 38.8568,192.177L 42.8298,195.213L 42.2227,196.007L 38.2497,192.972L 38.8568,192.177 Z M 45.2137,197.034L 49.1867,200.07L 48.5796,200.864L 44.6066,197.829L 45.2137,197.034 Z M 51.5706,201.891L 55.5436,204.927L 54.9365,205.721L 50.9634,202.686L 51.5706,201.891 Z M 57.9275,206.748L 61.9005,209.783L 61.2934,210.578L 57.3203,207.542L 57.9275,206.748 Z M 64.2843,211.605L 68.2574,214.64L 67.6503,215.435L 63.6772,212.399L 64.2843,211.605 Z M 70.6412,216.462L 74.6143,219.497L 74.0072,220.292L 70.0341,217.256L 70.6412,216.462 Z M 76.9981,221.319L 80.9712,224.354L 80.3641,225.149L 76.391,222.113L 76.9981,221.319 Z M 83.355,226.176L 87.3281,229.211L 86.721,230.006L 82.7479,226.97L 83.355,226.176 Z M 89.9625,231.722L 86.839,235.627L 86.0581,235.002L 89.1816,231.098L 89.9625,231.722 Z M 86.9795,237.006L 90.945,240.051L 90.3359,240.844L 86.3704,237.799L 86.9795,237.006 Z M 93.3243,241.879L 97.2898,244.924L 96.6807,245.717L 92.7152,242.672L 93.3243,241.879 Z M 99.6691,246.751L 103.635,249.797L 103.025,250.59L 99.06,247.544L 99.6691,246.751 Z M 106.014,251.624L 109.979,254.67L 109.37,255.463L 105.405,252.417L 106.014,251.624 Z M 112.359,256.497L 116.324,259.542L 115.715,260.336L 111.749,257.29L 112.359,256.497 Z M 118.703,261.37L 122.669,264.415L 122.06,265.208L 118.094,262.163L 118.703,261.37 Z M 125.048,266.242L 129.014,269.288L 128.405,270.081L 124.439,267.036L 125.048,266.242 Z M 131.393,271.115L 135.358,274.161L 134.749,274.954L 130.784,271.908L 131.393,271.115 Z M 137.738,275.988L 141.703,279.034L 141.094,279.827L 137.129,276.781L 137.738,275.988 Z M 144.082,280.861L 148.048,283.906L 147.439,284.699L 143.473,281.654L 144.082,280.861 Z M 150.427,285.734L 154.393,288.779L 153.784,289.572L 149.818,286.527L 150.427,285.734 Z M 156.772,290.606L 160.737,293.652L 160.128,294.445L 156.163,291.399L 156.772,290.606 Z M 163.117,295.479L 167.082,298.525L 166.473,299.318L 162.508,296.272L 163.117,295.479 Z M 169.461,300.352L 173.427,303.397L 172.818,304.19L 168.852,301.145L 169.461,300.352 Z M 175.806,305.225L 179.772,308.27L 179.163,309.063L 175.197,306.018L 175.806,305.225 Z M 182.151,310.097L 186.116,313.143L 185.507,313.936L 181.542,310.891L 182.151,310.097 Z M 188.496,314.97L 192.461,318.016L 191.852,318.809L 187.887,315.763L 188.496,314.97 Z M 194.841,319.843L 198.806,322.889L 198.197,323.682L 194.231,320.636L 194.841,319.843 Z M 201.185,324.716L 205.151,327.761L 204.542,328.554L 200.576,325.509L 201.185,324.716 Z M 207.53,329.589L 211.175,332.388L 210.432,333.502L 209.6,332.947L 210.084,332.223L 210.195,332.897L 206.921,330.382L 207.53,329.589 Z M 208.73,335.981L 208.132,336.846L 207.068,338.339L 206.095,339.644L 205.78,340.051L 204.989,339.44L 205.304,339.032L 206.259,337.751L 207.313,336.271L 207.906,335.414L 208.73,335.981 Z M 204.739,339.898L 204.98,340.336L 207.26,344.215L 206.385,344.698L 204.105,340.819L 203.863,340.381L 204.739,339.898 Z "/>
		<path fill="#FFFFFF" fill-opacity="1" stroke-linecap="square" stroke-linejoin="miter" stroke="#E0E0E0" stroke-opacity="1" d="M 239.5,76.4999L 368.5,76.4999L 368.5,145.5L 365.5,145.5L 365.5,161.5L 377.5,161.5L 377.5,241.5L 245.5,241.5L 245.5,161.5L 245.5,145.5L 239.5,145.5L 239.5,76.4999 Z "/>
		<path fill="#E0E0E0" fill-opacity="1" stroke-linejoin="round" d="M 247,75.9999L 252,75.9999L 252,76.9999L 247,76.9999L 247,75.9999 Z M 255,75.9999L 260,75.9999L 260,76.9999L 255,76.9999L 255,75.9999 Z M 263,75.9999L 268,75.9999L 268,76.9999L 263,76.9999L 263,75.9999 Z M 271,75.9999L 276,75.9999L 276,76.9999L 271,76.9999L 271,75.9999 Z M 279,75.9999L 284,75.9999L 284,76.9999L 279,76.9999L 279,75.9999 Z M 287,75.9999L 292,75.9999L 292,76.9999L 287,76.9999L 287,75.9999 Z M 295,75.9999L 300,75.9999L 300,76.9999L 295,76.9999L 295,75.9999 Z M 303,75.9999L 308,75.9999L 308,76.9999L 303,76.9999L 303,75.9999 Z M 311,75.9999L 316,75.9999L 316,76.9999L 311,76.9999L 311,75.9999 Z M 319,75.9999L 324,75.9999L 324,76.9999L 319,76.9999L 319,75.9999 Z M 327,75.9999L 332,75.9999L 332,76.9999L 327,76.9999L 327,75.9999 Z M 335,75.9999L 340,75.9999L 340,76.9999L 335,76.9999L 335,75.9999 Z M 343,75.9999L 348,75.9999L 348,76.9999L 343,76.9999L 343,75.9999 Z M 351,75.9999L 356,75.9999L 356,76.9999L 351,76.9999L 351,75.9999 Z M 359,75.9999L 364,75.9999L 364,76.9999L 359,76.9999L 359,75.9999 Z M 367,75.9999L 369,75.9999L 369,79.9999L 368,79.9999L 368,76.4999L 368.5,76.9999L 367,76.9999L 367,75.9999 Z M 369,82.9999L 369,87.9999L 368,87.9999L 368,82.9999L 369,82.9999 Z M 369,90.9999L 369,95.9999L 368,95.9999L 368,90.9999L 369,90.9999 Z M 369,98.9999L 369,104L 368,104L 368,98.9999L 369,98.9999 Z M 369,107L 369,112L 368,112L 368,107L 369,107 Z M 369,115L 369,120L 368,120L 368,115L 369,115 Z M 369,123L 369,128L 368,128L 368,123L 369,123 Z M 369,131L 369,136L 368,136L 368,131L 369,131 Z M 369,139L 369,144L 368,144L 368,139L 369,139 Z M 367,146L 365.5,146L 366,145.5L 366,149L 365,149L 365,145L 367,145L 367,146 Z M 366,152L 366,157L 365,157L 365,152L 366,152 Z M 366,160L 366,161.5L 365.5,161L 369,161L 369,162L 365,162L 365,160L 366,160 Z M 372,161L 377,161L 377,162L 372,162L 372,161 Z M 378,164L 378,169L 377,169L 377,164L 378,164 Z M 378,172L 378,177L 377,177L 377,172L 378,172 Z M 378,180L 378,185L 377,185L 377,180L 378,180 Z M 378,188L 378,193L 377,193L 377,188L 378,188 Z M 378,196L 378,201L 377,201L 377,196L 378,196 Z M 378,204L 378,209L 377,209L 377,204L 378,204 Z M 378,212L 378,217L 377,217L 377,212L 378,212 Z M 378,220L 378,225L 377,225L 377,220L 378,220 Z M 378,228L 378,233L 377,233L 377,228L 378,228 Z M 378,236L 378,241L 377,241L 377,236L 378,236 Z M 375,242L 370,242L 370,241L 375,241L 375,242 Z M 367,242L 362,242L 362,241L 367,241L 367,242 Z M 359,242L 354,242L 354,241L 359,241L 359,242 Z M 351,242L 346,242L 346,241L 351,241L 351,242 Z M 343,242L 338,242L 338,241L 343,241L 343,242 Z M 335,242L 330,242L 330,241L 335,241L 335,242 Z M 327,242L 322,242L 322,241L 327,241L 327,242 Z M 319,242L 314,242L 314,241L 319,241L 319,242 Z M 311,242L 306,242L 306,241L 311,241L 311,242 Z M 303,242L 298,242L 298,241L 303,241L 303,242 Z M 295,242L 290,242L 290,241L 295,241L 295,242 Z M 287,242L 282,242L 282,241L 287,241L 287,242 Z M 279,242L 274,242L 274,241L 279,241L 279,242 Z M 271,242L 266,242L 266,241L 271,241L 271,242 Z M 263,242L 258,242L 258,241L 263,241L 263,242 Z M 255,242L 250,242L 250,241L 255,241L 255,242 Z M 247,242L 245,242L 245,238L 246,238L 246,241.5L 245.5,241L 247,241L 247,242 Z M 245,235L 245,230L 246,230L 246,235L 245,235 Z M 245,227L 245,222L 246,222L 246,227L 245,227 Z M 245,219L 245,214L 246,214L 246,219L 245,219 Z M 245,211L 245,206L 246,206L 246,211L 245,211 Z M 245,203L 245,198L 246,198L 246,203L 245,203 Z M 245,195L 245,190L 246,190L 246,195L 245,195 Z M 245,187L 245,182L 246,182L 246,187L 245,187 Z M 245,179L 245,174L 246,174L 246,179L 245,179 Z M 245,171L 245,166L 246,166L 246,171L 245,171 Z M 245,163L 245,161.5L 245,158L 246,158L 246,161.5L 246,163L 245,163 Z M 245,155L 245,150L 246,150L 246,155L 245,155 Z M 245,147L 245,145.5L 245.5,146L 242,146L 242,145L 246,145L 246,147L 245,147 Z M 239,145L 239,140L 240,140L 240,145L 239,145 Z M 239,137L 239,132L 240,132L 240,137L 239,137 Z M 239,129L 239,124L 240,124L 240,129L 239,129 Z M 239,121L 239,116L 240,116L 240,121L 239,121 Z M 239,113L 239,108L 240,108L 240,113L 239,113 Z M 239,105L 239,99.9999L 240,99.9999L 240,105L 239,105 Z M 239,96.9999L 239,91.9999L 240,91.9999L 240,96.9999L 239,96.9999 Z M 239,88.9999L 239,83.9999L 240,83.9999L 240,88.9999L 239,88.9999 Z M 239,80.9999L 239,75.9999C 239.167,75.9999 239.333,75.9999 239.5,75.9999L 244,75.9999L 244,76.9999L 239.5,76.9999L 240,76.4999L 240,80.9999L 239,80.9999 Z "/>
		<rect x="239.5" y="76.4999" fill="#FFFFFF" fill-opacity="1" stroke-linecap="square" stroke-linejoin="miter" stroke="#E0E0E0" stroke-opacity="1" width="30" height="47"/>
		<path fill="#E0E0E0" fill-opacity="1" stroke-linejoin="round" d="M 247,75.9999L 252,75.9999L 252,76.9999L 247,76.9999L 247,75.9999 Z M 255,75.9999L 260,75.9999L 260,76.9999L 255,76.9999L 255,75.9999 Z M 263,75.9999L 268,75.9999L 268,76.9999L 263,76.9999L 263,75.9999 Z M 270,77.9999L 270,82.9999L 269,82.9999L 269,77.9999L 270,77.9999 Z M 270,85.9999L 270,90.9999L 269,90.9999L 269,85.9999L 270,85.9999 Z M 270,93.9999L 270,98.9999L 269,98.9999L 269,93.9999L 270,93.9999 Z M 270,102L 270,107L 269,107L 269,102L 270,102 Z M 270,110L 270,115L 269,115L 269,110L 270,110 Z M 270,118L 270,123L 269,123L 269,118L 270,118 Z M 267,124L 262,124L 262,123L 267,123L 267,124 Z M 259,124L 254,124L 254,123L 259,123L 259,124 Z M 251,124L 246,124L 246,123L 251,123L 251,124 Z M 243,124L 239,124L 239,122L 240,122L 240,123.5L 239.5,123L 243,123L 243,124 Z M 239,119L 239,114L 240,114L 240,119L 239,119 Z M 239,111L 239,106L 240,106L 240,111L 239,111 Z M 239,103L 239,97.9999L 240,97.9999L 240,103L 239,103 Z M 239,94.9999L 239,89.9999L 240,89.9999L 240,94.9999L 239,94.9999 Z M 239,86.9999L 239,81.9999L 240,81.9999L 240,86.9999L 239,86.9999 Z M 239,78.9999L 239,75.9999C 239.167,75.9999 239.333,75.9999 239.5,75.9999L 244,75.9999L 244,76.9999L 239.5,76.9999L 240,76.4999L 240,78.9999L 239,78.9999 Z "/>
		<rect x="338.5" y="76.4999" fill="#FFFFFF" fill-opacity="1" stroke-linecap="square" stroke-linejoin="miter" stroke="#E0E0E0" stroke-opacity="1" width="30" height="47"/>
		<path fill="#E0E0E0" fill-opacity="1" stroke-linejoin="round" d="M 346,75.9999L 351,75.9999L 351,76.9999L 346,76.9999L 346,75.9999 Z M 354,75.9999L 359,75.9999L 359,76.9999L 354,76.9999L 354,75.9999 Z M 362,75.9999L 367,75.9999L 367,76.9999L 362,76.9999L 362,75.9999 Z M 369,77.9999L 369,82.9999L 368,82.9999L 368,77.9999L 369,77.9999 Z M 369,85.9999L 369,90.9999L 368,90.9999L 368,85.9999L 369,85.9999 Z M 369,93.9999L 369,98.9999L 368,98.9999L 368,93.9999L 369,93.9999 Z M 369,102L 369,107L 368,107L 368,102L 369,102 Z M 369,110L 369,115L 368,115L 368,110L 369,110 Z M 369,118L 369,123L 368,123L 368,118L 369,118 Z M 366,124L 361,124L 361,123L 366,123L 366,124 Z M 358,124L 353,124L 353,123L 358,123L 358,124 Z M 350,124L 345,124L 345,123L 350,123L 350,124 Z M 342,124L 338,124L 338,122L 339,122L 339,123.5L 338.5,123L 342,123L 342,124 Z M 338,119L 338,114L 339,114L 339,119L 338,119 Z M 338,111L 338,106L 339,106L 339,111L 338,111 Z M 338,103L 338,97.9999L 339,97.9999L 339,103L 338,103 Z M 338,94.9999L 338,89.9999L 339,89.9999L 339,94.9999L 338,94.9999 Z M 338,86.9999L 338,81.9999L 339,81.9999L 339,86.9999L 338,86.9999 Z M 338,78.9999L 338,75.9999C 338.167,75.9999 338.333,75.9999 338.5,75.9999L 343,75.9999L 343,76.9999L 338.5,76.9999L 339,76.4999L 339,78.9999L 338,78.9999 Z "/>
		<path fill="#FFFFFF" fill-opacity="1" stroke-linecap="square" stroke-linejoin="miter" stroke="#E0E0E0" stroke-opacity="1" d="M 304.5,76.4999L 339.5,76.4999L 339.5,126.5L 338.5,126.5L 338.5,130.5L 317.5,130.5L 317.5,126.5L 304.5,126.5L 304.5,76.4999 Z "/>
		<path fill="#E0E0E0" fill-opacity="1" stroke-linejoin="round" d="M 312,75.9999L 317,75.9999L 317,76.9999L 312,76.9999L 312,75.9999 Z M 320,75.9999L 325,75.9999L 325,76.9999L 320,76.9999L 320,75.9999 Z M 328,75.9999L 333,75.9999L 333,76.9999L 328,76.9999L 328,75.9999 Z M 336,75.9999L 340,75.9999L 340,77.9999L 339,77.9999L 339,76.4999L 339.5,76.9999L 336,76.9999L 336,75.9999 Z M 340,80.9999L 340,85.9999L 339,85.9999L 339,80.9999L 340,80.9999 Z M 340,88.9999L 340,93.9999L 339,93.9999L 339,88.9999L 340,88.9999 Z M 340,96.9999L 340,102L 339,102L 339,96.9999L 340,96.9999 Z M 340,105L 340,110L 339,110L 339,105L 340,105 Z M 340,113L 340,118L 339,118L 339,113L 340,113 Z M 340,121L 340,126L 339,126L 339,121L 340,121 Z M 339,128L 339,131L 336,131L 336,130L 338.5,130L 338,130.5L 338,128L 339,128 Z M 333,131L 328,131L 328,130L 333,130L 333,131 Z M 325,131L 320,131L 320,130L 325,130L 325,131 Z M 317,130L 317,126.5L 317.5,127L 316,127L 316,126L 318,126L 318,130L 317,130 Z M 313,127L 308,127L 308,126L 313,126L 313,127 Z M 304,127L 304,122L 305,122L 305,127L 304,127 Z M 304,119L 304,114L 305,114L 305,119L 304,119 Z M 304,111L 304,106L 305,106L 305,111L 304,111 Z M 304,103L 304,97.9999L 305,97.9999L 305,103L 304,103 Z M 304,94.9999L 304,89.9999L 305,89.9999L 305,94.9999L 304,94.9999 Z M 304,86.9999L 304,81.9999L 305,81.9999L 305,86.9999L 304,86.9999 Z M 304,78.9999L 304,75.9999C 304.167,75.9999 304.333,75.9999 304.5,75.9999L 309,75.9999L 309,76.9999L 304.5,76.9999L 305,76.4999L 305,78.9999L 304,78.9999 Z "/>
		<path fill="#FFFFFF" fill-opacity="1" stroke-linecap="square" stroke-linejoin="miter" stroke="#E0E0E0" stroke-opacity="1" d="M 304.5,76.4998L 269.5,76.4998L 269.5,126.5L 270.5,126.5L 270.5,130.5L 291.5,130.5L 291.5,126.5L 304.5,126.5L 304.5,76.4998 Z "/>
		<path fill="#E0E0E0" fill-opacity="1" stroke-linejoin="round" d="M 297,76.9998L 292,76.9998L 292,75.9998L 297,75.9998L 297,76.9998 Z M 289,76.9998L 284,76.9998L 284,75.9998L 289,75.9998L 289,76.9998 Z M 281,76.9998L 276,76.9998L 276,75.9998L 281,75.9998L 281,76.9998 Z M 273,76.9998L 269.5,76.9998L 270,76.4998L 270,77.9998L 269,77.9998L 269,75.9998L 273,75.9998L 273,76.9998 Z M 270,80.9998L 270,85.9998L 269,85.9998L 269,80.9998L 270,80.9998 Z M 270,88.9998L 270,93.9998L 269,93.9998L 269,88.9998L 270,88.9998 Z M 270,96.9998L 270,102L 269,102L 269,96.9998L 270,96.9998 Z M 270,105L 270,110L 269,110L 269,105L 270,105 Z M 270,113L 270,118L 269,118L 269,113L 270,113 Z M 270,121L 270,126L 269,126L 269,121L 270,121 Z M 271,128L 271,130.5L 270.5,130L 273,130L 273,131L 270,131L 270,128L 271,128 Z M 276,130L 281,130L 281,131L 276,131L 276,130 Z M 284,130L 289,130L 289,131L 284,131L 284,130 Z M 291,130L 291,126L 293,126L 293,127L 291.5,127L 292,126.5L 292,130L 291,130 Z M 296,126L 301,126L 301,127L 296,127L 296,126 Z M 304,127L 304,122L 305,122L 305,127L 304,127 Z M 304,119L 304,114L 305,114L 305,119L 304,119 Z M 304,111L 304,106L 305,106L 305,111L 304,111 Z M 304,103L 304,97.9998L 305,97.9998L 305,103L 304,103 Z M 304,94.9998L 304,89.9998L 305,89.9998L 305,94.9998L 304,94.9998 Z M 304,86.9998L 304,81.9998L 305,81.9998L 305,86.9998L 304,86.9998 Z M 304,78.9998L 304,76.4998L 304.5,76.9998L 300,76.9998L 300,75.9998L 304.5,75.9998L 305,75.9998C 305,76.9998 305,77.9998 305,78.9998L 304,78.9998 Z "/>
	</g>
</svg>
