<?xml version="1.0" encoding="utf-8"?>
<!DOCTYPE svg PUBLIC "-//W3C//DTD SVG 1.1//EN" "http://www.w3.org/Graphics/SVG/1.1/DTD/svg11.dtd">
<svg xmlns="http://www.w3.org/2000/svg" xmlns:xlink="http://www.w3.org/1999/xlink" version="1.1" baseProfile="full" width="471" height="430.016" viewBox="0 0 471.00 430.02" enable-background="new 0 0 471.00 430.02" xml:space="preserve" id="map">
	<g>
		<path fill="none" stroke-width="2" stroke-linejoin="round" stroke="#C0C0C0" stroke-opacity="1" d="M 205.043,341.077C 253.065,428.001 363,429.016 363,429.016L 363,397L 470,397L 470,76.9999L 369,76.9999L 369,146L 366,146L 366,162L 378,162L 378,242L 246,242L 246,162L 244,162L 244,146L 240,146L 240,80L 219,80L 176,47L 180,42L 126,1L 1,164L 90,232L 86,237L 211,333C 211,333 205.579,341.131 205.043,341.077 Z "/>
		<g>
			<path fill="#A8A8A8" fill-opacity="1" stroke-width="0.2" stroke-linejoin="round" d="M 204.195,103.675L 210.737,95.2403L 206.981,92.3574C 203.674,96.3857 198.669,98.2634 193.803,97.7493L 193.183,102.168L 204.195,103.675 Z "/>
			<path fill="#A8A8A8" fill-opacity="1" stroke-width="0.2" stroke-linejoin="round" d="M 181.759,100.604L 192.192,102.032L 192.813,97.611C 190.501,97.2093 188.25,96.2577 186.26,94.7299C 184.217,93.1611 182.689,91.1697 181.706,88.9725L 177.683,90.6185L 181.759,100.604 Z "/>
			<path fill="#A8A8A8" fill-opacity="1" stroke-width="0.2" stroke-linejoin="round" d="M 173.2,79.6377L 177.305,89.6927L 181.328,88.0466C 179.654,83.5192 180.2,78.2808 183.198,74.0991L 179.624,71.355L 173.2,79.6377 Z "/>
			<path fill="#A8A8A8" fill-opacity="1" stroke-width="0.2" stroke-linejoin="round" d="M 213.575,125.396L 224.008,126.824L 224.629,122.403C 222.318,122.001 220.067,121.05 218.077,119.522C 216.033,117.953 214.505,115.962 213.522,113.765L 209.499,115.411L 213.575,125.396 Z "/>
			<path fill="#A8A8A8" fill-opacity="1" stroke-width="0.2" stroke-linejoin="round" d="M 205.017,104.43L 209.121,114.485L 213.144,112.839C 211.471,108.311 212.017,103.073 215.014,98.8913L 211.44,96.1472L 205.017,104.43 Z "/>
			<path fill="#A8A8A8" fill-opacity="1" stroke-width="0.2" stroke-linejoin="round" d="M 212.737,125.796L 208.649,115.781L 204.124,117.633C 205.797,122.16 205.252,127.399 202.254,131.58L 206.013,134.466L 212.737,125.796 Z "/>
			<path fill="#A8A8A8" fill-opacity="1" stroke-width="0.2" stroke-linejoin="round" d="M 181.741,101.759L 174.9,110.581L 178.47,113.322C 181.778,109.294 186.783,107.416 191.648,107.93L 192.312,103.205L 181.741,101.759 Z "/>
			<path fill="#A8A8A8" fill-opacity="1" stroke-width="0.2" stroke-linejoin="round" d="M 193.303,103.341L 192.639,108.068C 194.95,108.47 197.201,109.422 199.192,110.949C 201.235,112.518 202.763,114.51 203.746,116.707L 208.271,114.856L 204.178,104.83L 193.303,103.341 Z "/>
			<path fill="#A8A8A8" fill-opacity="1" stroke-width="0.2" stroke-linejoin="round" d="M 180.61,101.341L 176.522,91.3262L 171.997,93.1774C 173.671,97.7049 173.125,102.943 170.127,107.125L 173.886,110.011L 180.61,101.341 Z "/>
			<path fill="#A8A8A8" fill-opacity="1" stroke-width="0.2" stroke-linejoin="round" d="M 161.176,78.8859L 160.512,83.613C 162.824,84.0148 165.075,84.9664 167.065,86.4942C 169.109,88.0629 170.636,90.0544 171.62,92.2516L 176.144,90.4004L 172.052,80.3745L 161.176,78.8859 Z "/>
			<path fill="#A8A8A8" fill-opacity="1" stroke-width="0.2" stroke-linejoin="round" d="M 172.181,79.2945L 178.722,70.8597L 174.967,67.9769C 171.66,72.0051 166.654,73.8829 161.789,73.3687L 161.168,77.787L 172.181,79.2945 Z "/>
			<path fill="#A8A8A8" fill-opacity="1" stroke-width="0.2" stroke-linejoin="round" d="M 213.717,126.559L 206.876,135.381L 210.446,138.122C 213.754,134.094 218.759,132.216 223.624,132.73L 224.288,128.005L 213.717,126.559 Z "/>
		</g>
		<g>
			<path fill="#A8A8A8" fill-opacity="1" stroke-width="0.2" stroke-linejoin="round" d="M 137.189,45.301L 143.73,36.8663L 139.975,33.9835C 136.668,38.0117 131.662,39.8894 126.797,39.3752L 126.176,43.7936L 137.189,45.301 Z "/>
			<path fill="#A8A8A8" fill-opacity="1" stroke-width="0.2" stroke-linejoin="round" d="M 114.753,42.2299L 125.186,43.658L 125.807,39.2371C 123.495,38.8353 121.244,37.8837 119.254,36.3559C 117.21,34.7872 115.683,32.7957 114.699,30.5985L 110.676,32.2445L 114.753,42.2299 Z "/>
			<path fill="#A8A8A8" fill-opacity="1" stroke-width="0.2" stroke-linejoin="round" d="M 146.569,67.0221L 157.002,68.4502L 157.623,64.0292C 155.312,63.6275 153.06,62.6759 151.07,61.1481C 149.027,59.5793 147.499,57.5879 146.516,55.3907L 142.493,57.0367L 146.569,67.0221 Z "/>
			<path fill="#A8A8A8" fill-opacity="1" stroke-width="0.2" stroke-linejoin="round" d="M 138.01,46.0559L 142.115,56.1109L 146.138,54.4648C 144.464,49.9374 145.01,44.699 148.008,40.5173L 144.434,37.7732L 138.01,46.0559 Z "/>
			<path fill="#A8A8A8" fill-opacity="1" stroke-width="0.2" stroke-linejoin="round" d="M 145.73,67.422L 141.642,57.4075L 137.118,59.2587C 138.791,63.7861 138.245,69.0247 135.247,73.2062L 139.006,76.0921L 145.73,67.422 Z "/>
			<path fill="#A8A8A8" fill-opacity="1" stroke-width="0.2" stroke-linejoin="round" d="M 114.735,43.3846L 107.893,52.2068L 111.464,54.9479C 114.771,50.9197 119.777,49.0419 124.642,49.5561L 125.306,44.8315L 114.735,43.3846 Z "/>
			<path fill="#A8A8A8" fill-opacity="1" stroke-width="0.2" stroke-linejoin="round" d="M 126.297,44.9672L 125.632,49.6943C 127.944,50.0961 130.195,51.0477 132.185,52.5754C 134.229,54.1442 135.756,56.1356 136.74,58.3328L 141.264,56.4816L 137.172,46.4557L 126.297,44.9672 Z "/>
			<path fill="#A8A8A8" fill-opacity="1" stroke-width="0.2" stroke-linejoin="round" d="M 113.604,42.9667L 109.516,32.9522L 104.991,34.8035C 106.665,39.3309 106.119,44.5694 103.121,48.751L 106.88,51.6368L 113.604,42.9667 Z "/>
			<path fill="#A8A8A8" fill-opacity="1" stroke-width="0.2" stroke-linejoin="round" d="M 146.711,68.1845L 139.869,77.0067L 143.44,79.7478C 146.748,75.7196 151.753,73.8419 156.618,74.356L 157.282,69.6315L 146.711,68.1845 Z "/>
		</g>
		<g>
			<path fill="#A8A8A8" fill-opacity="1" stroke-width="0.2" stroke-linejoin="round" d="M 117.402,102.783L 113.314,92.7687L 108.789,94.62C 110.463,99.1475 109.917,104.386 106.919,108.568L 110.678,111.453L 117.402,102.783 Z "/>
			<path fill="#A8A8A8" fill-opacity="1" stroke-width="0.2" stroke-linejoin="round" d="M 103.524,120.678L 110.065,112.244L 106.31,109.361C 103.002,113.389 97.9969,115.267 93.1316,114.753L 92.5109,119.171L 103.524,120.678 Z "/>
			<path fill="#A8A8A8" fill-opacity="1" stroke-width="0.2" stroke-linejoin="round" d="M 81.0871,117.607L 91.5201,119.035L 92.1412,114.614C 89.8296,114.213 87.5785,113.261 85.5883,111.733C 83.545,110.164 82.0173,108.173 81.0339,105.976L 77.0109,107.622L 81.0871,117.607 Z "/>
			<path fill="#A8A8A8" fill-opacity="1" stroke-width="0.2" stroke-linejoin="round" d="M 86.4065,78.7458L 79.5647,87.5681L 83.1353,90.3092C 86.4428,86.281 91.4481,84.4032 96.3134,84.9174L 96.9772,80.1928L 86.4065,78.7458 Z "/>
			<path fill="#A8A8A8" fill-opacity="1" stroke-width="0.2" stroke-linejoin="round" d="M 97.9679,80.3284L 97.3038,85.0556C 99.6154,85.4573 101.867,86.4089 103.857,87.9368C 105.9,89.5055 107.428,91.4969 108.411,93.6941L 112.936,91.8429L 108.843,81.817L 97.9679,80.3284 Z "/>
			<path fill="#A8A8A8" fill-opacity="1" stroke-width="0.2" stroke-linejoin="round" d="M 112.904,142.399L 123.337,143.827L 123.958,139.406C 121.646,139.005 119.395,138.053 117.405,136.525C 115.361,134.957 113.834,132.965 112.85,130.768L 108.827,132.414L 112.904,142.399 Z "/>
			<path fill="#A8A8A8" fill-opacity="1" stroke-width="0.2" stroke-linejoin="round" d="M 104.345,121.433L 108.45,131.488L 112.473,129.842C 110.799,125.315 111.345,120.076 114.343,115.895L 110.768,113.15L 104.345,121.433 Z "/>
			<path fill="#A8A8A8" fill-opacity="1" stroke-width="0.2" stroke-linejoin="round" d="M 118.223,103.538L 111.381,112.36L 114.952,115.101C 118.259,111.073 123.265,109.195 128.13,109.71L 128.794,104.985L 118.223,103.538 Z "/>
			<path fill="#A8A8A8" fill-opacity="1" stroke-width="0.2" stroke-linejoin="round" d="M 129.784,105.121L 129.12,109.848C 131.432,110.25 133.683,111.201 135.673,112.729C 137.717,114.298 139.244,116.289 140.228,118.486L 144.752,116.635L 140.66,106.609L 129.784,105.121 Z "/>
			<path fill="#A8A8A8" fill-opacity="1" stroke-width="0.2" stroke-linejoin="round" d="M 112.065,142.799L 107.977,132.785L 103.452,134.636C 105.126,139.163 104.58,144.402 101.582,148.584L 105.341,151.469L 112.065,142.799 Z "/>
			<path fill="#A8A8A8" fill-opacity="1" stroke-width="0.2" stroke-linejoin="round" d="M 81.0697,118.762L 74.2279,127.584L 77.7985,130.325C 81.106,126.297 86.1113,124.419 90.9766,124.933L 91.6404,120.209L 81.0697,118.762 Z "/>
			<path fill="#A8A8A8" fill-opacity="1" stroke-width="0.2" stroke-linejoin="round" d="M 92.6311,120.344L 91.967,125.072C 94.2786,125.473 96.5297,126.425 98.5199,127.953C 100.563,129.521 102.091,131.513 103.074,133.71L 107.599,131.859L 103.506,121.833L 92.6311,120.344 Z "/>
			<path fill="#A8A8A8" fill-opacity="1" stroke-width="0.2" stroke-linejoin="round" d="M 79.9385,118.344L 75.8504,108.33L 71.3257,110.181C 72.9994,114.708 72.4534,119.947 69.4555,124.128L 73.2146,127.014L 79.9385,118.344 Z "/>
			<path fill="#A8A8A8" fill-opacity="1" stroke-width="0.2" stroke-linejoin="round" d="M 85.3873,78.4028L 81.2993,68.3882L 76.7746,70.2395C 78.4482,74.767 77.9023,80.0054 74.9044,84.187L 78.6635,87.0729L 85.3873,78.4028 Z "/>
			<path fill="#A8A8A8" fill-opacity="1" stroke-width="0.2" stroke-linejoin="round" d="M 108.822,80.9887L 115.364,72.554L 111.608,69.6711C 108.301,73.6993 103.296,75.5771 98.4303,75.0629L 97.8096,79.4813L 108.822,80.9887 Z "/>
			<path fill="#A8A8A8" fill-opacity="1" stroke-width="0.2" stroke-linejoin="round" d="M 86.3858,77.9176L 96.8188,79.3456L 97.4399,74.9247C 95.1283,74.5229 92.8772,73.5714 90.8871,72.0436C 88.8437,70.4749 87.316,68.4834 86.3327,66.2862L 82.3097,67.9322L 86.3858,77.9176 Z "/>
			<path fill="#A8A8A8" fill-opacity="1" stroke-width="0.2" stroke-linejoin="round" d="M 113.046,143.562L 106.204,152.384L 109.775,155.125C 113.082,151.097 118.087,149.219 122.953,149.733L 123.617,145.009L 113.046,143.562 Z "/>
			<path fill="#A8A8A8" fill-opacity="1" stroke-width="0.2" stroke-linejoin="round" d="M 140.789,105.529L 147.33,97.0945L 143.575,94.2117C 140.268,98.2399 135.262,100.118 130.397,99.6035L 129.776,104.022L 140.789,105.529 Z "/>
			<path fill="#A8A8A8" fill-opacity="1" stroke-width="0.2" stroke-linejoin="round" d="M 118.352,102.458L 128.785,103.886L 129.407,99.4652C 127.095,99.0635 124.844,98.1119 122.854,96.5841C 120.81,95.0154 119.283,93.0239 118.299,90.8267L 114.276,92.4727L 118.352,102.458 Z "/>
			<path fill="#A8A8A8" fill-opacity="1" stroke-width="0.2" stroke-linejoin="round" d="M 109.794,81.4919L 113.898,91.5469L 117.921,89.9009C 116.248,85.3734 116.794,80.1349 119.792,75.9533L 116.217,73.2092L 109.794,81.4919 Z "/>
			<path fill="#A8A8A8" fill-opacity="1" stroke-width="0.2" stroke-linejoin="round" d="M 145.746,116.469L 150.184,114.713C 149.393,112.504 149.109,110.077 149.455,107.592C 149.81,105.04 150.788,102.729 152.213,100.789L 148.37,97.7679L 141.671,106.277L 145.746,116.469 Z "/>
		</g>
		<g>
			<path fill="#A8A8A8" fill-opacity="1" stroke-width="0.2" stroke-linejoin="round" d="M 89.354,166.486L 85.266,156.472L 80.7413,158.323C 82.4149,162.85 81.869,168.089 78.8711,172.27L 82.6302,175.156L 89.354,166.486 Z "/>
			<path fill="#A8A8A8" fill-opacity="1" stroke-width="0.2" stroke-linejoin="round" d="M 75.4761,184.381L 82.0174,175.946L 78.2622,173.064C 74.9546,177.092 69.9493,178.97 65.084,178.455L 64.4633,182.874L 75.4761,184.381 Z "/>
			<path fill="#A8A8A8" fill-opacity="1" stroke-width="0.2" stroke-linejoin="round" d="M 53.0395,181.31L 63.4725,182.738L 64.0936,178.317C 61.782,177.915 59.5309,176.964 57.5407,175.436C 55.4973,173.867 53.9697,171.876 52.9863,169.679L 48.9633,171.325L 53.0395,181.31 Z "/>
			<path fill="#A8A8A8" fill-opacity="1" stroke-width="0.2" stroke-linejoin="round" d="M 44.4808,160.344L 48.5854,170.399L 52.6085,168.753C 50.9349,164.225 51.4808,158.987 54.4787,154.805L 50.9042,152.061L 44.4808,160.344 Z "/>
			<path fill="#A8A8A8" fill-opacity="1" stroke-width="0.2" stroke-linejoin="round" d="M 58.3589,142.449L 51.5171,151.271L 55.0877,154.012C 58.3952,149.984 63.4005,148.106 68.2658,148.62L 68.9296,143.896L 58.3589,142.449 Z "/>
			<path fill="#A8A8A8" fill-opacity="1" stroke-width="0.2" stroke-linejoin="round" d="M 76.2973,185.136L 80.4019,195.191L 84.425,193.545C 82.7514,189.017 83.2973,183.779 86.2952,179.597L 82.7207,176.853L 76.2973,185.136 Z "/>
			<path fill="#A8A8A8" fill-opacity="1" stroke-width="0.2" stroke-linejoin="round" d="M 90.1754,167.241L 83.3336,176.063L 86.9042,178.804C 90.2117,174.776 95.2169,172.898 100.082,173.412L 100.746,168.688L 90.1754,167.241 Z "/>
			<path fill="#A8A8A8" fill-opacity="1" stroke-width="0.2" stroke-linejoin="round" d="M 53.0221,182.465L 46.1803,191.287L 49.7509,194.028C 53.0584,190 58.0637,188.122 62.929,188.636L 63.5928,183.912L 53.0221,182.465 Z "/>
			<path fill="#A8A8A8" fill-opacity="1" stroke-width="0.2" stroke-linejoin="round" d="M 64.5835,184.047L 63.9194,188.774C 66.231,189.176 68.4821,190.128 70.4723,191.656C 72.5157,193.224 74.0433,195.216 75.0267,197.413L 79.5513,195.562L 75.4586,185.536L 64.5835,184.047 Z "/>
			<path fill="#A8A8A8" fill-opacity="1" stroke-width="0.2" stroke-linejoin="round" d="M 51.8909,182.047L 47.8028,172.032L 43.2781,173.884C 44.9518,178.411 44.4058,183.65 41.4079,187.831L 45.167,190.717L 51.8909,182.047 Z "/>
			<path fill="#A8A8A8" fill-opacity="1" stroke-width="0.2" stroke-linejoin="round" d="M 32.4571,159.592L 31.793,164.319C 34.1046,164.721 36.3558,165.673 38.3459,167.2C 40.3893,168.769 41.9169,170.761 42.9003,172.958L 47.4249,171.107L 43.3322,161.081L 32.4571,159.592 Z "/>
			<path fill="#A8A8A8" fill-opacity="1" stroke-width="0.2" stroke-linejoin="round" d="M 57.3397,142.106L 53.2516,132.091L 48.7269,133.942C 50.4006,138.47 49.8546,143.708 46.8567,147.89L 50.6158,150.776L 57.3397,142.106 Z "/>
			<path fill="#A8A8A8" fill-opacity="1" stroke-width="0.2" stroke-linejoin="round" d="M 43.4617,160.001L 50.003,151.566L 46.2478,148.683C 42.9403,152.711 37.935,154.589 33.0696,154.075L 32.4489,158.493L 43.4617,160.001 Z "/>
			<path fill="#A8A8A8" fill-opacity="1" stroke-width="0.2" stroke-linejoin="round" d="M 58.3382,141.62L 68.7712,143.048L 69.3923,138.628C 67.0807,138.226 64.8296,137.274 62.8395,135.746C 60.7961,134.178 59.2684,132.186 58.285,129.989L 54.262,131.635L 58.3382,141.62 Z "/>
			<path fill="#A8A8A8" fill-opacity="1" stroke-width="0.2" stroke-linejoin="round" d="M 90.3048,166.161L 100.738,167.589L 101.359,163.168C 99.0473,162.766 96.7962,161.815 94.806,160.287C 92.7626,158.718 91.235,156.727 90.2516,154.53L 86.2286,156.176L 90.3048,166.161 Z "/>
		</g>
		<g>
			<path fill="#A8A8A8" fill-opacity="1" stroke-width="0.2" stroke-linejoin="round" d="M 172.95,151.363L 168.862,141.348L 164.337,143.199C 166.01,147.727 165.464,152.965 162.467,157.147L 166.226,160.033L 172.95,151.363 Z "/>
			<path fill="#A8A8A8" fill-opacity="1" stroke-width="0.2" stroke-linejoin="round" d="M 159.072,169.258L 165.613,160.823L 161.858,157.94C 158.55,161.968 153.545,163.846 148.68,163.332L 148.059,167.75L 159.072,169.258 Z "/>
			<path fill="#A8A8A8" fill-opacity="1" stroke-width="0.2" stroke-linejoin="round" d="M 136.635,166.187L 147.068,167.615L 147.689,163.194C 145.378,162.792 143.126,161.84 141.136,160.313C 139.093,158.744 137.565,156.752 136.582,154.555L 132.559,156.201L 136.635,166.187 Z "/>
			<path fill="#A8A8A8" fill-opacity="1" stroke-width="0.2" stroke-linejoin="round" d="M 153.516,128.908L 152.852,133.635C 155.163,134.037 157.414,134.988 159.405,136.516C 161.448,138.085 162.976,140.076 163.959,142.273L 168.484,140.422L 164.391,130.396L 153.516,128.908 Z "/>
			<path fill="#A8A8A8" fill-opacity="1" stroke-width="0.2" stroke-linejoin="round" d="M 168.451,190.979L 178.884,192.407L 179.506,187.986C 177.194,187.584 174.943,186.632 172.953,185.105C 170.909,183.536 169.382,181.544 168.398,179.347L 164.375,180.993L 168.451,190.979 Z "/>
			<path fill="#A8A8A8" fill-opacity="1" stroke-width="0.2" stroke-linejoin="round" d="M 159.893,170.012L 163.997,180.067L 168.021,178.421C 166.347,173.894 166.893,168.656 169.891,164.474L 166.316,161.73L 159.893,170.012 Z "/>
			<path fill="#A8A8A8" fill-opacity="1" stroke-width="0.2" stroke-linejoin="round" d="M 173.771,152.117L 166.929,160.94L 170.5,163.681C 173.807,159.652 178.812,157.775 183.678,158.289L 184.342,153.564L 173.771,152.117 Z "/>
			<path fill="#A8A8A8" fill-opacity="1" stroke-width="0.2" stroke-linejoin="round" d="M 185.332,153.7L 184.668,158.427C 186.98,158.829 189.231,159.78 191.221,161.308C 193.264,162.877 194.792,164.868 195.776,167.066L 200.3,165.214L 196.207,155.189L 185.332,153.7 Z "/>
			<path fill="#A8A8A8" fill-opacity="1" stroke-width="0.2" stroke-linejoin="round" d="M 167.613,191.378L 163.525,181.364L 159,183.215C 160.674,187.743 160.128,192.981 157.13,197.163L 160.889,200.049L 167.613,191.378 Z "/>
			<path fill="#A8A8A8" fill-opacity="1" stroke-width="0.2" stroke-linejoin="round" d="M 136.618,167.341L 129.776,176.163L 133.346,178.904C 136.654,174.876 141.659,172.998 146.525,173.513L 147.188,168.788L 136.618,167.341 Z "/>
			<path fill="#A8A8A8" fill-opacity="1" stroke-width="0.2" stroke-linejoin="round" d="M 148.179,168.924L 147.515,173.651C 149.827,174.053 152.078,175.004 154.068,176.532C 156.111,178.101 157.639,180.092 158.622,182.289L 163.147,180.438L 159.054,170.412L 148.179,168.924 Z "/>
			<path fill="#A8A8A8" fill-opacity="1" stroke-width="0.2" stroke-linejoin="round" d="M 135.486,166.923L 131.398,156.909L 126.874,158.76C 128.547,163.287 128.001,168.526 125.003,172.708L 128.763,175.593L 135.486,166.923 Z "/>
			<path fill="#A8A8A8" fill-opacity="1" stroke-width="0.2" stroke-linejoin="round" d="M 164.37,129.568L 170.912,121.133L 167.156,118.25C 163.849,122.279 158.844,124.156 153.978,123.642L 153.357,128.06L 164.37,129.568 Z "/>
			<path fill="#A8A8A8" fill-opacity="1" stroke-width="0.2" stroke-linejoin="round" d="M 168.594,192.141L 161.752,200.963L 165.323,203.704C 168.63,199.676 173.635,197.798 178.501,198.313L 179.164,193.588L 168.594,192.141 Z "/>
			<path fill="#A8A8A8" fill-opacity="1" stroke-width="0.2" stroke-linejoin="round" d="M 196.337,154.108L 202.878,145.674L 199.123,142.791C 195.815,146.819 190.81,148.697 185.945,148.183L 185.324,152.601L 196.337,154.108 Z "/>
			<path fill="#A8A8A8" fill-opacity="1" stroke-width="0.2" stroke-linejoin="round" d="M 173.9,151.037L 184.333,152.465L 184.954,148.044C 182.643,147.643 180.392,146.691 178.402,145.163C 176.358,143.595 174.83,141.603 173.847,139.406L 169.824,141.052L 173.9,151.037 Z "/>
			<path fill="#A8A8A8" fill-opacity="1" stroke-width="0.2" stroke-linejoin="round" d="M 165.342,130.071L 169.446,140.126L 173.469,138.48C 171.796,133.953 172.342,128.714 175.34,124.533L 171.765,121.788L 165.342,130.071 Z "/>
			<path fill="#A8A8A8" fill-opacity="1" stroke-width="0.2" stroke-linejoin="round" d="M 201.294,165.048L 205.732,163.292C 204.941,161.083 204.657,158.656 205.003,156.171C 205.358,153.619 206.336,151.308 207.761,149.368L 203.918,146.347L 197.219,154.856L 201.294,165.048 Z "/>
		</g>
		<g>
			<path fill="#A8A8A8" fill-opacity="1" stroke-width="0.2" stroke-linejoin="round" d="M 147.654,214.134L 143.566,204.12L 139.042,205.971C 140.715,210.498 140.169,215.737 137.171,219.918L 140.931,222.804L 147.654,214.134 Z "/>
			<path fill="#A8A8A8" fill-opacity="1" stroke-width="0.2" stroke-linejoin="round" d="M 133.776,232.029L 140.318,223.595L 136.563,220.712C 133.255,224.74 128.25,226.618 123.384,226.103L 122.764,230.522L 133.776,232.029 Z "/>
			<path fill="#A8A8A8" fill-opacity="1" stroke-width="0.2" stroke-linejoin="round" d="M 111.34,228.958L 121.773,230.386L 122.394,225.965C 120.082,225.564 117.831,224.612 115.841,223.084C 113.798,221.515 112.27,219.524 111.287,217.327L 107.264,218.973L 111.34,228.958 Z "/>
			<path fill="#A8A8A8" fill-opacity="1" stroke-width="0.2" stroke-linejoin="round" d="M 102.781,207.992L 106.886,218.047L 110.909,216.401C 109.235,211.873 109.781,206.635 112.779,202.453L 109.205,199.709L 102.781,207.992 Z "/>
			<path fill="#A8A8A8" fill-opacity="1" stroke-width="0.2" stroke-linejoin="round" d="M 116.659,190.097L 109.817,198.919L 113.388,201.66C 116.696,197.632 121.701,195.754 126.566,196.268L 127.23,191.544L 116.659,190.097 Z "/>
			<path fill="#A8A8A8" fill-opacity="1" stroke-width="0.2" stroke-linejoin="round" d="M 134.598,232.784L 138.702,242.839L 142.725,241.193C 141.052,236.666 141.598,231.427 144.596,227.246L 141.021,224.501L 134.598,232.784 Z "/>
			<path fill="#A8A8A8" fill-opacity="1" stroke-width="0.2" stroke-linejoin="round" d="M 148.476,214.889L 141.634,223.711L 145.205,226.452C 148.512,222.424 153.517,220.546 158.383,221.06L 159.046,216.336L 148.476,214.889 Z "/>
			<path fill="#A8A8A8" fill-opacity="1" stroke-width="0.2" stroke-linejoin="round" d="M 111.322,230.113L 104.481,238.935L 108.051,241.676C 111.359,237.648 116.364,235.77 121.229,236.284L 121.893,231.56L 111.322,230.113 Z "/>
			<path fill="#A8A8A8" fill-opacity="1" stroke-width="0.2" stroke-linejoin="round" d="M 122.884,231.695L 122.22,236.423C 124.531,236.824 126.783,237.776 128.773,239.304C 130.816,240.872 132.344,242.864 133.327,245.061L 137.852,243.21L 133.759,233.184L 122.884,231.695 Z "/>
			<path fill="#A8A8A8" fill-opacity="1" stroke-width="0.2" stroke-linejoin="round" d="M 110.191,229.695L 106.103,219.68L 101.579,221.532C 103.252,226.059 102.706,231.298 99.7084,235.479L 103.467,238.365L 110.191,229.695 Z "/>
			<path fill="#A8A8A8" fill-opacity="1" stroke-width="0.2" stroke-linejoin="round" d="M 90.7576,207.24L 90.0934,211.967C 92.4051,212.369 94.6562,213.321 96.6463,214.848C 98.6898,216.417 100.217,218.409 101.201,220.606L 105.725,218.755L 101.633,208.729L 90.7576,207.24 Z "/>
			<path fill="#A8A8A8" fill-opacity="1" stroke-width="0.2" stroke-linejoin="round" d="M 115.64,189.754L 111.552,179.739L 107.027,181.59C 108.701,186.118 108.155,191.356 105.157,195.538L 108.916,198.424L 115.64,189.754 Z "/>
			<path fill="#A8A8A8" fill-opacity="1" stroke-width="0.2" stroke-linejoin="round" d="M 101.762,207.649L 108.303,199.214L 104.548,196.331C 101.241,200.359 96.2354,202.237 91.3701,201.723L 90.7494,206.141L 101.762,207.649 Z "/>
			<path fill="#A8A8A8" fill-opacity="1" stroke-width="0.2" stroke-linejoin="round" d="M 116.639,189.269L 127.072,190.697L 127.693,186.276C 125.381,185.874 123.13,184.922 121.14,183.395C 119.096,181.826 117.569,179.834 116.585,177.637L 112.562,179.283L 116.639,189.269 Z "/>
			<path fill="#A8A8A8" fill-opacity="1" stroke-width="0.2" stroke-linejoin="round" d="M 148.605,213.809L 159.038,215.237L 159.659,210.816C 157.348,210.414 155.097,209.463 153.106,207.935C 151.063,206.366 149.535,204.375 148.552,202.178L 144.529,203.824L 148.605,213.809 Z "/>
			<path fill="#A8A8A8" fill-opacity="1" stroke-width="0.2" stroke-linejoin="round" d="M 143.299,253.293L 153.732,254.721L 154.353,250.3C 152.042,249.899 149.79,248.947 147.8,247.419C 145.757,245.851 144.229,243.859 143.246,241.662L 139.223,243.308L 143.299,253.293 Z "/>
			<path fill="#A8A8A8" fill-opacity="1" stroke-width="0.2" stroke-linejoin="round" d="M 143.282,254.448L 136.44,263.27L 140.01,266.011C 143.318,261.983 148.323,260.105 153.189,260.619L 153.852,255.895L 143.282,254.448 Z "/>
			<path fill="#A8A8A8" fill-opacity="1" stroke-width="0.2" stroke-linejoin="round" d="M 142.15,254.03L 138.062,244.016L 133.538,245.867C 135.211,250.394 134.665,255.633 131.667,259.814L 135.427,262.7L 142.15,254.03 Z "/>
		</g>
		<g>
			<path fill="#A8A8A8" fill-opacity="1" stroke-width="0.2" stroke-linejoin="round" d="M 229.702,322.217L 240.228,322.514L 240.37,318.052C 238.029,317.901 235.688,317.198 233.545,315.893C 231.345,314.553 229.612,312.738 228.398,310.659L 224.575,312.728L 229.702,322.217 Z "/>
			<path fill="#A8A8A8" fill-opacity="1" stroke-width="0.2" stroke-linejoin="round" d="M 229.809,323.367L 223.956,332.874L 227.801,335.215C 230.656,330.854 235.43,328.449 240.322,328.437L 240.474,323.668L 229.809,323.367 Z "/>
			<path fill="#A8A8A8" fill-opacity="1" stroke-width="0.2" stroke-linejoin="round" d="M 228.639,323.073L 223.498,313.557L 219.198,315.884C 221.349,320.205 221.37,325.472 218.84,329.952L 222.888,332.417L 228.639,323.073 Z "/>
		</g>
		<g>
			<g>
				<path fill="#A8A8A8" fill-opacity="1" stroke-width="0.2" stroke-linejoin="round" d="M 181.672,219.031L 174.701,210.76L 170.965,213.914C 173.951,217.707 175.044,222.859 173.478,227.76L 177.943,229.349L 181.672,219.031 Z "/>
				<path fill="#A8A8A8" fill-opacity="1" stroke-width="0.2" stroke-linejoin="round" d="M 182.686,219.496L 178.891,229.995L 183.132,231.505C 185.04,226.654 189.224,223.327 194.011,222.319L 193.189,217.619L 182.686,219.496 Z "/>
				<path fill="#A8A8A8" fill-opacity="1" stroke-width="0.2" stroke-linejoin="round" d="M 182.477,218.428L 192.843,216.576L 192.073,212.179C 189.75,212.508 187.316,212.295 184.952,211.454C 182.525,210.591 180.458,209.166 178.847,207.378L 175.525,210.182L 182.477,218.428 Z "/>
			</g>
			<g>
				<path fill="#A8A8A8" fill-opacity="1" stroke-width="0.2" stroke-linejoin="round" d="M 174.075,240.961L 177.791,230.802L 173.198,229.126C 171.389,233.602 167.46,237.109 162.429,238.184L 163.267,242.849L 174.075,240.961 Z "/>
				<path fill="#A8A8A8" fill-opacity="1" stroke-width="0.2" stroke-linejoin="round" d="M 174.175,242.072L 163.177,243.993L 163.973,248.423C 169.131,247.67 174.097,249.649 177.349,253.304L 181.02,250.256L 174.175,242.072 Z "/>
				<path fill="#A8A8A8" fill-opacity="1" stroke-width="0.2" stroke-linejoin="round" d="M 174.997,241.36L 181.753,249.437L 185.188,246.585C 183.748,244.733 182.724,242.514 182.28,240.044C 181.824,237.509 182.034,235.008 182.785,232.721L 178.702,231.231L 174.997,241.36 Z "/>
			</g>
			<path fill="#A8A8A8" fill-opacity="1" stroke-width="0.2" stroke-linejoin="round" d="M 218.332,294.711L 222.072,284.561L 217.483,282.874C 215.663,287.345 211.726,290.843 206.692,291.907L 207.519,296.573L 218.332,294.711 Z "/>
			<path fill="#A8A8A8" fill-opacity="1" stroke-width="0.2" stroke-linejoin="round" d="M 196.015,298.555L 206.534,296.743L 205.707,292.082C 200.548,292.823 195.587,290.832 192.343,287.17L 188.904,290.012L 196.015,298.555 Z "/>
			<path fill="#A8A8A8" fill-opacity="1" stroke-width="0.2" stroke-linejoin="round" d="M 181.527,281.15L 188.264,289.243L 191.705,286.4C 190.27,284.543 189.25,282.322 188.812,279.852C 188.363,277.315 188.579,274.815 189.335,272.529L 185.256,271.03L 181.527,281.15 Z "/>
			<path fill="#A8A8A8" fill-opacity="1" stroke-width="0.2" stroke-linejoin="round" d="M 189.356,259.901L 185.601,270.092L 189.681,271.591C 191.501,267.12 195.438,263.622 200.472,262.559L 199.685,258.121L 189.356,259.901 Z "/>
			<path fill="#A8A8A8" fill-opacity="1" stroke-width="0.2" stroke-linejoin="round" d="M 196.112,299.666L 192.357,309.857L 196.437,311.357C 198.256,306.886 202.194,303.388 207.228,302.324L 206.441,297.887L 196.112,299.666 Z "/>
			<path fill="#A8A8A8" fill-opacity="1" stroke-width="0.2" stroke-linejoin="round" d="M 218.429,295.822L 207.427,297.717L 208.213,302.15C 213.372,301.408 218.333,303.399 221.577,307.061L 225.255,304.022L 218.429,295.822 Z "/>
			<path fill="#A8A8A8" fill-opacity="1" stroke-width="0.2" stroke-linejoin="round" d="M 180.735,281.991L 169.733,283.886L 170.519,288.318C 175.678,287.577 180.639,289.568 183.883,293.23L 187.561,290.191L 180.735,281.991 Z "/>
			<path fill="#A8A8A8" fill-opacity="1" stroke-width="0.2" stroke-linejoin="round" d="M 188.201,290.959L 184.521,294C 185.956,295.857 186.975,298.078 187.413,300.548C 187.863,303.085 187.647,305.585 186.89,307.871L 191.479,309.557L 195.223,299.396L 188.201,290.959 Z "/>
			<path fill="#A8A8A8" fill-opacity="1" stroke-width="0.2" stroke-linejoin="round" d="M 180.182,280.919L 183.922,270.769L 179.333,269.083C 177.513,273.554 173.576,277.052 168.542,278.115L 169.369,282.782L 180.182,280.919 Z "/>
			<path fill="#A8A8A8" fill-opacity="1" stroke-width="0.2" stroke-linejoin="round" d="M 180.989,251.233L 177.309,254.274C 178.744,256.131 179.764,258.352 180.202,260.822C 180.652,263.359 180.435,265.859 179.679,268.145L 184.267,269.831L 188.011,259.67L 180.989,251.233 Z "/>
			<path fill="#A8A8A8" fill-opacity="1" stroke-width="0.2" stroke-linejoin="round" d="M 219.317,295.361L 226.345,303.584L 230.059,300.404C 227.047,296.632 225.92,291.487 227.452,286.576L 222.976,285.017L 219.317,295.361 Z "/>
			<path fill="#A8A8A8" fill-opacity="1" stroke-width="0.2" stroke-linejoin="round" d="M 188.835,258.96L 199.354,257.148L 198.528,252.486C 193.369,253.228 188.408,251.237 185.163,247.575L 181.724,250.417L 188.835,258.96 Z "/>
		</g>
		<g>
			<path fill="#A8A8A8" fill-opacity="1" stroke-width="0.2" stroke-linejoin="round" d="M 310.708,359.517L 308.83,348.864L 304.016,349.717C 304.695,354.496 303.054,359.501 299.24,362.954L 302.304,366.569L 310.708,359.517 Z "/>
			<path fill="#A8A8A8" fill-opacity="1" stroke-width="0.2" stroke-linejoin="round" d="M 293.361,374.073L 301.538,367.212L 298.477,363.6C 294.392,366.838 289.103,367.616 284.456,366.084L 282.916,370.272L 293.361,374.073 Z "/>
			<path fill="#A8A8A8" fill-opacity="1" stroke-width="0.2" stroke-linejoin="round" d="M 272.081,366.328L 281.976,369.93L 283.518,365.74C 281.343,364.859 279.344,363.453 277.722,361.539C 276.056,359.573 274.984,357.304 274.488,354.949L 270.208,355.707L 272.081,366.328 Z "/>
			<path fill="#A8A8A8" fill-opacity="1" stroke-width="0.2" stroke-linejoin="round" d="M 268.148,344.027L 270.034,354.722L 274.314,353.964C 273.635,349.185 275.277,344.18 279.091,340.727L 276.177,337.289L 268.148,344.027 Z "/>
			<path fill="#A8A8A8" fill-opacity="1" stroke-width="0.2" stroke-linejoin="round" d="M 296.461,333.461L 294.812,337.941C 296.987,338.822 298.986,340.228 300.608,342.142C 302.274,344.107 303.346,346.377 303.843,348.732L 308.656,347.879L 306.776,337.215L 296.461,333.461 Z "/>
			<path fill="#A8A8A8" fill-opacity="1" stroke-width="0.2" stroke-linejoin="round" d="M 294.004,374.985L 295.89,385.68L 300.17,384.922C 299.492,380.143 301.133,375.138 304.947,371.685L 302.033,368.247L 294.004,374.985 Z "/>
			<path fill="#A8A8A8" fill-opacity="1" stroke-width="0.2" stroke-linejoin="round" d="M 311.352,360.428L 302.799,367.604L 305.71,371.038C 309.794,367.8 315.083,367.023 319.73,368.554L 321.377,364.077L 311.352,360.428 Z "/>
			<path fill="#A8A8A8" fill-opacity="1" stroke-width="0.2" stroke-linejoin="round" d="M 271.82,367.453L 263.267,374.63L 266.178,378.064C 270.262,374.826 275.551,374.048 280.198,375.58L 281.845,371.102L 271.82,367.453 Z "/>
			<path fill="#A8A8A8" fill-opacity="1" stroke-width="0.2" stroke-linejoin="round" d="M 282.785,371.444L 281.137,375.924C 283.311,376.805 285.31,378.211 286.932,380.125C 288.598,382.091 289.67,384.36 290.167,386.715L 294.98,385.863L 293.1,375.198L 282.785,371.444 Z "/>
			<path fill="#A8A8A8" fill-opacity="1" stroke-width="0.2" stroke-linejoin="round" d="M 270.802,366.806L 268.924,356.153L 264.11,357.006C 264.789,361.785 263.148,366.79 259.333,370.243L 262.397,373.858L 270.802,366.806 Z "/>
			<path fill="#A8A8A8" fill-opacity="1" stroke-width="0.2" stroke-linejoin="round" d="M 256.555,340.75L 254.906,345.23C 257.081,346.111 259.08,347.517 260.702,349.431C 262.368,351.397 263.44,353.666 263.936,356.021L 268.75,355.169L 266.869,344.504L 256.555,340.75 Z "/>
			<path fill="#A8A8A8" fill-opacity="1" stroke-width="0.2" stroke-linejoin="round" d="M 267.224,343.476L 275.401,336.614L 272.34,333.003C 268.256,336.241 262.966,337.018 258.32,335.487L 256.779,339.674L 267.224,343.476 Z "/>
			<path fill="#A8A8A8" fill-opacity="1" stroke-width="0.2" stroke-linejoin="round" d="M 306.931,336.401L 315.107,329.54L 312.046,325.928C 307.962,329.166 302.673,329.943 298.026,328.412L 296.485,332.599L 306.931,336.401 Z "/>
			<path fill="#A8A8A8" fill-opacity="1" stroke-width="0.2" stroke-linejoin="round" d="M 311.706,359.4L 321.602,363.001L 323.143,358.811C 320.969,357.93 318.97,356.524 317.348,354.61C 315.682,352.645 314.61,350.375 314.113,348.02L 309.833,348.778L 311.706,359.4 Z "/>
			<path fill="#A8A8A8" fill-opacity="1" stroke-width="0.2" stroke-linejoin="round" d="M 307.773,337.098L 309.66,347.793L 313.94,347.035C 313.261,342.256 314.902,337.252 318.716,333.798L 315.803,330.36L 307.773,337.098 Z "/>
			<path fill="#A8A8A8" fill-opacity="1" stroke-width="0.2" stroke-linejoin="round" d="M 337.642,389.807L 347.538,393.408L 349.079,389.218C 346.905,388.337 344.906,386.931 343.284,385.017C 341.618,383.052 340.546,380.783 340.049,378.427L 335.769,379.185L 337.642,389.807 Z "/>
			<path fill="#A8A8A8" fill-opacity="1" stroke-width="0.2" stroke-linejoin="round" d="M 333.71,367.505L 335.596,378.201L 339.876,377.442C 339.197,372.663 340.838,367.659 344.652,364.205L 341.739,360.768L 333.71,367.505 Z "/>
			<path fill="#A8A8A8" fill-opacity="1" stroke-width="0.2" stroke-linejoin="round" d="M 337.381,390.932L 328.829,398.108L 331.74,401.542C 335.824,398.304 341.113,397.527 345.76,399.058L 347.407,394.581L 337.381,390.932 Z "/>
			<path fill="#A8A8A8" fill-opacity="1" stroke-width="0.2" stroke-linejoin="round" d="M 336.364,390.284L 334.485,379.632L 329.672,380.485C 330.35,385.264 328.709,390.268 324.895,393.722L 327.959,397.337L 336.364,390.284 Z "/>
			<path fill="#A8A8A8" fill-opacity="1" stroke-width="0.2" stroke-linejoin="round" d="M 322.117,364.228L 320.468,368.708C 322.642,369.59 324.642,370.996 326.264,372.91C 327.929,374.875 329.001,377.144 329.498,379.5L 334.312,378.647L 332.431,367.982L 322.117,364.228 Z "/>
			<path fill="#A8A8A8" fill-opacity="1" stroke-width="0.2" stroke-linejoin="round" d="M 332.786,366.954L 340.963,360.093L 337.902,356.481C 333.817,359.719 328.528,360.496 323.882,358.965L 322.341,363.153L 332.786,366.954 Z "/>
		</g>
		<g>
			<path fill="#A8A8A8" fill-opacity="1" stroke-width="0.2" stroke-linejoin="round" d="M 379.716,350.313L 375.628,340.299L 371.103,342.15C 372.777,346.678 372.231,351.916 369.233,356.098L 372.992,358.984L 379.716,350.313 Z "/>
			<path fill="#A8A8A8" fill-opacity="1" stroke-width="0.2" stroke-linejoin="round" d="M 365.838,368.209L 372.38,359.774L 368.624,356.891C 365.317,360.919 360.311,362.797 355.446,362.283L 354.825,366.701L 365.838,368.209 Z "/>
			<path fill="#A8A8A8" fill-opacity="1" stroke-width="0.2" stroke-linejoin="round" d="M 348.721,326.276L 341.879,335.098L 345.45,337.839C 348.757,333.811 353.763,331.933 358.628,332.448L 359.292,327.723L 348.721,326.276 Z "/>
			<path fill="#A8A8A8" fill-opacity="1" stroke-width="0.2" stroke-linejoin="round" d="M 360.282,327.859L 359.618,332.586C 361.93,332.988 364.181,333.939 366.171,335.467C 368.215,337.036 369.742,339.027 370.726,341.224L 375.25,339.373L 371.158,329.347L 360.282,327.859 Z "/>
			<path fill="#A8A8A8" fill-opacity="1" stroke-width="0.2" stroke-linejoin="round" d="M 366.659,368.963L 370.764,379.018L 374.787,377.372C 373.114,372.845 373.659,367.606 376.657,363.425L 373.083,360.681L 366.659,368.963 Z "/>
			<path fill="#A8A8A8" fill-opacity="1" stroke-width="0.2" stroke-linejoin="round" d="M 380.538,351.068L 373.696,359.89L 377.266,362.632C 380.574,358.603 385.579,356.726 390.444,357.24L 391.108,352.515L 380.538,351.068 Z "/>
			<path fill="#A8A8A8" fill-opacity="1" stroke-width="0.2" stroke-linejoin="round" d="M 354.946,367.875L 354.282,372.602C 356.593,373.004 358.844,373.955 360.834,375.483C 362.878,377.052 364.405,379.043 365.389,381.24L 369.913,379.389L 365.821,369.363L 354.946,367.875 Z "/>
			<path fill="#A8A8A8" fill-opacity="1" stroke-width="0.2" stroke-linejoin="round" d="M 347.702,325.933L 343.614,315.918L 339.089,317.77C 340.763,322.297 340.217,327.535 337.219,331.717L 340.978,334.603L 347.702,325.933 Z "/>
			<path fill="#A8A8A8" fill-opacity="1" stroke-width="0.2" stroke-linejoin="round" d="M 371.137,328.519L 377.678,320.084L 373.923,317.201C 370.615,321.229 365.61,323.107 360.745,322.593L 360.124,327.011L 371.137,328.519 Z "/>
			<path fill="#A8A8A8" fill-opacity="1" stroke-width="0.2" stroke-linejoin="round" d="M 348.7,325.448L 359.133,326.876L 359.754,322.455C 357.443,322.053 355.192,321.101 353.202,319.574C 351.158,318.005 349.631,316.013 348.647,313.816L 344.624,315.462L 348.7,325.448 Z "/>
			<path fill="#A8A8A8" fill-opacity="1" stroke-width="0.2" stroke-linejoin="round" d="M 380.667,349.988L 391.1,351.416L 391.721,346.995C 389.409,346.594 387.158,345.642 385.168,344.114C 383.125,342.545 381.597,340.554 380.614,338.357L 376.591,340.003L 380.667,349.988 Z "/>
			<path fill="#A8A8A8" fill-opacity="1" stroke-width="0.2" stroke-linejoin="round" d="M 372.108,329.022L 376.213,339.077L 380.236,337.431C 378.562,332.904 379.108,327.665 382.106,323.483L 378.532,320.739L 372.108,329.022 Z "/>
			<path fill="#A8A8A8" fill-opacity="1" stroke-width="0.2" stroke-linejoin="round" d="M 386.554,308.926L 396.987,310.354L 397.609,305.934C 395.297,305.532 393.046,304.58 391.056,303.052C 389.012,301.484 387.485,299.492 386.501,297.295L 382.478,298.941L 386.554,308.926 Z "/>
			<path fill="#A8A8A8" fill-opacity="1" stroke-width="0.2" stroke-linejoin="round" d="M 377.996,287.96L 382.1,298.015L 386.123,296.369C 384.45,291.842 384.996,286.603 387.994,282.422L 384.419,279.677L 377.996,287.96 Z "/>
			<path fill="#A8A8A8" fill-opacity="1" stroke-width="0.2" stroke-linejoin="round" d="M 386.537,310.081L 379.695,318.903L 383.266,321.644C 386.573,317.616 391.579,315.738 396.444,316.253L 397.108,311.528L 386.537,310.081 Z "/>
			<path fill="#A8A8A8" fill-opacity="1" stroke-width="0.2" stroke-linejoin="round" d="M 385.406,309.663L 381.318,299.649L 376.793,301.5C 378.467,306.027 377.921,311.266 374.923,315.447L 378.682,318.333L 385.406,309.663 Z "/>
			<path fill="#A8A8A8" fill-opacity="1" stroke-width="0.2" stroke-linejoin="round" d="M 365.972,287.208L 365.308,291.936C 367.619,292.337 369.871,293.289 371.861,294.817C 373.904,296.385 375.432,298.377 376.415,300.574L 380.94,298.723L 376.847,288.697L 365.972,287.208 Z "/>
			<path fill="#A8A8A8" fill-opacity="1" stroke-width="0.2" stroke-linejoin="round" d="M 376.977,287.617L 383.518,279.182L 379.763,276.299C 376.455,280.328 371.45,282.205 366.585,281.691L 365.964,286.109L 376.977,287.617 Z "/>
		</g>
	</g>
</svg>
