<?xml version="1.0" encoding="utf-8"?>
<!DOCTYPE svg PUBLIC "-//W3C//DTD SVG 1.1//EN" "http://www.w3.org/Graphics/SVG/1.1/DTD/svg11.dtd">
<svg xmlns="http://www.w3.org/2000/svg" xmlns:xlink="http://www.w3.org/1999/xlink" version="1.1" baseProfile="full" width="68.5" height="121" viewBox="0 0 68.50 121.00" enable-background="new 0 0 68.50 121.00" xml:space="preserve" id="map">
	<g>
		<g>
			<path fill="#E5E5E5" fill-opacity="1" stroke-linejoin="round" stroke="#C0C0C0" stroke-opacity="1" d="M 67.9999,18.5001L 43.0834,18.5001L 43.0834,0.5L 35.9999,0.5L 11,0.500061C 5.47708,0.500061 1,4.97717 1,10.5001L 0.999878,64.5001L 1,110.5L 0.999878,120.5L 11,120.5L 35.9999,120.5L 57.9998,120.5L 67.9998,120.5L 67.9998,110.5L 68,64.5001L 67.9999,18.5001 Z "/>
			<rect x="3.05176e-005" y="69.5002" fill="#545454" fill-opacity="1" stroke-width="0.2" stroke-linejoin="round" width="2" height="10"/>
		</g>
		<g>
			<path fill="#A8A8A8" fill-opacity="1" stroke-width="0.2" stroke-linejoin="round" d="M 40.8361,89.9135L 41.0715,79.0992L 36.1839,78.9966C 35.9173,83.8162 33.3315,88.4046 28.917,91.0475L 31.2169,95.1911L 40.8361,89.9135 Z "/>
			<path fill="#A8A8A8" fill-opacity="1" stroke-width="0.2" stroke-linejoin="round" d="M 20.9823,100.807L 30.3402,95.6722L 28.0426,91.5329C 23.4051,93.9119 18.066,93.6424 13.8073,91.2343L 11.4793,95.0405L 20.9823,100.807 Z "/>
			<path fill="#A8A8A8" fill-opacity="1" stroke-width="0.2" stroke-linejoin="round" d="M 22.9695,31.8542L 22.733,42.7122L 27.0789,42.8033C 27.3454,37.9838 29.9312,33.3954 34.3457,30.7524L 32.1587,26.8123L 22.9695,31.8542 Z "/>
			<path fill="#A8A8A8" fill-opacity="1" stroke-width="0.2" stroke-linejoin="round" d="M 21.9685,55.5257L 12.1807,60.896L 14.3654,64.8318C 19.0028,62.4528 24.3419,62.7222 28.6006,65.1304L 31.09,61.0603L 21.9685,55.5257 Z "/>
			<path fill="#A8A8A8" fill-opacity="1" stroke-width="0.2" stroke-linejoin="round" d="M 31.9449,61.579L 29.4542,65.6513C 31.415,66.9399 33.1014,68.7089 34.319,70.9025C 35.5693,73.1549 36.1781,75.5899 36.2057,77.9969L 41.0933,78.0995L 41.3291,67.273L 31.9449,61.579 Z "/>
			<path fill="#A8A8A8" fill-opacity="1" stroke-width="0.2" stroke-linejoin="round" d="M 21.4352,101.826L 21.1988,112.684L 25.5446,112.775C 25.8112,107.956 28.397,103.367 32.8115,100.724L 30.6245,96.784L 21.4352,101.826 Z "/>
			<path fill="#A8A8A8" fill-opacity="1" stroke-width="0.2" stroke-linejoin="round" d="M 41.289,90.9327L 31.5012,96.303L 33.6859,100.239C 38.3234,97.8598 43.6624,98.1292 47.9212,100.537L 50.4105,96.4673L 41.289,90.9327 Z "/>
			<path fill="#A8A8A8" fill-opacity="1" stroke-width="0.2" stroke-linejoin="round" d="M 11.1225,96.1649L 8.63174,100.237C 10.5925,101.526 12.2789,103.295 13.4966,105.488C 14.7468,107.741 15.3556,110.176 15.3833,112.583L 20.2708,112.685L 20.5066,101.859L 11.1225,96.1649 Z "/>
			<path fill="#A8A8A8" fill-opacity="1" stroke-width="0.2" stroke-linejoin="round" d="M 12.2383,26.379L 9.74759,30.4513C 11.7084,31.7399 13.3948,33.5088 14.6124,35.7025C 15.8627,37.9549 16.4715,40.3898 16.4991,42.7969L 21.3867,42.8994L 21.6225,32.073L 12.2383,26.379 Z "/>
			<path fill="#A8A8A8" fill-opacity="1" stroke-width="0.2" stroke-linejoin="round" d="M 21.17,54.8051L 21.4055,43.9909L 16.5179,43.8884C 16.2513,48.7079 13.6655,53.2963 9.25101,55.9393L 11.551,60.0829L 21.17,54.8051 Z "/>
			<path fill="#A8A8A8" fill-opacity="1" stroke-width="0.2" stroke-linejoin="round" d="M 22.1711,31.1336L 31.529,25.9992L 29.2314,21.8599C 24.5939,24.239 19.2547,23.9694 14.996,21.5613L 12.668,25.3676L 22.1711,31.1336 Z "/>
			<path fill="#A8A8A8" fill-opacity="1" stroke-width="0.2" stroke-linejoin="round" d="M 41.6399,66.5048L 50.9978,61.3703L 48.7002,57.231C 44.0627,59.6101 38.7235,59.3405 34.4648,56.9324L 32.1369,60.7387L 41.6399,66.5048 Z "/>
			<path fill="#A8A8A8" fill-opacity="1" stroke-width="0.2" stroke-linejoin="round" d="M 22.2792,54.7574L 31.2819,60.2199L 33.6113,56.4115C 31.6505,55.1229 29.9641,53.3539 28.7465,51.1603C 27.4962,48.9079 26.8874,46.473 26.8598,44.0659L 22.514,43.9747L 22.2792,54.7574 Z "/>
			<path fill="#A8A8A8" fill-opacity="1" stroke-width="0.2" stroke-linejoin="round" d="M 41.8376,89.9934L 50.8403,95.4559L 53.1697,91.6474C 51.2089,90.3588 49.5225,88.5899 48.3049,86.3962C 47.0546,84.1439 46.4458,81.7089 46.4182,79.3019L 42.0724,79.2107L 41.8376,89.9934 Z "/>
			<path fill="#A8A8A8" fill-opacity="1" stroke-width="0.2" stroke-linejoin="round" d="M 42.3307,67.353L 42.0942,78.2109L 46.4401,78.3021C 46.7067,73.4826 49.2924,68.8942 53.707,66.2512L 51.52,62.3111L 42.3307,67.353 Z "/>
		</g>
	</g>
</svg>
