<?xml version="1.0" encoding="utf-8"?>
<!DOCTYPE svg PUBLIC "-//W3C//DTD SVG 1.1//EN" "http://www.w3.org/Graphics/SVG/1.1/DTD/svg11.dtd">
<svg xmlns="http://www.w3.org/2000/svg" xmlns:xlink="http://www.w3.org/1999/xlink" version="1.1" baseProfile="full" width="139" height="166" viewBox="0 0 139.00 166.00" enable-background="new 0 0 139.00 166.00" xml:space="preserve" id="map">
	<g>
		<g>
			<path fill="#FFFFFF" fill-opacity="1" stroke-linejoin="round" stroke="#CBCBCB" stroke-opacity="1" d="M 0.5,0.500076L 129.5,0.500076L 129.5,69.5001L 126.5,69.5003L 126.5,85.5003L 138.5,85.5001L 138.5,165.5L 6.49994,165.5L 6.49994,85.5001L 6.5,69.5003L 0.5,69.5001L 0.5,0.500076 Z "/>
			<path fill="#CBCBCB" fill-opacity="1" stroke-linejoin="round" d="M 3.16666,7.62939e-005L 4.5,7.62939e-005L 4.5,1.00008L 3.16666,1.00008L 3.16666,7.62939e-005 Z M 5.83334,7.62939e-005L 7.16666,7.62939e-005L 7.16666,1.00008L 5.83334,1.00008L 5.83334,7.62939e-005 Z M 8.5,7.62939e-005L 9.83334,7.62939e-005L 9.83334,1.00008L 8.5,1.00008L 8.5,7.62939e-005 Z M 11.1667,7.62939e-005L 12.5,7.62939e-005L 12.5,1.00008L 11.1667,1.00008L 11.1667,7.62939e-005 Z M 13.8333,7.62939e-005L 15.1667,7.62939e-005L 15.1667,1.00008L 13.8333,1.00008L 13.8333,7.62939e-005 Z M 16.5,7.62939e-005L 17.8333,7.62939e-005L 17.8333,1.00008L 16.5,1.00008L 16.5,7.62939e-005 Z M 19.1667,7.62939e-005L 20.5,7.62939e-005L 20.5,1.00008L 19.1667,1.00008L 19.1667,7.62939e-005 Z M 21.8333,7.62939e-005L 23.1667,7.62939e-005L 23.1667,1.00008L 21.8333,1.00008L 21.8333,7.62939e-005 Z M 24.5,7.62939e-005L 25.8333,7.62939e-005L 25.8333,1.00008L 24.5,1.00008L 24.5,7.62939e-005 Z M 27.1667,7.62939e-005L 28.5,7.62939e-005L 28.5,1.00008L 27.1667,1.00008L 27.1667,7.62939e-005 Z M 29.8333,7.62939e-005L 31.1667,7.62939e-005L 31.1667,1.00008L 29.8333,1.00008L 29.8333,7.62939e-005 Z M 32.5,7.62939e-005L 33.8333,7.62939e-005L 33.8333,1.00008L 32.5,1.00008L 32.5,7.62939e-005 Z M 35.1667,7.62939e-005L 36.5,7.62939e-005L 36.5,1.00008L 35.1667,1.00008L 35.1667,7.62939e-005 Z M 37.8333,7.62939e-005L 39.1667,7.62939e-005L 39.1667,1.00008L 37.8333,1.00008L 37.8333,7.62939e-005 Z M 40.5,7.62939e-005L 41.8333,7.62939e-005L 41.8333,1.00008L 40.5,1.00008L 40.5,7.62939e-005 Z M 43.1667,7.62939e-005L 44.5,7.62939e-005L 44.5,1.00008L 43.1667,1.00008L 43.1667,7.62939e-005 Z M 45.8333,7.62939e-005L 47.1667,7.62939e-005L 47.1667,1.00008L 45.8333,1.00008L 45.8333,7.62939e-005 Z M 48.5,7.62939e-005L 49.8333,7.62939e-005L 49.8333,1.00008L 48.5,1.00008L 48.5,7.62939e-005 Z M 51.1667,7.62939e-005L 52.5,7.62939e-005L 52.5,1.00008L 51.1667,1.00008L 51.1667,7.62939e-005 Z M 53.8333,7.62939e-005L 55.1667,7.62939e-005L 55.1667,1.00008L 53.8333,1.00008L 53.8333,7.62939e-005 Z M 56.5,7.62939e-005L 57.8333,7.62939e-005L 57.8333,1.00008L 56.5,1.00008L 56.5,7.62939e-005 Z M 59.1667,7.62939e-005L 60.5,7.62939e-005L 60.5,1.00008L 59.1667,1.00008L 59.1667,7.62939e-005 Z M 61.8333,7.62939e-005L 63.1667,7.62939e-005L 63.1667,1.00008L 61.8333,1.00008L 61.8333,7.62939e-005 Z M 64.5,7.62939e-005L 65.8333,7.62939e-005L 65.8333,1.00008L 64.5,1.00008L 64.5,7.62939e-005 Z M 67.1667,7.62939e-005L 68.5,7.62939e-005L 68.5,1.00008L 67.1667,1.00008L 67.1667,7.62939e-005 Z M 69.8333,7.62939e-005L 71.1667,7.62939e-005L 71.1667,1.00008L 69.8333,1.00008L 69.8333,7.62939e-005 Z M 72.5,7.62939e-005L 73.8333,7.62939e-005L 73.8333,1.00008L 72.5,1.00008L 72.5,7.62939e-005 Z M 75.1667,7.62939e-005L 76.5,7.62939e-005L 76.5,1.00008L 75.1667,1.00008L 75.1667,7.62939e-005 Z M 77.8333,7.62939e-005L 79.1667,7.62939e-005L 79.1667,1.00008L 77.8333,1.00008L 77.8333,7.62939e-005 Z M 80.5,7.62939e-005L 81.8333,7.62939e-005L 81.8333,1.00008L 80.5,1.00008L 80.5,7.62939e-005 Z M 83.1667,7.62939e-005L 84.5,7.62939e-005L 84.5,1.00008L 83.1667,1.00008L 83.1667,7.62939e-005 Z M 85.8333,7.62939e-005L 87.1667,7.62939e-005L 87.1667,1.00008L 85.8333,1.00008L 85.8333,7.62939e-005 Z M 88.5,7.62939e-005L 89.8333,7.62939e-005L 89.8333,1.00008L 88.5,1.00008L 88.5,7.62939e-005 Z M 91.1667,7.62939e-005L 92.5,7.62939e-005L 92.5,1.00008L 91.1667,1.00008L 91.1667,7.62939e-005 Z M 93.8333,7.62939e-005L 95.1667,7.62939e-005L 95.1667,1.00008L 93.8333,1.00008L 93.8333,7.62939e-005 Z M 96.5,7.62939e-005L 97.8333,7.62939e-005L 97.8333,1.00008L 96.5,1.00008L 96.5,7.62939e-005 Z M 99.1667,7.62939e-005L 100.5,7.62939e-005L 100.5,1.00008L 99.1667,1.00008L 99.1667,7.62939e-005 Z M 101.833,7.62939e-005L 103.167,7.62939e-005L 103.167,1.00008L 101.833,1.00008L 101.833,7.62939e-005 Z M 104.5,7.62939e-005L 105.833,7.62939e-005L 105.833,1.00008L 104.5,1.00008L 104.5,7.62939e-005 Z M 107.167,7.62939e-005L 108.5,7.62939e-005L 108.5,1.00008L 107.167,1.00008L 107.167,7.62939e-005 Z M 109.833,7.62939e-005L 111.167,7.62939e-005L 111.167,1.00008L 109.833,1.00008L 109.833,7.62939e-005 Z M 112.5,7.62939e-005L 113.833,7.62939e-005L 113.833,1.00008L 112.5,1.00008L 112.5,7.62939e-005 Z M 115.167,7.62939e-005L 116.5,7.62939e-005L 116.5,1.00008L 115.167,1.00008L 115.167,7.62939e-005 Z M 117.833,7.62939e-005L 119.167,7.62939e-005L 119.167,1.00008L 117.833,1.00008L 117.833,7.62939e-005 Z M 120.5,7.62939e-005L 121.833,7.62939e-005L 121.833,1.00008L 120.5,1.00008L 120.5,7.62939e-005 Z M 123.167,7.62939e-005L 124.5,7.62939e-005L 124.5,1.00008L 123.167,1.00008L 123.167,7.62939e-005 Z M 125.833,7.62939e-005L 127.167,7.62939e-005L 127.167,1.00008L 125.833,1.00008L 125.833,7.62939e-005 Z M 128.5,7.62939e-005L 129.5,7.62939e-005L 129.598,0.00843811L 129.692,0.0366974L 129.778,0.0832672L 129.854,0.1465L 129.917,0.221634L 129.963,0.308121L 129.992,0.402237L 130,0.500076L 130,0.833389L 129,0.833389L 129,0.500076L 129.5,1.00008L 128.5,1.00008L 128.5,7.62939e-005 Z M 130,2.16676L 130,3.50008L 129,3.50008L 129,2.16676L 130,2.16676 Z M 130,4.83339L 130,6.16676L 129,6.16676L 129,4.83339L 130,4.83339 Z M 130,7.50008L 130,8.83339L 129,8.83339L 129,7.50008L 130,7.50008 Z M 130,10.1668L 130,11.5001L 129,11.5001L 129,10.1668L 130,10.1668 Z M 130,12.8334L 130,14.1668L 129,14.1668L 129,12.8334L 130,12.8334 Z M 130,15.5001L 130,16.8334L 129,16.8334L 129,15.5001L 130,15.5001 Z M 130,18.1668L 130,19.5001L 129,19.5001L 129,18.1668L 130,18.1668 Z M 130,20.8334L 130,22.1668L 129,22.1668L 129,20.8334L 130,20.8334 Z M 130,23.5001L 130,24.8334L 129,24.8334L 129,23.5001L 130,23.5001 Z M 130,26.1668L 130,27.5001L 129,27.5001L 129,26.1668L 130,26.1668 Z M 130,28.8334L 130,30.1668L 129,30.1668L 129,28.8334L 130,28.8334 Z M 130,31.5001L 130,32.8334L 129,32.8334L 129,31.5001L 130,31.5001 Z M 130,34.1668L 130,35.5001L 129,35.5001L 129,34.1668L 130,34.1668 Z M 130,36.8334L 130,38.1668L 129,38.1668L 129,36.8334L 130,36.8334 Z M 130,39.5001L 130,40.8334L 129,40.8334L 129,39.5001L 130,39.5001 Z M 130,42.1668L 130,43.5001L 129,43.5001L 129,42.1668L 130,42.1668 Z M 130,44.8334L 130,46.1668L 129,46.1668L 129,44.8334L 130,44.8334 Z M 130,47.5001L 130,48.8334L 129,48.8334L 129,47.5001L 130,47.5001 Z M 130,50.1668L 130,51.5001L 129,51.5001L 129,50.1668L 130,50.1668 Z M 130,52.8334L 130,54.1668L 129,54.1668L 129,52.8334L 130,52.8334 Z M 130,55.5001L 130,56.8334L 129,56.8334L 129,55.5001L 130,55.5001 Z M 130,58.1668L 130,59.5001L 129,59.5001L 129,58.1668L 130,58.1668 Z M 130,60.8334L 130,62.1668L 129,62.1668L 129,60.8334L 130,60.8334 Z M 130,63.5001L 130,64.8334L 129,64.8334L 129,63.5001L 130,63.5001 Z M 130,66.1668L 130,67.5001L 129,67.5001L 129,66.1668L 130,66.1668 Z M 130,68.8334L 130,69.5001L 129.992,69.5979L 129.963,69.692L 129.917,69.7785L 129.854,69.8537L 129.778,69.9169L 129.692,69.9635L 129.598,69.9917L 129.5,70.0001L 128.833,70.0001L 128.833,69.0001L 129.5,69.0001L 129,69.5001L 129,68.8334L 130,68.8334 Z M 127.5,70.0002L 126.5,70.0003L 127,69.5003L 127,69.8336L 126,69.8336L 126,69.5003L 126.008,69.4024L 126.037,69.3084L 126.083,69.2218L 126.146,69.1467L 126.222,69.0835L 126.308,69.0369L 126.402,69.0087L 126.5,69.0003L 127.5,69.0002L 127.5,70.0002 Z M 127,71.1669L 127,72.5003L 126,72.5003L 126,71.1669L 127,71.1669 Z M 127,73.8336L 127,75.1669L 126,75.1669L 126,73.8336L 127,73.8336 Z M 127,76.5003L 127,77.8336L 126,77.8336L 126,76.5003L 127,76.5003 Z M 127,79.1669L 127,80.5003L 126,80.5003L 126,79.1669L 127,79.1669 Z M 127,81.8336L 127,83.1669L 126,83.1669L 126,81.8336L 127,81.8336 Z M 127,84.5003L 127,85.5003L 126.5,85.0003L 126.833,85.0003L 126.833,86.0003L 126.5,86.0003L 126.402,85.992L 126.308,85.9637L 126.222,85.9171L 126.146,85.8539L 126.083,85.7788L 126.037,85.6923L 126.008,85.5982L 126,85.5003L 126,84.5003L 127,84.5003 Z M 128.167,85.0003L 129.5,85.0003L 129.5,86.0003L 128.167,86.0003L 128.167,85.0003 Z M 130.833,85.0003L 132.167,85.0003L 132.167,86.0003L 130.833,86.0003L 130.833,85.0003 Z M 133.5,85.0002L 134.833,85.0002L 134.833,86.0002L 133.5,86.0002L 133.5,85.0002 Z M 136.167,85.0001L 137.5,85.0001L 137.5,86.0001L 136.167,86.0001L 136.167,85.0001 Z M 139,85.8335L 139,87.1668L 138,87.1668L 138,85.8335L 139,85.8335 Z M 139,88.5001L 139,89.8335L 138,89.8335L 138,88.5001L 139,88.5001 Z M 139,91.1668L 139,92.5001L 138,92.5001L 138,91.1668L 139,91.1668 Z M 139,93.8335L 139,95.1668L 138,95.1668L 138,93.8335L 139,93.8335 Z M 139,96.5002L 139,97.8335L 138,97.8335L 138,96.5002L 139,96.5002 Z M 139,99.1668L 139,100.5L 138,100.5L 138,99.1668L 139,99.1668 Z M 139,101.833L 139,103.167L 138,103.167L 138,101.833L 139,101.833 Z M 139,104.5L 139,105.833L 138,105.833L 138,104.5L 139,104.5 Z M 139,107.167L 139,108.5L 138,108.5L 138,107.167L 139,107.167 Z M 139,109.833L 139,111.167L 138,111.167L 138,109.833L 139,109.833 Z M 139,112.5L 139,113.833L 138,113.833L 138,112.5L 139,112.5 Z M 139,115.167L 139,116.5L 138,116.5L 138,115.167L 139,115.167 Z M 139,117.833L 139,119.167L 138,119.167L 138,117.833L 139,117.833 Z M 139,120.5L 139,121.833L 138,121.833L 138,120.5L 139,120.5 Z M 139,123.167L 139,124.5L 138,124.5L 138,123.167L 139,123.167 Z M 139,125.833L 139,127.167L 138,127.167L 138,125.833L 139,125.833 Z M 139,128.5L 139,129.833L 138,129.833L 138,128.5L 139,128.5 Z M 139,131.167L 139,132.5L 138,132.5L 138,131.167L 139,131.167 Z M 139,133.833L 139,135.167L 138,135.167L 138,133.833L 139,133.833 Z M 139,136.5L 139,137.833L 138,137.833L 138,136.5L 139,136.5 Z M 139,139.167L 139,140.5L 138,140.5L 138,139.167L 139,139.167 Z M 139,141.833L 139,143.167L 138,143.167L 138,141.833L 139,141.833 Z M 139,144.5L 139,145.833L 138,145.833L 138,144.5L 139,144.5 Z M 139,147.167L 139,148.5L 138,148.5L 138,147.167L 139,147.167 Z M 139,149.833L 139,151.167L 138,151.167L 138,149.833L 139,149.833 Z M 139,152.5L 139,153.833L 138,153.833L 138,152.5L 139,152.5 Z M 139,155.167L 139,156.5L 138,156.5L 138,155.167L 139,155.167 Z M 139,157.833L 139,159.167L 138,159.167L 138,157.833L 139,157.833 Z M 139,160.5L 139,161.833L 138,161.833L 138,160.5L 139,160.5 Z M 139,163.167L 139,164.5L 138,164.5L 138,163.167L 139,163.167 Z M 138.167,166L 136.833,166L 136.833,165L 138.167,165L 138.167,166 Z M 135.5,166L 134.167,166L 134.167,165L 135.5,165L 135.5,166 Z M 132.833,166L 131.5,166L 131.5,165L 132.833,165L 132.833,166 Z M 130.167,166L 128.833,166L 128.833,165L 130.167,165L 130.167,166 Z M 127.5,166L 126.167,166L 126.167,165L 127.5,165L 127.5,166 Z M 124.833,166L 123.5,166L 123.5,165L 124.833,165L 124.833,166 Z M 122.167,166L 120.833,166L 120.833,165L 122.167,165L 122.167,166 Z M 119.5,166L 118.167,166L 118.167,165L 119.5,165L 119.5,166 Z M 116.833,166L 115.5,166L 115.5,165L 116.833,165L 116.833,166 Z M 114.167,166L 112.833,166L 112.833,165L 114.167,165L 114.167,166 Z M 111.5,166L 110.167,166L 110.167,165L 111.5,165L 111.5,166 Z M 108.833,166L 107.5,166L 107.5,165L 108.833,165L 108.833,166 Z M 106.167,166L 104.833,166L 104.833,165L 106.167,165L 106.167,166 Z M 103.5,166L 102.167,166L 102.167,165L 103.5,165L 103.5,166 Z M 100.833,166L 99.5,166L 99.5,165L 100.833,165L 100.833,166 Z M 98.1666,166L 96.8333,166L 96.8333,165L 98.1666,165L 98.1666,166 Z M 95.5,166L 94.1666,166L 94.1666,165L 95.5,165L 95.5,166 Z M 92.8333,166L 91.5,166L 91.5,165L 92.8333,165L 92.8333,166 Z M 90.1666,166L 88.8333,166L 88.8333,165L 90.1666,165L 90.1666,166 Z M 87.5,166L 86.1666,166L 86.1666,165L 87.5,165L 87.5,166 Z M 84.8333,166L 83.5,166L 83.5,165L 84.8333,165L 84.8333,166 Z M 82.1666,166L 80.8333,166L 80.8333,165L 82.1666,165L 82.1666,166 Z M 79.5,166L 78.1666,166L 78.1666,165L 79.5,165L 79.5,166 Z M 76.8333,166L 75.5,166L 75.5,165L 76.8333,165L 76.8333,166 Z M 74.1666,166L 72.8333,166L 72.8333,165L 74.1666,165L 74.1666,166 Z M 71.5,166L 70.1666,166L 70.1666,165L 71.5,165L 71.5,166 Z M 68.8333,166L 67.5,166L 67.5,165L 68.8333,165L 68.8333,166 Z M 66.1666,166L 64.8333,166L 64.8333,165L 66.1666,165L 66.1666,166 Z M 63.5,166L 62.1666,166L 62.1666,165L 63.5,165L 63.5,166 Z M 60.8333,166L 59.5,166L 59.5,165L 60.8333,165L 60.8333,166 Z M 58.1666,166L 56.8333,166L 56.8333,165L 58.1666,165L 58.1666,166 Z M 55.5,166L 54.1666,166L 54.1666,165L 55.5,165L 55.5,166 Z M 52.8333,166L 51.5,166L 51.5,165L 52.8333,165L 52.8333,166 Z M 50.1666,166L 48.8333,166L 48.8333,165L 50.1666,165L 50.1666,166 Z M 47.5,166L 46.1666,166L 46.1666,165L 47.5,165L 47.5,166 Z M 44.8333,166L 43.5,166L 43.5,165L 44.8333,165L 44.8333,166 Z M 42.1666,166L 40.8333,166L 40.8333,165L 42.1666,165L 42.1666,166 Z M 39.5,166L 38.1666,166L 38.1666,165L 39.5,165L 39.5,166 Z M 36.8333,166L 35.5,166L 35.5,165L 36.8333,165L 36.8333,166 Z M 34.1666,166L 32.8333,166L 32.8333,165L 34.1666,165L 34.1666,166 Z M 31.5,166L 30.1666,166L 30.1666,165L 31.5,165L 31.5,166 Z M 28.8333,166L 27.5,166L 27.5,165L 28.8333,165L 28.8333,166 Z M 26.1666,166L 24.8333,166L 24.8333,165L 26.1666,165L 26.1666,166 Z M 23.5,166L 22.1666,166L 22.1666,165L 23.5,165L 23.5,166 Z M 20.8333,166L 19.5,166L 19.5,165L 20.8333,165L 20.8333,166 Z M 18.1666,166L 16.8333,166L 16.8333,165L 18.1666,165L 18.1666,166 Z M 15.5,166L 14.1666,166L 14.1666,165L 15.5,165L 15.5,166 Z M 12.8333,166L 11.5,166L 11.5,165L 12.8333,165L 12.8333,166 Z M 10.1666,166L 8.83328,166L 8.83328,165L 10.1666,165L 10.1666,166 Z M 7.49997,166L 6.49994,166L 6.40207,165.992L 6.30801,165.964L 6.22153,165.917L 6.14639,165.854L 6.0831,165.779L 6.03653,165.692L 6.0083,165.598L 5.99994,165.5L 5.99994,165.167L 6.99994,165.167L 6.99994,165.5L 6.49994,165L 7.49997,165L 7.49997,166 Z M 5.99994,163.834L 5.99994,162.5L 6.99994,162.5L 6.99994,163.834L 5.99994,163.834 Z M 5.99994,161.167L 5.99994,159.834L 6.99994,159.834L 6.99994,161.167L 5.99994,161.167 Z M 5.99994,158.5L 5.99994,157.167L 6.99994,157.167L 6.99994,158.5L 5.99994,158.5 Z M 5.99994,155.834L 5.99994,154.5L 6.99994,154.5L 6.99994,155.834L 5.99994,155.834 Z M 5.99994,153.167L 5.99994,151.834L 6.99994,151.834L 6.99994,153.167L 5.99994,153.167 Z M 5.99994,150.5L 5.99994,149.167L 6.99994,149.167L 6.99994,150.5L 5.99994,150.5 Z M 5.99994,147.834L 5.99994,146.5L 6.99994,146.5L 6.99994,147.834L 5.99994,147.834 Z M 5.99994,145.167L 5.99994,143.834L 6.99994,143.834L 6.99994,145.167L 5.99994,145.167 Z M 5.99994,142.5L 5.99994,141.167L 6.99994,141.167L 6.99994,142.5L 5.99994,142.5 Z M 5.99994,139.834L 5.99994,138.5L 6.99994,138.5L 6.99994,139.834L 5.99994,139.834 Z M 5.99994,137.167L 5.99994,135.834L 6.99994,135.834L 6.99994,137.167L 5.99994,137.167 Z M 5.99994,134.5L 5.99994,133.167L 6.99994,133.167L 6.99994,134.5L 5.99994,134.5 Z M 5.99994,131.834L 5.99994,130.5L 6.99994,130.5L 6.99994,131.834L 5.99994,131.834 Z M 5.99994,129.167L 5.99994,127.834L 6.99994,127.834L 6.99994,129.167L 5.99994,129.167 Z M 5.99994,126.5L 5.99994,125.167L 6.99994,125.167L 6.99994,126.5L 5.99994,126.5 Z M 5.99994,123.834L 5.99994,122.5L 6.99994,122.5L 6.99994,123.834L 5.99994,123.834 Z M 5.99994,121.167L 5.99994,119.834L 6.99994,119.834L 6.99994,121.167L 5.99994,121.167 Z M 5.99994,118.5L 5.99994,117.167L 6.99994,117.167L 6.99994,118.5L 5.99994,118.5 Z M 5.99994,115.834L 5.99994,114.5L 6.99994,114.5L 6.99994,115.834L 5.99994,115.834 Z M 5.99994,113.167L 5.99994,111.834L 6.99994,111.834L 6.99994,113.167L 5.99994,113.167 Z M 5.99994,110.5L 5.99994,109.167L 6.99994,109.167L 6.99994,110.5L 5.99994,110.5 Z M 5.99994,107.834L 5.99994,106.5L 6.99994,106.5L 6.99994,107.834L 5.99994,107.834 Z M 5.99994,105.167L 5.99994,103.834L 6.99994,103.834L 6.99994,105.167L 5.99994,105.167 Z M 5.99994,102.5L 5.99994,101.167L 6.99994,101.167L 6.99994,102.5L 5.99994,102.5 Z M 5.99994,99.8336L 5.99994,98.5002L 6.99994,98.5002L 6.99994,99.8336L 5.99994,99.8336 Z M 5.99994,97.1669L 5.99994,95.8336L 6.99994,95.8336L 6.99994,97.1669L 5.99994,97.1669 Z M 5.99994,94.5003L 5.99994,93.1669L 6.99994,93.1669L 6.99994,94.5003L 5.99994,94.5003 Z M 5.99994,91.8336L 5.99994,90.5003L 6.99994,90.5003L 6.99994,91.8336L 5.99994,91.8336 Z M 5.99994,89.1669L 5.99994,87.8336L 6.99994,87.8336L 6.99994,89.1669L 5.99994,89.1669 Z M 5.99994,86.5003L 5.99994,85.5001L 5.99994,85.1669L 6.99994,85.1669L 6.99994,85.5001L 6.99994,86.5003L 5.99994,86.5003 Z M 5.99994,83.8336L 5.99997,82.5003L 6.99997,82.5003L 6.99994,83.8336L 5.99994,83.8336 Z M 5.99997,81.1669L 5.99997,79.8336L 6.99997,79.8336L 6.99997,81.1669L 5.99997,81.1669 Z M 5.99997,78.5003L 5.99997,77.1669L 6.99997,77.1669L 6.99997,78.5003L 5.99997,78.5003 Z M 5.99997,75.8336L 5.99997,74.5003L 6.99997,74.5003L 6.99997,75.8336L 5.99997,75.8336 Z M 5.99997,73.1669L 6,71.8336L 7,71.8336L 6.99997,73.1669L 5.99997,73.1669 Z M 6,70.5003L 6,69.5003L 6.49997,70.0003L 6.1666,70.0003L 6.16663,69.0003L 6.50003,69.0003L 6.59787,69.0087L 6.69196,69.0369L 6.77844,69.0835L 6.85355,69.1467L 6.91684,69.2218L 6.96338,69.3084L 6.99161,69.4024L 7,69.5003L 7,70.5003L 6,70.5003 Z M 4.83325,70.0003L 3.49991,70.0001L 3.49997,69.0001L 4.83328,69.0003L 4.83325,70.0003 Z M 2.1666,70.0001L 0.833252,70.0001L 0.833282,69.0001L 2.16663,69.0001L 2.1666,70.0001 Z M 0,68.5L 0,67.1667L 1,67.1667L 1,68.5L 0,68.5 Z M 0,65.8334L 0,64.5L 1,64.5L 1,65.8334L 0,65.8334 Z M 0,63.1667L 0,61.8334L 1,61.8334L 1,63.1667L 0,63.1667 Z M 0,60.5L 0,59.1667L 1,59.1667L 1,60.5L 0,60.5 Z M 0,57.8334L 0,56.5L 1,56.5L 1,57.8334L 0,57.8334 Z M 0,55.1667L 0,53.8334L 1,53.8334L 1,55.1667L 0,55.1667 Z M 0,52.5L 0,51.1667L 1,51.1667L 1,52.5L 0,52.5 Z M 0,49.8334L 0,48.5L 1,48.5L 1,49.8334L 0,49.8334 Z M 0,47.1667L 0,45.8334L 1,45.8334L 1,47.1667L 0,47.1667 Z M 0,44.5L 0,43.1667L 1,43.1667L 1,44.5L 0,44.5 Z M 0,41.8334L 0,40.5L 1,40.5L 1,41.8334L 0,41.8334 Z M 0,39.1667L 0,37.8334L 1,37.8334L 1,39.1667L 0,39.1667 Z M 0,36.5L 0,35.1667L 1,35.1667L 1,36.5L 0,36.5 Z M 0,33.8334L 0,32.5L 1,32.5L 1,33.8334L 0,33.8334 Z M 0,31.1667L 0,29.8334L 1,29.8334L 1,31.1667L 0,31.1667 Z M 0,28.5L 0,27.1667L 1,27.1667L 1,28.5L 0,28.5 Z M 0,25.8334L 0,24.5L 1,24.5L 1,25.8334L 0,25.8334 Z M 0,23.1667L 0,21.8334L 1,21.8334L 1,23.1667L 0,23.1667 Z M 0,20.5L 0,19.1667L 1,19.1667L 1,20.5L 0,20.5 Z M 0,17.8334L 0,16.5L 1,16.5L 1,17.8334L 0,17.8334 Z M 0,15.1667L 0,13.8334L 1,13.8334L 1,15.1667L 0,15.1667 Z M 0,12.5L 0,11.1667L 1,11.1667L 1,12.5L 0,12.5 Z M 0,9.83339L 0,8.50002L 1,8.50002L 1,9.83339L 0,9.83339 Z M 0,7.1667L 0,5.83339L 1,5.83339L 1,7.1667L 0,7.1667 Z M 0,4.50002L 0,3.1667L 1,3.1667L 1,4.50002L 0,4.50002 Z M 0,1.83339L 0,0.500076L 0.00836182,0.402237L 0.0365906,0.308121L 0.0831604,0.221634L 0.146454,0.1465L 0.221588,0.0832672L 0.308075,0.0366974L 0.40213,0.00843811L 0.5,7.62939e-005L 1.83334,7.62939e-005L 1.83334,1.00008L 0.5,1.00008L 1,0.500076L 1,1.83339L 0,1.83339 Z "/>
			<rect x="0.5" y="0.500076" fill="#FFFFFF" fill-opacity="1" stroke-linejoin="round" stroke="#CBCBCB" stroke-opacity="1" width="30" height="47"/>
			<path fill="#CBCBCB" fill-opacity="1" stroke-linejoin="round" d="M 3.16666,7.62939e-005L 4.5,7.62939e-005L 4.5,1.00008L 3.16666,1.00008L 3.16666,7.62939e-005 Z M 5.83334,7.62939e-005L 7.16666,7.62939e-005L 7.16666,1.00008L 5.83334,1.00008L 5.83334,7.62939e-005 Z M 8.5,7.62939e-005L 9.83334,7.62939e-005L 9.83334,1.00008L 8.5,1.00008L 8.5,7.62939e-005 Z M 11.1667,7.62939e-005L 12.5,7.62939e-005L 12.5,1.00008L 11.1667,1.00008L 11.1667,7.62939e-005 Z M 13.8333,7.62939e-005L 15.1667,7.62939e-005L 15.1667,1.00008L 13.8333,1.00008L 13.8333,7.62939e-005 Z M 16.5,7.62939e-005L 17.8333,7.62939e-005L 17.8333,1.00008L 16.5,1.00008L 16.5,7.62939e-005 Z M 19.1667,7.62939e-005L 20.5,7.62939e-005L 20.5,1.00008L 19.1667,1.00008L 19.1667,7.62939e-005 Z M 21.8333,7.62939e-005L 23.1667,7.62939e-005L 23.1667,1.00008L 21.8333,1.00008L 21.8333,7.62939e-005 Z M 24.5,7.62939e-005L 25.8333,7.62939e-005L 25.8333,1.00008L 24.5,1.00008L 24.5,7.62939e-005 Z M 27.1667,7.62939e-005L 28.5,7.62939e-005L 28.5,1.00008L 27.1667,1.00008L 27.1667,7.62939e-005 Z M 29.8333,7.62939e-005L 30.5,7.62939e-005L 30.5979,0.00843811L 30.6919,0.0366974L 30.7784,0.0832672L 30.8535,0.1465L 30.9168,0.221634L 30.9634,0.308121L 30.9916,0.402237L 31,0.500076L 31,1.16676L 30,1.16676L 30,0.500076L 30.5,1.00008L 29.8333,1.00008L 29.8333,7.62939e-005 Z M 31,2.50008L 31,3.83339L 30,3.83339L 30,2.50008L 31,2.50008 Z M 31,5.16676L 31,6.50008L 30,6.50008L 30,5.16676L 31,5.16676 Z M 31,7.83339L 31,9.16676L 30,9.16676L 30,7.83339L 31,7.83339 Z M 31,10.5001L 31,11.8334L 30,11.8334L 30,10.5001L 31,10.5001 Z M 31,13.1668L 31,14.5001L 30,14.5001L 30,13.1668L 31,13.1668 Z M 31,15.8334L 31,17.1668L 30,17.1668L 30,15.8334L 31,15.8334 Z M 31,18.5001L 31,19.8334L 30,19.8334L 30,18.5001L 31,18.5001 Z M 31,21.1668L 31,22.5001L 30,22.5001L 30,21.1668L 31,21.1668 Z M 31,23.8334L 31,25.1668L 30,25.1668L 30,23.8334L 31,23.8334 Z M 31,26.5001L 31,27.8334L 30,27.8334L 30,26.5001L 31,26.5001 Z M 31,29.1668L 31,30.5001L 30,30.5001L 30,29.1668L 31,29.1668 Z M 31,31.8334L 31,33.1668L 30,33.1668L 30,31.8334L 31,31.8334 Z M 31,34.5001L 31,35.8334L 30,35.8334L 30,34.5001L 31,34.5001 Z M 31,37.1668L 31,38.5001L 30,38.5001L 30,37.1668L 31,37.1668 Z M 31,39.8334L 31,41.1668L 30,41.1668L 30,39.8334L 31,39.8334 Z M 31,42.5001L 31,43.8334L 30,43.8334L 30,42.5001L 31,42.5001 Z M 31,45.1668L 31,46.5001L 30,46.5001L 30,45.1668L 31,45.1668 Z M 30.1667,48.0001L 28.8333,48.0001L 28.8333,47.0001L 30.1667,47.0001L 30.1667,48.0001 Z M 27.5,48.0001L 26.1667,48.0001L 26.1667,47.0001L 27.5,47.0001L 27.5,48.0001 Z M 24.8333,48.0001L 23.5,48.0001L 23.5,47.0001L 24.8333,47.0001L 24.8333,48.0001 Z M 22.1667,48.0001L 20.8333,48.0001L 20.8333,47.0001L 22.1667,47.0001L 22.1667,48.0001 Z M 19.5,48.0001L 18.1667,48.0001L 18.1667,47.0001L 19.5,47.0001L 19.5,48.0001 Z M 16.8333,48.0001L 15.5,48.0001L 15.5,47.0001L 16.8333,47.0001L 16.8333,48.0001 Z M 14.1667,48.0001L 12.8333,48.0001L 12.8333,47.0001L 14.1667,47.0001L 14.1667,48.0001 Z M 11.5,48.0001L 10.1667,48.0001L 10.1667,47.0001L 11.5,47.0001L 11.5,48.0001 Z M 8.83334,48.0001L 7.5,48.0001L 7.5,47.0001L 8.83334,47.0001L 8.83334,48.0001 Z M 6.16666,48.0001L 4.83334,48.0001L 4.83334,47.0001L 6.16666,47.0001L 6.16666,48.0001 Z M 3.5,48.0001L 2.16666,48.0001L 2.16666,47.0001L 3.5,47.0001L 3.5,48.0001 Z M 0.833344,48.0001L 0.5,48.0001L 0.40213,47.9917L 0.308075,47.9635L 0.221588,47.9169L 0.146454,47.8537L 0.0831604,47.7785L 0.0365906,47.692L 0.00836182,47.5979L 0,47.5001L 0,46.5001L 1,46.5001L 1,47.5001L 0.5,47.0001L 0.833344,47.0001L 0.833344,48.0001 Z M 0,45.1668L 0,43.8334L 1,43.8334L 1,45.1668L 0,45.1668 Z M 0,42.5001L 0,41.1668L 1,41.1668L 1,42.5001L 0,42.5001 Z M 0,39.8334L 0,38.5001L 1,38.5001L 1,39.8334L 0,39.8334 Z M 0,37.1668L 0,35.8334L 1,35.8334L 1,37.1668L 0,37.1668 Z M 0,34.5001L 0,33.1668L 1,33.1668L 1,34.5001L 0,34.5001 Z M 0,31.8334L 0,30.5001L 1,30.5001L 1,31.8334L 0,31.8334 Z M 0,29.1668L 0,27.8334L 1,27.8334L 1,29.1668L 0,29.1668 Z M 0,26.5001L 0,25.1668L 1,25.1668L 1,26.5001L 0,26.5001 Z M 0,23.8334L 0,22.5001L 1,22.5001L 1,23.8334L 0,23.8334 Z M 0,21.1668L 0,19.8334L 1,19.8334L 1,21.1668L 0,21.1668 Z M 0,18.5001L 0,17.1668L 1,17.1668L 1,18.5001L 0,18.5001 Z M 0,15.8334L 0,14.5001L 1,14.5001L 1,15.8334L 0,15.8334 Z M 0,13.1668L 0,11.8334L 1,11.8334L 1,13.1668L 0,13.1668 Z M 0,10.5001L 0,9.16676L 1,9.16676L 1,10.5001L 0,10.5001 Z M 0,7.83339L 0,6.50008L 1,6.50008L 1,7.83339L 0,7.83339 Z M 0,5.16676L 0,3.83339L 1,3.83339L 1,5.16676L 0,5.16676 Z M 0,2.50008L 0,1.16676L 1,1.16676L 1,2.50008L 0,2.50008 Z M 0.5,7.62939e-005L 1.83334,7.62939e-005L 1.83334,1.00008L 0.5,1.00008L 0.5,7.62939e-005 Z "/>
			<rect x="99.5" y="0.500015" fill="#FFFFFF" fill-opacity="1" stroke-linejoin="round" stroke="#CBCBCB" stroke-opacity="1" width="30" height="47"/>
			<path fill="#CBCBCB" fill-opacity="1" stroke-linejoin="round" d="M 102.167,1.52588e-005L 103.5,1.52588e-005L 103.5,1.00002L 102.167,1.00002L 102.167,1.52588e-005 Z M 104.833,1.52588e-005L 106.167,1.52588e-005L 106.167,1.00002L 104.833,1.00002L 104.833,1.52588e-005 Z M 107.5,1.52588e-005L 108.833,1.52588e-005L 108.833,1.00002L 107.5,1.00002L 107.5,1.52588e-005 Z M 110.167,1.52588e-005L 111.5,1.52588e-005L 111.5,1.00002L 110.167,1.00002L 110.167,1.52588e-005 Z M 112.833,1.52588e-005L 114.167,1.52588e-005L 114.167,1.00002L 112.833,1.00002L 112.833,1.52588e-005 Z M 115.5,1.52588e-005L 116.833,1.52588e-005L 116.833,1.00002L 115.5,1.00002L 115.5,1.52588e-005 Z M 118.167,1.52588e-005L 119.5,1.52588e-005L 119.5,1.00002L 118.167,1.00002L 118.167,1.52588e-005 Z M 120.833,1.52588e-005L 122.167,1.52588e-005L 122.167,1.00002L 120.833,1.00002L 120.833,1.52588e-005 Z M 123.5,1.52588e-005L 124.833,1.52588e-005L 124.833,1.00002L 123.5,1.00002L 123.5,1.52588e-005 Z M 126.167,1.52588e-005L 127.5,1.52588e-005L 127.5,1.00002L 126.167,1.00002L 126.167,1.52588e-005 Z M 128.833,1.52588e-005L 129.5,1.52588e-005L 129.598,0.00843811L 129.692,0.0366364L 129.778,0.0832062L 129.854,0.1465L 129.917,0.221573L 129.963,0.308121L 129.992,0.402176L 130,0.500015L 130,1.1667L 129,1.1667L 129,0.500015L 129.5,1.00002L 128.833,1.00002L 128.833,1.52588e-005 Z M 130,2.50002L 130,3.83339L 129,3.83339L 129,2.50002L 130,2.50002 Z M 130,5.1667L 130,6.50002L 129,6.50002L 129,5.1667L 130,5.1667 Z M 130,7.83339L 130,9.1667L 129,9.1667L 129,7.83339L 130,7.83339 Z M 130,10.5L 130,11.8334L 129,11.8334L 129,10.5L 130,10.5 Z M 130,13.1667L 130,14.5L 129,14.5L 129,13.1667L 130,13.1667 Z M 130,15.8334L 130,17.1667L 129,17.1667L 129,15.8334L 130,15.8334 Z M 130,18.5L 130,19.8334L 129,19.8334L 129,18.5L 130,18.5 Z M 130,21.1667L 130,22.5L 129,22.5L 129,21.1667L 130,21.1667 Z M 130,23.8334L 130,25.1667L 129,25.1667L 129,23.8334L 130,23.8334 Z M 130,26.5L 130,27.8334L 129,27.8334L 129,26.5L 130,26.5 Z M 130,29.1667L 130,30.5L 129,30.5L 129,29.1667L 130,29.1667 Z M 130,31.8334L 130,33.1667L 129,33.1667L 129,31.8334L 130,31.8334 Z M 130,34.5L 130,35.8334L 129,35.8334L 129,34.5L 130,34.5 Z M 130,37.1667L 130,38.5L 129,38.5L 129,37.1667L 130,37.1667 Z M 130,39.8334L 130,41.1667L 129,41.1667L 129,39.8334L 130,39.8334 Z M 130,42.5L 130,43.8334L 129,43.8334L 129,42.5L 130,42.5 Z M 130,45.1667L 130,46.5L 129,46.5L 129,45.1667L 130,45.1667 Z M 129.167,48L 127.833,48L 127.833,47L 129.167,47L 129.167,48 Z M 126.5,48L 125.167,48L 125.167,47L 126.5,47L 126.5,48 Z M 123.833,48L 122.5,48L 122.5,47L 123.833,47L 123.833,48 Z M 121.167,48L 119.833,48L 119.833,47L 121.167,47L 121.167,48 Z M 118.5,48L 117.167,48L 117.167,47L 118.5,47L 118.5,48 Z M 115.833,48L 114.5,48L 114.5,47L 115.833,47L 115.833,48 Z M 113.167,48L 111.833,48L 111.833,47L 113.167,47L 113.167,48 Z M 110.5,48L 109.167,48L 109.167,47L 110.5,47L 110.5,48 Z M 107.833,48L 106.5,48L 106.5,47L 107.833,47L 107.833,48 Z M 105.167,48L 103.833,48L 103.833,47L 105.167,47L 105.167,48 Z M 102.5,48L 101.167,48L 101.167,47L 102.5,47L 102.5,48 Z M 99.8334,48L 99.5,48L 99.4022,47.9917L 99.3081,47.9634L 99.2216,47.9169L 99.1465,47.8536L 99.0832,47.7785L 99.0367,47.692L 99.0084,47.5979L 99,47.5L 99,46.5L 100,46.5L 100,47.5L 99.5,47L 99.8334,47L 99.8334,48 Z M 99,45.1667L 99,43.8334L 100,43.8334L 100,45.1667L 99,45.1667 Z M 99,42.5L 99,41.1667L 100,41.1667L 100,42.5L 99,42.5 Z M 99,39.8334L 99,38.5L 100,38.5L 100,39.8334L 99,39.8334 Z M 99,37.1667L 99,35.8334L 100,35.8334L 100,37.1667L 99,37.1667 Z M 99,34.5L 99,33.1667L 100,33.1667L 100,34.5L 99,34.5 Z M 99,31.8334L 99,30.5L 100,30.5L 100,31.8334L 99,31.8334 Z M 99,29.1667L 99,27.8334L 100,27.8334L 100,29.1667L 99,29.1667 Z M 99,26.5L 99,25.1667L 100,25.1667L 100,26.5L 99,26.5 Z M 99,23.8334L 99,22.5L 100,22.5L 100,23.8334L 99,23.8334 Z M 99,21.1667L 99,19.8334L 100,19.8334L 100,21.1667L 99,21.1667 Z M 99,18.5L 99,17.1667L 100,17.1667L 100,18.5L 99,18.5 Z M 99,15.8334L 99,14.5L 100,14.5L 100,15.8334L 99,15.8334 Z M 99,13.1667L 99,11.8334L 100,11.8334L 100,13.1667L 99,13.1667 Z M 99,10.5L 99,9.1667L 100,9.1667L 100,10.5L 99,10.5 Z M 99,7.83339L 99,6.50002L 100,6.50002L 100,7.83339L 99,7.83339 Z M 99,5.1667L 99,3.83339L 100,3.83339L 100,5.1667L 99,5.1667 Z M 99,2.50002L 99,1.1667L 100,1.1667L 100,2.50002L 99,2.50002 Z M 99.5,1.52588e-005L 100.833,1.52588e-005L 100.833,1.00002L 99.5,1.00002L 99.5,1.52588e-005 Z "/>
			<rect x="114.5" y="47.5" fill="#FFFFFF" fill-opacity="1" stroke-linejoin="round" stroke="#CBCBCB" stroke-opacity="1" width="15" height="22"/>
			<path fill="#CBCBCB" fill-opacity="1" stroke-linejoin="round" d="M 117.167,47L 118.5,47L 118.5,48L 117.167,48L 117.167,47 Z M 119.833,47L 121.167,47L 121.167,48L 119.833,48L 119.833,47 Z M 122.5,47L 123.833,47L 123.833,48L 122.5,48L 122.5,47 Z M 125.167,47L 126.5,47L 126.5,48L 125.167,48L 125.167,47 Z M 127.833,47L 129.167,47L 129.167,48L 127.833,48L 127.833,47 Z M 130,48.5L 130,49.8333L 129,49.8333L 129,48.5L 130,48.5 Z M 130,51.1666L 130,52.5L 129,52.5L 129,51.1666L 130,51.1666 Z M 130,53.8333L 130,55.1666L 129,55.1666L 129,53.8333L 130,53.8333 Z M 130,56.5L 130,57.8333L 129,57.8333L 129,56.5L 130,56.5 Z M 130,59.1666L 130,60.5L 129,60.5L 129,59.1666L 130,59.1666 Z M 130,61.8333L 130,63.1666L 129,63.1666L 129,61.8333L 130,61.8333 Z M 130,64.5L 130,65.8333L 129,65.8333L 129,64.5L 130,64.5 Z M 130,67.1666L 130,68.5L 129,68.5L 129,67.1666L 130,67.1666 Z M 129.167,70L 127.833,70L 127.833,69L 129.167,69L 129.167,70 Z M 126.5,70L 125.167,70L 125.167,69L 126.5,69L 126.5,70 Z M 123.833,70L 122.5,70L 122.5,69L 123.833,69L 123.833,70 Z M 121.167,70L 119.833,70L 119.833,69L 121.167,69L 121.167,70 Z M 118.5,70L 117.167,70L 117.167,69L 118.5,69L 118.5,70 Z M 115.833,70L 114.5,70L 114.5,69L 115.833,69L 115.833,70 Z M 114,68.1666L 114,66.8333L 115,66.8333L 115,68.1666L 114,68.1666 Z M 114,65.5L 114,64.1666L 115,64.1666L 115,65.5L 114,65.5 Z M 114,62.8333L 114,61.5L 115,61.5L 115,62.8333L 114,62.8333 Z M 114,60.1666L 114,58.8333L 115,58.8333L 115,60.1666L 114,60.1666 Z M 114,57.5L 114,56.1666L 115,56.1666L 115,57.5L 114,57.5 Z M 114,54.8333L 114,53.5L 115,53.5L 115,54.8333L 114,54.8333 Z M 114,52.1666L 114,50.8333L 115,50.8333L 115,52.1666L 114,52.1666 Z M 114,49.5L 114,48.1666L 115,48.1666L 115,49.5L 114,49.5 Z M 114.5,47L 115.833,47L 115.833,48L 114.5,48L 114.5,47 Z "/>
			<rect x="118.5" y="85.5" fill="#FFFFFF" fill-opacity="1" stroke-linejoin="round" stroke="#CBCBCB" stroke-opacity="1" width="20" height="40"/>
			<path fill="#CBCBCB" fill-opacity="1" stroke-linejoin="round" d="M 121.167,85L 122.5,85L 122.5,86L 121.167,86L 121.167,85 Z M 123.833,85L 125.167,85L 125.167,86L 123.833,86L 123.833,85 Z M 126.5,85L 127.833,85L 127.833,86L 126.5,86L 126.5,85 Z M 129.167,85L 130.5,85L 130.5,86L 129.167,86L 129.167,85 Z M 131.833,85L 133.167,85L 133.167,86L 131.833,86L 131.833,85 Z M 134.5,85L 135.833,85L 135.833,86L 134.5,86L 134.5,85 Z M 137.167,85L 138.5,85L 138.5,86L 137.167,86L 137.167,85 Z M 139,86.8333L 139,88.1666L 138,88.1666L 138,86.8333L 139,86.8333 Z M 139,89.5L 139,90.8333L 138,90.8333L 138,89.5L 139,89.5 Z M 139,92.1666L 139,93.5L 138,93.5L 138,92.1666L 139,92.1666 Z M 139,94.8333L 139,96.1666L 138,96.1666L 138,94.8333L 139,94.8333 Z M 139,97.5L 139,98.8333L 138,98.8333L 138,97.5L 139,97.5 Z M 139,100.167L 139,101.5L 138,101.5L 138,100.167L 139,100.167 Z M 139,102.833L 139,104.167L 138,104.167L 138,102.833L 139,102.833 Z M 139,105.5L 139,106.833L 138,106.833L 138,105.5L 139,105.5 Z M 139,108.167L 139,109.5L 138,109.5L 138,108.167L 139,108.167 Z M 139,110.833L 139,112.167L 138,112.167L 138,110.833L 139,110.833 Z M 139,113.5L 139,114.833L 138,114.833L 138,113.5L 139,113.5 Z M 139,116.167L 139,117.5L 138,117.5L 138,116.167L 139,116.167 Z M 139,118.833L 139,120.167L 138,120.167L 138,118.833L 139,118.833 Z M 139,121.5L 139,122.833L 138,122.833L 138,121.5L 139,121.5 Z M 139,124.167L 139,125.5L 138,125.5L 138,124.167L 139,124.167 Z M 137.167,126L 135.833,126L 135.833,125L 137.167,125L 137.167,126 Z M 134.5,126L 133.167,126L 133.167,125L 134.5,125L 134.5,126 Z M 131.833,126L 130.5,126L 130.5,125L 131.833,125L 131.833,126 Z M 129.167,126L 127.833,126L 127.833,125L 129.167,125L 129.167,126 Z M 126.5,126L 125.167,126L 125.167,125L 126.5,125L 126.5,126 Z M 123.833,126L 122.5,126L 122.5,125L 123.833,125L 123.833,126 Z M 121.167,126L 119.833,126L 119.833,125L 121.167,125L 121.167,126 Z M 118.5,126L 118.402,125.992L 118.308,125.963L 118.221,125.917L 118.146,125.854L 118.083,125.778L 118.037,125.692L 118.008,125.598L 118,125.5L 118,124.167L 119,124.167L 119,125.5L 118.5,125L 118.5,126 Z M 118,122.833L 118,121.5L 119,121.5L 119,122.833L 118,122.833 Z M 118,120.167L 118,118.833L 119,118.833L 119,120.167L 118,120.167 Z M 118,117.5L 118,116.167L 119,116.167L 119,117.5L 118,117.5 Z M 118,114.833L 118,113.5L 119,113.5L 119,114.833L 118,114.833 Z M 118,112.167L 118,110.833L 119,110.833L 119,112.167L 118,112.167 Z M 118,109.5L 118,108.167L 119,108.167L 119,109.5L 118,109.5 Z M 118,106.833L 118,105.5L 119,105.5L 119,106.833L 118,106.833 Z M 118,104.167L 118,102.833L 119,102.833L 119,104.167L 118,104.167 Z M 118,101.5L 118,100.167L 119,100.167L 119,101.5L 118,101.5 Z M 118,98.8333L 118,97.5L 119,97.5L 119,98.8333L 118,98.8333 Z M 118,96.1666L 118,94.8333L 119,94.8333L 119,96.1666L 118,96.1666 Z M 118,93.5L 118,92.1666L 119,92.1666L 119,93.5L 118,93.5 Z M 118,90.8333L 118,89.5L 119,89.5L 119,90.8333L 118,90.8333 Z M 118,88.1666L 118,86.8333L 119,86.8333L 119,88.1666L 118,88.1666 Z M 118,85.5L 118.008,85.4021L 118.037,85.3081L 118.083,85.2216L 118.146,85.1464L 118.221,85.0831L 118.308,85.0366L 118.402,85.0084L 118.5,85L 119.833,85L 119.833,86L 118.5,86L 119,85.5L 118,85.5 Z "/>
			<rect x="0.500031" y="47.5" fill="#FFFFFF" fill-opacity="1" stroke-linejoin="round" stroke="#CBCBCB" stroke-opacity="1" width="15" height="22"/>
			<path fill="#CBCBCB" fill-opacity="1" stroke-linejoin="round" d="M 3.16669,47L 4.50003,47L 4.50003,48L 3.16669,48L 3.16669,47 Z M 5.83334,47L 7.16669,47L 7.16669,48L 5.83334,48L 5.83334,47 Z M 8.50003,47L 9.83334,47L 9.83334,48L 8.50003,48L 8.50003,47 Z M 11.1667,47L 12.5,47L 12.5,48L 11.1667,48L 11.1667,47 Z M 13.8333,47L 15.1667,47L 15.1667,48L 13.8333,48L 13.8333,47 Z M 16,48.5L 16,49.8334L 15,49.8334L 15,48.5L 16,48.5 Z M 16,51.1667L 16,52.5L 15,52.5L 15,51.1667L 16,51.1667 Z M 16,53.8334L 16,55.1667L 15,55.1667L 15,53.8334L 16,53.8334 Z M 16,56.5L 16,57.8334L 15,57.8334L 15,56.5L 16,56.5 Z M 16,59.1667L 16,60.5L 15,60.5L 15,59.1667L 16,59.1667 Z M 16,61.8334L 16,63.1667L 15,63.1667L 15,61.8334L 16,61.8334 Z M 16,64.5L 16,65.8334L 15,65.8334L 15,64.5L 16,64.5 Z M 16,67.1667L 16,68.5L 15,68.5L 15,67.1667L 16,67.1667 Z M 15.1667,70L 13.8333,70L 13.8333,69L 15.1667,69L 15.1667,70 Z M 12.5,70L 11.1667,70L 11.1667,69L 12.5,69L 12.5,70 Z M 9.83334,70L 8.50003,70L 8.50003,69L 9.83334,69L 9.83334,70 Z M 7.16669,70L 5.83334,70L 5.83334,69L 7.16669,69L 7.16669,70 Z M 4.50003,70L 3.16669,70L 3.16669,69L 4.50003,69L 4.50003,70 Z M 1.83334,70L 0.500031,70L 0.500031,69L 1.83334,69L 1.83334,70 Z M 3.05176e-005,68.1667L 3.05176e-005,66.8334L 1.00003,66.8334L 1.00003,68.1667L 3.05176e-005,68.1667 Z M 3.05176e-005,65.5L 3.05176e-005,64.1667L 1.00003,64.1667L 1.00003,65.5L 3.05176e-005,65.5 Z M 3.05176e-005,62.8334L 3.05176e-005,61.5L 1.00003,61.5L 1.00003,62.8334L 3.05176e-005,62.8334 Z M 3.05176e-005,60.1667L 3.05176e-005,58.8334L 1.00003,58.8334L 1.00003,60.1667L 3.05176e-005,60.1667 Z M 3.05176e-005,57.5L 3.05176e-005,56.1667L 1.00003,56.1667L 1.00003,57.5L 3.05176e-005,57.5 Z M 3.05176e-005,54.8334L 3.05176e-005,53.5L 1.00003,53.5L 1.00003,54.8334L 3.05176e-005,54.8334 Z M 3.05176e-005,52.1667L 3.05176e-005,50.8334L 1.00003,50.8334L 1.00003,52.1667L 3.05176e-005,52.1667 Z M 3.05176e-005,49.5L 3.05176e-005,48.1667L 1.00003,48.1667L 1.00003,49.5L 3.05176e-005,49.5 Z M 0.500031,47L 1.83334,47L 1.83334,48L 0.500031,48L 0.500031,47 Z "/>
			<path fill="#B6B6B6" fill-opacity="1" stroke-linejoin="round" stroke="#CBCBCB" stroke-opacity="1" d="M 65.5,0.500137L 100.5,0.500137L 100.5,50.5001L 99.5,50.5001L 99.5,54.5001L 78.5,54.5001L 78.5,50.5001L 65.5,50.5001L 65.5,0.500137 Z "/>
			<path fill="#CBCBCB" fill-opacity="1" stroke-linejoin="round" d="M 68.1667,0.000137329L 69.5,0.000137329L 69.5,1.00014L 68.1667,1.00014L 68.1667,0.000137329 Z M 70.8333,0.000137329L 72.1667,0.000137329L 72.1667,1.00014L 70.8333,1.00014L 70.8333,0.000137329 Z M 73.5,0.000137329L 74.8333,0.000137329L 74.8333,1.00014L 73.5,1.00014L 73.5,0.000137329 Z M 76.1667,0.000137329L 77.5,0.000137329L 77.5,1.00014L 76.1667,1.00014L 76.1667,0.000137329 Z M 78.8333,0.000137329L 80.1667,0.000137329L 80.1667,1.00014L 78.8333,1.00014L 78.8333,0.000137329 Z M 81.5,0.000137329L 82.8333,0.000137329L 82.8333,1.00014L 81.5,1.00014L 81.5,0.000137329 Z M 84.1667,0.000137329L 85.5,0.000137329L 85.5,1.00014L 84.1667,1.00014L 84.1667,0.000137329 Z M 86.8333,0.000137329L 88.1667,0.000137329L 88.1667,1.00014L 86.8333,1.00014L 86.8333,0.000137329 Z M 89.5,0.000137329L 90.8333,0.000137329L 90.8333,1.00014L 89.5,1.00014L 89.5,0.000137329 Z M 92.1667,0.000137329L 93.5,0.000137329L 93.5,1.00014L 92.1667,1.00014L 92.1667,0.000137329 Z M 94.8333,0.000137329L 96.1667,0.000137329L 96.1667,1.00014L 94.8333,1.00014L 94.8333,0.000137329 Z M 97.5,0.000137329L 98.8333,0.000137329L 98.8333,1.00014L 97.5,1.00014L 97.5,0.000137329 Z M 100.167,0.000137329L 100.5,0.000137329L 100.598,0.00849915L 100.692,0.0367584L 100.778,0.0832672L 100.854,0.146561L 100.917,0.221695L 100.963,0.308182L 100.992,0.402237L 101,0.500137L 101,1.50014L 100,1.50014L 100,0.500137L 100.5,1.00014L 100.167,1.00014L 100.167,0.000137329 Z M 101,2.83345L 101,4.16676L 100,4.16676L 100,2.83345L 101,2.83345 Z M 101,5.50014L 101,6.83345L 100,6.83345L 100,5.50014L 101,5.50014 Z M 101,8.16676L 101,9.50014L 100,9.50014L 100,8.16676L 101,8.16676 Z M 101,10.8335L 101,12.1668L 100,12.1668L 100,10.8335L 101,10.8335 Z M 101,13.5001L 101,14.8335L 100,14.8335L 100,13.5001L 101,13.5001 Z M 101,16.1668L 101,17.5001L 100,17.5001L 100,16.1668L 101,16.1668 Z M 101,18.8335L 101,20.1668L 100,20.1668L 100,18.8335L 101,18.8335 Z M 101,21.5001L 101,22.8335L 100,22.8335L 100,21.5001L 101,21.5001 Z M 101,24.1668L 101,25.5001L 100,25.5001L 100,24.1668L 101,24.1668 Z M 101,26.8335L 101,28.1668L 100,28.1668L 100,26.8335L 101,26.8335 Z M 101,29.5001L 101,30.8335L 100,30.8335L 100,29.5001L 101,29.5001 Z M 101,32.1668L 101,33.5001L 100,33.5001L 100,32.1668L 101,32.1668 Z M 101,34.8335L 101,36.1668L 100,36.1668L 100,34.8335L 101,34.8335 Z M 101,37.5001L 101,38.8335L 100,38.8335L 100,37.5001L 101,37.5001 Z M 101,40.1668L 101,41.5001L 100,41.5001L 100,40.1668L 101,40.1668 Z M 101,42.8335L 101,44.1668L 100,44.1668L 100,42.8335L 101,42.8335 Z M 101,45.5001L 101,46.8335L 100,46.8335L 100,45.5001L 101,45.5001 Z M 101,48.1668L 101,49.5001L 100,49.5001L 100,48.1668L 101,48.1668 Z M 100.167,51.0001L 99.5,51.0001L 100,50.5001L 100,51.1668L 99,51.1668L 99,50.5001L 99.0084,50.4023L 99.0366,50.3082L 99.0832,50.2217L 99.1465,50.1466L 99.2216,50.0833L 99.3081,50.0368L 99.4021,50.0086L 99.5,50.0001L 100.167,50.0001L 100.167,51.0001 Z M 100,52.5001L 100,53.8335L 99,53.8335L 99,52.5001L 100,52.5001 Z M 98.8333,55.0001L 97.5,55.0001L 97.5,54.0001L 98.8333,54.0001L 98.8333,55.0001 Z M 96.1666,55.0001L 94.8333,55.0001L 94.8333,54.0001L 96.1666,54.0001L 96.1666,55.0001 Z M 93.5,55.0001L 92.1666,55.0001L 92.1666,54.0001L 93.5,54.0001L 93.5,55.0001 Z M 90.8333,55.0001L 89.5,55.0001L 89.5,54.0001L 90.8333,54.0001L 90.8333,55.0001 Z M 88.1666,55.0001L 86.8333,55.0001L 86.8333,54.0001L 88.1666,54.0001L 88.1666,55.0001 Z M 85.5,55.0001L 84.1666,55.0001L 84.1666,54.0001L 85.5,54.0001L 85.5,55.0001 Z M 82.8333,55.0001L 81.5,55.0001L 81.5,54.0001L 82.8333,54.0001L 82.8333,55.0001 Z M 80.1666,55.0001L 78.8333,55.0001L 78.8333,54.0001L 80.1666,54.0001L 80.1666,55.0001 Z M 78,53.5L 78,52.1667L 79,52.1667L 79,53.5L 78,53.5 Z M 78,50.8334L 78,50.5001L 78.5,51.0001L 77.4999,51.0001L 77.4999,50.0001L 78.5,50.0001L 78.5979,50.0086L 78.6919,50.0368L 78.7784,50.0833L 78.8535,50.1466L 78.9168,50.2217L 78.9634,50.3082L 78.9916,50.4023L 79,50.5001L 79,50.8334L 78,50.8334 Z M 76.1665,51.0001L 74.8332,51.0001L 74.8332,50.0001L 76.1665,50.0001L 76.1665,51.0001 Z M 73.4999,51.0001L 72.1665,51.0001L 72.1665,50.0001L 73.4999,50.0001L 73.4999,51.0001 Z M 70.8332,51.0001L 69.4999,51.0001L 69.4999,50.0001L 70.8332,50.0001L 70.8332,51.0001 Z M 68.1665,51.0001L 66.8332,51.0001L 66.8332,50.0001L 68.1665,50.0001L 68.1665,51.0001 Z M 65,50.5L 65,49.1667L 66,49.1667L 66,50.5L 65,50.5 Z M 65,47.8334L 65,46.5L 66,46.5L 66,47.8334L 65,47.8334 Z M 65,45.1667L 65,43.8334L 66,43.8334L 66,45.1667L 65,45.1667 Z M 65,42.5L 65,41.1667L 66,41.1667L 66,42.5L 65,42.5 Z M 65,39.8334L 65,38.5L 66,38.5L 66,39.8334L 65,39.8334 Z M 65,37.1667L 65,35.8334L 66,35.8334L 66,37.1667L 65,37.1667 Z M 65,34.5L 65,33.1667L 66,33.1667L 66,34.5L 65,34.5 Z M 65,31.8334L 65,30.5L 66,30.5L 66,31.8334L 65,31.8334 Z M 65,29.1667L 65,27.8334L 66,27.8334L 66,29.1667L 65,29.1667 Z M 65,26.5L 65,25.1667L 66,25.1667L 66,26.5L 65,26.5 Z M 65,23.8334L 65,22.5L 66,22.5L 66,23.8334L 65,23.8334 Z M 65,21.1667L 65,19.8334L 66,19.8334L 66,21.1667L 65,21.1667 Z M 65,18.5L 65,17.1667L 66,17.1667L 66,18.5L 65,18.5 Z M 65,15.8334L 65,14.5L 66,14.5L 66,15.8334L 65,15.8334 Z M 65,13.1667L 65,11.8334L 66,11.8334L 66,13.1667L 65,13.1667 Z M 65,10.5L 65,9.1667L 66,9.1667L 66,10.5L 65,10.5 Z M 65,7.83339L 65,6.50002L 66,6.50002L 66,7.83339L 65,7.83339 Z M 65,5.1667L 65,3.83339L 66,3.83339L 66,5.1667L 65,5.1667 Z M 65,2.50002L 65,1.1667L 66,1.1667L 66,2.50002L 65,2.50002 Z M 65.5,0.000137329L 66.8333,0.000137329L 66.8333,1.00014L 65.5,1.00014L 65.5,0.000137329 Z "/>
			<path fill="#B6B6B6" fill-opacity="1" stroke-linejoin="round" stroke="#CBCBCB" stroke-opacity="1" d="M 65.4999,0.500015L 30.4999,0.500015L 30.4999,50.5L 31.4999,50.5L 31.4999,54.5L 52.4999,54.5L 52.4999,50.5L 65.4999,50.5L 65.4999,0.500015 Z "/>
			<path fill="#CBCBCB" fill-opacity="1" stroke-linejoin="round" d="M 62.8333,1.00002L 61.4999,1.00002L 61.4999,1.52588e-005L 62.8333,1.52588e-005L 62.8333,1.00002 Z M 60.1666,1.00002L 58.8333,1.00002L 58.8333,1.52588e-005L 60.1666,1.52588e-005L 60.1666,1.00002 Z M 57.4999,1.00002L 56.1666,1.00002L 56.1666,1.52588e-005L 57.4999,1.52588e-005L 57.4999,1.00002 Z M 54.8333,1.00002L 53.4999,1.00002L 53.4999,1.52588e-005L 54.8333,1.52588e-005L 54.8333,1.00002 Z M 52.1666,1.00002L 50.8333,1.00002L 50.8333,1.52588e-005L 52.1666,1.52588e-005L 52.1666,1.00002 Z M 49.4999,1.00002L 48.1666,1.00002L 48.1666,1.52588e-005L 49.4999,1.52588e-005L 49.4999,1.00002 Z M 46.8333,1.00002L 45.4999,1.00002L 45.4999,1.52588e-005L 46.8333,1.52588e-005L 46.8333,1.00002 Z M 44.1666,1.00002L 42.8333,1.00002L 42.8333,1.52588e-005L 44.1666,1.52588e-005L 44.1666,1.00002 Z M 41.4999,1.00002L 40.1666,1.00002L 40.1666,1.52588e-005L 41.4999,1.52588e-005L 41.4999,1.00002 Z M 38.8333,1.00002L 37.4999,1.00002L 37.4999,1.52588e-005L 38.8333,1.52588e-005L 38.8333,1.00002 Z M 36.1666,1.00002L 34.8333,1.00002L 34.8333,1.52588e-005L 36.1666,1.52588e-005L 36.1666,1.00002 Z M 33.4999,1.00002L 32.1666,1.00002L 32.1666,1.52588e-005L 33.4999,1.52588e-005L 33.4999,1.00002 Z M 30.8333,1.00002L 30.4999,1.00002L 30.9999,0.500015L 30.9999,1.50002L 29.9999,1.50002L 29.9999,0.500015L 30.0083,0.402115L 30.0365,0.30806L 30.0831,0.221573L 30.1464,0.146439L 30.2215,0.0831451L 30.308,0.0366364L 30.4021,0.00837708L 30.4999,1.52588e-005L 30.8333,1.52588e-005L 30.8333,1.00002 Z M 30.9999,2.83333L 30.9999,4.16664L 29.9999,4.16664L 29.9999,2.83333L 30.9999,2.83333 Z M 30.9999,5.50002L 30.9999,6.83333L 29.9999,6.83333L 29.9999,5.50002L 30.9999,5.50002 Z M 30.9999,8.16664L 30.9999,9.50002L 29.9999,9.50002L 29.9999,8.16664L 30.9999,8.16664 Z M 30.9999,10.8333L 30.9999,12.1666L 29.9999,12.1666L 29.9999,10.8333L 30.9999,10.8333 Z M 30.9999,13.5L 30.9999,14.8333L 29.9999,14.8333L 29.9999,13.5L 30.9999,13.5 Z M 30.9999,16.1666L 30.9999,17.5L 29.9999,17.5L 29.9999,16.1666L 30.9999,16.1666 Z M 30.9999,18.8333L 30.9999,20.1666L 29.9999,20.1666L 29.9999,18.8333L 30.9999,18.8333 Z M 30.9999,21.5L 30.9999,22.8333L 29.9999,22.8333L 29.9999,21.5L 30.9999,21.5 Z M 30.9999,24.1666L 30.9999,25.5L 29.9999,25.5L 29.9999,24.1666L 30.9999,24.1666 Z M 30.9999,26.8333L 30.9999,28.1666L 29.9999,28.1666L 29.9999,26.8333L 30.9999,26.8333 Z M 30.9999,29.5L 30.9999,30.8333L 29.9999,30.8333L 29.9999,29.5L 30.9999,29.5 Z M 30.9999,32.1666L 30.9999,33.5L 29.9999,33.5L 29.9999,32.1666L 30.9999,32.1666 Z M 30.9999,34.8333L 30.9999,36.1666L 29.9999,36.1666L 29.9999,34.8333L 30.9999,34.8333 Z M 30.9999,37.5L 30.9999,38.8333L 29.9999,38.8333L 29.9999,37.5L 30.9999,37.5 Z M 30.9999,40.1666L 30.9999,41.5L 29.9999,41.5L 29.9999,40.1666L 30.9999,40.1666 Z M 30.9999,42.8333L 30.9999,44.1666L 29.9999,44.1666L 29.9999,42.8333L 30.9999,42.8333 Z M 30.9999,45.5L 30.9999,46.8333L 29.9999,46.8333L 29.9999,45.5L 30.9999,45.5 Z M 30.9999,48.1666L 30.9999,49.5L 29.9999,49.5L 29.9999,48.1666L 30.9999,48.1666 Z M 30.8332,50L 31.4999,50L 31.5978,50.0084L 31.6919,50.0366L 31.7784,50.0832L 31.8535,50.1465L 31.9168,50.2216L 31.9633,50.3081L 31.9915,50.4022L 31.9999,50.5L 31.9999,51.1666L 30.9999,51.1666L 30.9999,50.5L 31.4999,51L 30.8332,51L 30.8332,50 Z M 31.9999,52.5L 31.9999,53.8333L 30.9999,53.8333L 30.9999,52.5L 31.9999,52.5 Z M 32.1666,54L 33.5,54L 33.5,55L 32.1666,55L 32.1666,54 Z M 34.8333,54L 36.1666,54L 36.1666,55L 34.8333,55L 34.8333,54 Z M 37.5,54L 38.8333,54L 38.8333,55L 37.5,55L 37.5,54 Z M 40.1666,54L 41.5,54L 41.5,55L 40.1666,55L 40.1666,54 Z M 42.8333,54L 44.1666,54L 44.1666,55L 42.8333,55L 42.8333,54 Z M 45.5,54L 46.8333,54L 46.8333,55L 45.5,55L 45.5,54 Z M 48.1666,54L 49.5,54L 49.5,55L 48.1666,55L 48.1666,54 Z M 50.8333,54L 52.1666,54L 52.1666,55L 50.8333,55L 50.8333,54 Z M 51.9999,53.4999L 51.9999,52.1666L 52.9999,52.1666L 52.9999,53.4999L 51.9999,53.4999 Z M 51.9999,50.8333L 51.9999,50.5L 52.0083,50.4022L 52.0365,50.3081L 52.0831,50.2216L 52.1464,50.1465L 52.2215,50.0832L 52.308,50.0366L 52.4021,50.0084L 52.4999,50L 53.5,50L 53.5,51L 52.4999,51L 52.9999,50.5L 52.9999,50.8333L 51.9999,50.8333 Z M 54.8334,50L 56.1667,50L 56.1667,51L 54.8334,51L 54.8334,50 Z M 57.5,50L 58.8334,50L 58.8334,51L 57.5,51L 57.5,50 Z M 60.1667,50L 61.5,50L 61.5,51L 60.1667,51L 60.1667,50 Z M 62.8334,50L 64.1667,50L 64.1667,51L 62.8334,51L 62.8334,50 Z M 64.9999,50.4999L 64.9999,49.1666L 65.9999,49.1666L 65.9999,50.4999L 64.9999,50.4999 Z M 64.9999,47.8333L 64.9999,46.4999L 65.9999,46.4999L 65.9999,47.8333L 64.9999,47.8333 Z M 64.9999,45.1666L 64.9999,43.8333L 65.9999,43.8333L 65.9999,45.1666L 64.9999,45.1666 Z M 64.9999,42.4999L 64.9999,41.1666L 65.9999,41.1666L 65.9999,42.4999L 64.9999,42.4999 Z M 64.9999,39.8333L 64.9999,38.4999L 65.9999,38.4999L 65.9999,39.8333L 64.9999,39.8333 Z M 64.9999,37.1666L 64.9999,35.8333L 65.9999,35.8333L 65.9999,37.1666L 64.9999,37.1666 Z M 64.9999,34.4999L 64.9999,33.1666L 65.9999,33.1666L 65.9999,34.4999L 64.9999,34.4999 Z M 64.9999,31.8333L 64.9999,30.4999L 65.9999,30.4999L 65.9999,31.8333L 64.9999,31.8333 Z M 64.9999,29.1666L 64.9999,27.8333L 65.9999,27.8333L 65.9999,29.1666L 64.9999,29.1666 Z M 64.9999,26.4999L 64.9999,25.1666L 65.9999,25.1666L 65.9999,26.4999L 64.9999,26.4999 Z M 64.9999,23.8333L 64.9999,22.4999L 65.9999,22.4999L 65.9999,23.8333L 64.9999,23.8333 Z M 64.9999,21.1666L 64.9999,19.8333L 65.9999,19.8333L 65.9999,21.1666L 64.9999,21.1666 Z M 64.9999,18.4999L 64.9999,17.1666L 65.9999,17.1666L 65.9999,18.4999L 64.9999,18.4999 Z M 64.9999,15.8333L 64.9999,14.4999L 65.9999,14.4999L 65.9999,15.8333L 64.9999,15.8333 Z M 64.9999,13.1666L 64.9999,11.8333L 65.9999,11.8333L 65.9999,13.1666L 64.9999,13.1666 Z M 64.9999,10.4999L 64.9999,9.16658L 65.9999,9.16658L 65.9999,10.4999L 64.9999,10.4999 Z M 64.9999,7.83327L 64.9999,6.49989L 65.9999,6.49989L 65.9999,7.83327L 64.9999,7.83327 Z M 64.9999,5.16658L 64.9999,3.83327L 65.9999,3.83327L 65.9999,5.16658L 64.9999,5.16658 Z M 64.9999,2.49989L 64.9999,1.16658L 65.9999,1.16658L 65.9999,2.49989L 64.9999,2.49989 Z M 65.4999,1.00002L 64.1666,1.00002L 64.1666,1.52588e-005L 65.4999,1.52588e-005L 65.4999,1.00002 Z "/>
			<rect x="6.5" y="83.5" fill="#FFFFFF" fill-opacity="1" stroke-linejoin="round" stroke="#CBCBCB" stroke-opacity="1" width="32" height="82"/>
			<path fill="#CBCBCB" fill-opacity="1" stroke-linejoin="round" d="M 9.16666,82.9999L 10.5,82.9999L 10.5,83.9999L 9.16666,83.9999L 9.16666,82.9999 Z M 11.8333,82.9999L 13.1667,82.9999L 13.1667,83.9999L 11.8333,83.9999L 11.8333,82.9999 Z M 14.5,82.9999L 15.8333,82.9999L 15.8333,83.9999L 14.5,83.9999L 14.5,82.9999 Z M 17.1667,82.9999L 18.5,82.9999L 18.5,83.9999L 17.1667,83.9999L 17.1667,82.9999 Z M 19.8333,82.9999L 21.1667,82.9999L 21.1667,83.9999L 19.8333,83.9999L 19.8333,82.9999 Z M 22.5,82.9999L 23.8333,82.9999L 23.8333,83.9999L 22.5,83.9999L 22.5,82.9999 Z M 25.1667,82.9999L 26.5,82.9999L 26.5,83.9999L 25.1667,83.9999L 25.1667,82.9999 Z M 27.8333,82.9999L 29.1667,82.9999L 29.1667,83.9999L 27.8333,83.9999L 27.8333,82.9999 Z M 30.5,82.9999L 31.8333,82.9999L 31.8333,83.9999L 30.5,83.9999L 30.5,82.9999 Z M 33.1667,82.9999L 34.5,82.9999L 34.5,83.9999L 33.1667,83.9999L 33.1667,82.9999 Z M 35.8333,82.9999L 37.1667,82.9999L 37.1667,83.9999L 35.8333,83.9999L 35.8333,82.9999 Z M 38.5,82.9999L 38.5979,83.0083L 38.6919,83.0365L 38.7784,83.0831L 38.8535,83.1464L 38.9168,83.2215L 38.9634,83.308L 38.9916,83.4021L 39,83.4999L 39,84.8333L 38,84.8333L 38,83.4999L 38.5,83.9999L 38.5,82.9999 Z M 39,86.1666L 39,87.4999L 38,87.4999L 38,86.1666L 39,86.1666 Z M 39,88.8333L 39,90.1666L 38,90.1666L 38,88.8333L 39,88.8333 Z M 39,91.4999L 39,92.8333L 38,92.8333L 38,91.4999L 39,91.4999 Z M 39,94.1666L 39,95.4999L 38,95.4999L 38,94.1666L 39,94.1666 Z M 39,96.8332L 39,98.1666L 38,98.1666L 38,96.8332L 39,96.8332 Z M 39,99.4999L 39,100.833L 38,100.833L 38,99.4999L 39,99.4999 Z M 39,102.167L 39,103.5L 38,103.5L 38,102.167L 39,102.167 Z M 39,104.833L 39,106.167L 38,106.167L 38,104.833L 39,104.833 Z M 39,107.5L 39,108.833L 38,108.833L 38,107.5L 39,107.5 Z M 39,110.167L 39,111.5L 38,111.5L 38,110.167L 39,110.167 Z M 39,112.833L 39,114.167L 38,114.167L 38,112.833L 39,112.833 Z M 39,115.5L 39,116.833L 38,116.833L 38,115.5L 39,115.5 Z M 39,118.167L 39,119.5L 38,119.5L 38,118.167L 39,118.167 Z M 39,120.833L 39,122.167L 38,122.167L 38,120.833L 39,120.833 Z M 39,123.5L 39,124.833L 38,124.833L 38,123.5L 39,123.5 Z M 39,126.167L 39,127.5L 38,127.5L 38,126.167L 39,126.167 Z M 39,128.833L 39,130.167L 38,130.167L 38,128.833L 39,128.833 Z M 39,131.5L 39,132.833L 38,132.833L 38,131.5L 39,131.5 Z M 39,134.167L 39,135.5L 38,135.5L 38,134.167L 39,134.167 Z M 39,136.833L 39,138.167L 38,138.167L 38,136.833L 39,136.833 Z M 39,139.5L 39,140.833L 38,140.833L 38,139.5L 39,139.5 Z M 39,142.167L 39,143.5L 38,143.5L 38,142.167L 39,142.167 Z M 39,144.833L 39,146.167L 38,146.167L 38,144.833L 39,144.833 Z M 39,147.5L 39,148.833L 38,148.833L 38,147.5L 39,147.5 Z M 39,150.167L 39,151.5L 38,151.5L 38,150.167L 39,150.167 Z M 39,152.833L 39,154.167L 38,154.167L 38,152.833L 39,152.833 Z M 39,155.5L 39,156.833L 38,156.833L 38,155.5L 39,155.5 Z M 39,158.167L 39,159.5L 38,159.5L 38,158.167L 39,158.167 Z M 39,160.833L 39,162.167L 38,162.167L 38,160.833L 39,160.833 Z M 39,163.5L 39,164.833L 38,164.833L 38,163.5L 39,163.5 Z M 37.8334,166L 36.5001,166L 36.5001,165L 37.8334,165L 37.8334,166 Z M 35.1667,166L 33.8334,166L 33.8334,165L 35.1667,165L 35.1667,166 Z M 32.5001,166L 31.1667,166L 31.1667,165L 32.5001,165L 32.5001,166 Z M 29.8334,166L 28.5001,166L 28.5001,165L 29.8334,165L 29.8334,166 Z M 27.1667,166L 25.8334,166L 25.8334,165L 27.1667,165L 27.1667,166 Z M 24.5001,166L 23.1667,166L 23.1667,165L 24.5001,165L 24.5001,166 Z M 21.8334,166L 20.5001,166L 20.5001,165L 21.8334,165L 21.8334,166 Z M 19.1667,166L 17.8334,166L 17.8334,165L 19.1667,165L 19.1667,166 Z M 16.5001,166L 15.1667,166L 15.1667,165L 16.5001,165L 16.5001,166 Z M 13.8334,166L 12.5001,166L 12.5001,165L 13.8334,165L 13.8334,166 Z M 11.1667,166L 9.8334,166L 9.8334,165L 11.1667,165L 11.1667,166 Z M 8.50009,166L 7.16675,166L 7.16675,165L 8.50009,165L 8.50009,166 Z M 6,164.833L 6,163.5L 7,163.5L 7,164.833L 6,164.833 Z M 6,162.167L 6,160.833L 7,160.833L 7,162.167L 6,162.167 Z M 6,159.5L 6,158.167L 7,158.167L 7,159.5L 6,159.5 Z M 6,156.833L 6,155.5L 7,155.5L 7,156.833L 6,156.833 Z M 6,154.167L 6,152.833L 7,152.833L 7,154.167L 6,154.167 Z M 6,151.5L 6,150.167L 7,150.167L 7,151.5L 6,151.5 Z M 6,148.833L 6,147.5L 7,147.5L 7,148.833L 6,148.833 Z M 6,146.167L 6,144.833L 7,144.833L 7,146.167L 6,146.167 Z M 6,143.5L 6,142.167L 7,142.167L 7,143.5L 6,143.5 Z M 6,140.833L 6,139.5L 7,139.5L 7,140.833L 6,140.833 Z M 6,138.167L 6,136.833L 7,136.833L 7,138.167L 6,138.167 Z M 6,135.5L 6,134.167L 7,134.167L 7,135.5L 6,135.5 Z M 6,132.833L 6,131.5L 7,131.5L 7,132.833L 6,132.833 Z M 6,130.167L 6,128.833L 7,128.833L 7,130.167L 6,130.167 Z M 6,127.5L 6,126.167L 7,126.167L 7,127.5L 6,127.5 Z M 6,124.833L 6,123.5L 7,123.5L 7,124.833L 6,124.833 Z M 6,122.167L 6,120.833L 7,120.833L 7,122.167L 6,122.167 Z M 6,119.5L 6,118.167L 7,118.167L 7,119.5L 6,119.5 Z M 6,116.833L 6,115.5L 7,115.5L 7,116.833L 6,116.833 Z M 6,114.167L 6,112.833L 7,112.833L 7,114.167L 6,114.167 Z M 6,111.5L 6,110.167L 7,110.167L 7,111.5L 6,111.5 Z M 6,108.833L 6,107.5L 7,107.5L 7,108.833L 6,108.833 Z M 6,106.167L 6,104.833L 7,104.833L 7,106.167L 6,106.167 Z M 6,103.5L 6,102.167L 7,102.167L 7,103.5L 6,103.5 Z M 6,100.833L 6,99.5001L 7,99.5001L 7,100.833L 6,100.833 Z M 6,98.1667L 6,96.8334L 7,96.8334L 7,98.1667L 6,98.1667 Z M 6,95.5001L 6,94.1668L 7,94.1668L 7,95.5001L 6,95.5001 Z M 6,92.8334L 6,91.5001L 7,91.5001L 7,92.8334L 6,92.8334 Z M 6,90.1668L 6,88.8334L 7,88.8334L 7,90.1668L 6,90.1668 Z M 6,87.5001L 6,86.1668L 7,86.1668L 7,87.5001L 6,87.5001 Z M 6,84.8334L 6,83.5001L 7,83.5001L 7,84.8334L 6,84.8334 Z M 6.5,82.9999L 7.83334,82.9999L 7.83334,83.9999L 6.5,83.9999L 6.5,82.9999 Z "/>
		</g>
		<path fill="#545454" fill-opacity="1" stroke-width="0.2" stroke-linejoin="round" d="M 83.4934,53.5807L 95.4866,53.5001L 95.5,55.5L 83.5068,55.5807L 83.4934,53.5807 Z "/>
		<path fill="#545454" fill-opacity="1" stroke-width="0.2" stroke-linejoin="round" d="M 35.5,53.5001L 47.4933,53.4194L 47.5067,55.4194L 35.5135,55.5001L 35.5,53.5001 Z "/>
		<g>
			<ellipse fill="#F8F8F8" fill-opacity="1" stroke-width="0.2" stroke-linejoin="round" cx="22.5" cy="121.5" rx="7.99998" ry="8"/>
			<path fill="#545454" fill-opacity="1" stroke-width="0.2" stroke-linejoin="round" d="M 22.1619,117.78L 18.7798,117.78L 18.7798,125.22L 21.4854,125.22L 24.1911,125.22L 26.2204,125.22L 26.2204,121.838L 24.1911,121.838L 24.1911,119.809L 22.1619,119.809L 22.1619,117.78 Z M 19.4562,124.544L 19.4562,118.456L 21.4855,118.456L 21.4855,120.486L 23.5148,120.486L 23.5147,122.515L 25.544,122.515L 25.544,124.544L 23.5148,124.544L 21.4855,124.544L 19.4562,124.544 Z "/>
		</g>
		<g>
			<ellipse fill="#F8F8F8" fill-opacity="1" stroke-width="0.2" stroke-linejoin="round" cx="48.03" cy="25.4" rx="9" ry="9"/>
			<g>
				<path fill="#000000" fill-opacity="1" stroke-width="0.2" stroke-linejoin="round" d="M 49.02,23.3001L 47.8313,27.5001L 47.2547,27.5001L 46.3894,24.4307C 46.3525,24.3001 46.3303,24.1576 46.3228,24.0032L 46.3106,24.0032C 46.2987,24.1476 46.2734,24.2882 46.2347,24.4251L 45.3628,27.5001L 44.7919,27.5001L 43.56,23.3001L 44.1028,23.3001L 44.9972,26.5213C 45.0341,26.6563 45.0575,26.797 45.0675,26.9432L 45.0825,26.9432C 45.0919,26.8394 45.1222,26.6988 45.1734,26.5213L 46.1025,23.3001L 46.5741,23.3001L 47.4656,26.5448C 47.4969,26.656 47.5203,26.7869 47.5359,26.9376L 47.5481,26.9376C 47.5556,26.8363 47.5819,26.7017 47.6269,26.5335L 48.4865,23.3001L 49.02,23.3001 Z "/>
				<path fill="#000000" fill-opacity="1" stroke-width="0.2" stroke-linejoin="round" d="M 52.5,27.3173C 52.1906,27.4791 51.8056,27.5601 51.345,27.5601C 50.7506,27.5601 50.2745,27.3687 49.9167,26.9859C 49.5589,26.603 49.38,26.1007 49.38,25.4788C 49.38,24.8101 49.5813,24.2698 49.9837,23.8579C 50.3863,23.446 50.8966,23.2401 51.5147,23.2401C 51.9109,23.2401 52.2394,23.2854 52.5,23.376L 52.5,23.9C 52.2038,23.7401 51.8766,23.66 51.5184,23.66C 51.0434,23.66 50.6583,23.8224 50.363,24.1471C 50.0677,24.4718 49.92,24.9057 49.92,25.4488C 49.92,25.9644 50.058,26.3753 50.3339,26.6812C 50.6098,26.9871 50.9722,27.1401 51.4209,27.1401C 51.8366,27.1401 52.1963,27.0401 52.5,26.8401L 52.5,27.3173 Z "/>
			</g>
		</g>
		<g>
			<ellipse fill="#F8F8F8" fill-opacity="1" stroke-width="0.2" stroke-linejoin="round" cx="83.5" cy="26.5" rx="9" ry="9"/>
			<g>
				<path fill="#000000" fill-opacity="1" stroke-width="0.2" stroke-linejoin="round" d="M 84.49,24.4L 83.3013,28.6001L 82.7247,28.6001L 81.8594,25.5307C 81.8225,25.4 81.8003,25.2576 81.7928,25.1032L 81.7806,25.1032C 81.7688,25.2476 81.7434,25.3882 81.7047,25.525L 80.8328,28.6001L 80.2619,28.6001L 79.03,24.4L 79.5728,24.4L 80.4672,27.6213C 80.5041,27.7563 80.5275,27.8969 80.5375,28.0432L 80.5525,28.0432C 80.5619,27.9394 80.5922,27.7988 80.6434,27.6213L 81.5725,24.4L 82.0441,24.4L 82.9356,27.6447C 82.9669,27.756 82.9903,27.8869 83.006,28.0376L 83.0182,28.0376C 83.0256,27.9363 83.0519,27.8017 83.0969,27.6335L 83.9566,24.4L 84.49,24.4 Z "/>
				<path fill="#000000" fill-opacity="1" stroke-width="0.2" stroke-linejoin="round" d="M 87.97,28.4173C 87.6606,28.5791 87.2756,28.66 86.815,28.66C 86.2206,28.66 85.7445,28.4686 85.3867,28.0858C 85.0289,27.703 84.85,27.2007 84.85,26.5788C 84.85,25.91 85.0512,25.3698 85.4537,24.9579C 85.8562,24.546 86.3665,24.34 86.9847,24.34C 87.381,24.34 87.7094,24.3854 87.97,24.476L 87.97,25C 87.6737,24.84 87.3466,24.76 86.9884,24.76C 86.5134,24.76 86.1283,24.9224 85.833,25.2471C 85.5376,25.5718 85.39,26.0057 85.39,26.5488C 85.39,27.0644 85.528,27.4752 85.8039,27.7811C 86.0798,28.0871 86.4422,28.2401 86.891,28.2401C 87.3065,28.2401 87.6663,28.14 87.97,27.9401L 87.97,28.4173 Z "/>
			</g>
		</g>
	</g>
</svg>
