<?xml version="1.0" encoding="utf-8"?>
<!DOCTYPE svg PUBLIC "-//W3C//DTD SVG 1.1//EN" "http://www.w3.org/Graphics/SVG/1.1/DTD/svg11.dtd">
<svg xmlns="http://www.w3.org/2000/svg" xmlns:xlink="http://www.w3.org/1999/xlink" version="1.1" baseProfile="full" width="225.277" height="153.676" viewBox="0 0 225.28 153.68" enable-background="new 0 0 225.28 153.68" xml:space="preserve">
	<g>
		<path fill="#2D2C2C" fill-opacity="1" stroke-linejoin="round" d="M 11.7471,115.197L 0.152298,153.047L 9.27629,153.047L 11.3695,145.994L 22.68,145.994L 24.7163,153.047L 34.638,153.047L 23.0435,115.197L 11.7471,115.197 Z M 13.6603,138.38L 17.1048,126.609L 20.5104,138.38L 13.6603,138.38 Z "/>
		<path fill="#2D2C2C" fill-opacity="1" stroke-linejoin="round" d="M 56.4378,135.778C 56.301,135.633 56.1611,135.494 56.0194,135.364C 56.3045,135.256 56.5827,135.143 56.8548,135.016C 57.9592,134.509 58.9266,133.83 59.7303,133.001C 60.5428,132.166 61.1817,131.159 61.628,130.007C 62.0697,128.87 62.2944,127.563 62.2944,126.126C 62.2944,124.145 61.9364,122.431 61.2334,121.031C 60.5221,119.615 59.4929,118.449 58.1758,117.565C 56.8971,116.708 55.3427,116.088 53.5537,115.725C 51.8343,115.377 49.898,115.198 47.7999,115.198L 35.964,115.198L 35.964,153.047L 45.041,153.047L 45.041,138.258L 45.3107,138.258C 46.3037,138.258 47.1315,138.477 47.8406,138.928C 48.5448,139.373 49.0847,140.032 49.4933,140.943L 54.9795,153.047L 65.5409,153.047L 58.8754,139.545C 58.0675,137.906 57.2705,136.675 56.4378,135.778 Z M 52.49,128.518C 52.2277,129.018 51.8637,129.429 51.3767,129.771C 50.8633,130.131 50.2267,130.409 49.4809,130.594C 48.6944,130.791 47.7957,130.89 46.8099,130.89L 45.041,130.89L 45.041,122.922L 47.0355,122.922C 49.1136,122.922 50.6577,123.248 51.6253,123.892C 52.4682,124.452 52.878,125.399 52.878,126.783C 52.878,127.453 52.7505,128.021 52.49,128.518 Z "/>
		<path fill="#2D2C2C" fill-opacity="1" stroke-linejoin="round" d="M 92.1351,119.692C 90.6068,118.156 88.6791,117.006 86.4061,116.276C 84.1902,115.561 81.5829,115.197 78.6558,115.197L 66.651,115.197L 66.651,153.047L 77.101,153.047C 80.4732,153.047 83.4232,152.588 85.8671,151.682C 88.3497,150.764 90.4232,149.432 92.0284,147.723C 93.6306,146.018 94.8254,143.934 95.576,141.533C 96.3128,139.18 96.6853,136.536 96.6853,133.672C 96.6853,130.548 96.3116,127.809 95.5734,125.528C 94.8195,123.193 93.6632,121.229 92.1351,119.692 Z M 84.7135,142.694C 83.1373,144.446 80.8512,145.296 77.7236,145.296L 75.7268,145.296L 75.7268,122.948L 78.2033,122.948C 79.9532,122.948 81.4224,123.196 82.5683,123.684C 83.6799,124.157 84.539,124.825 85.1967,125.725C 85.8679,126.646 86.3549,127.804 86.643,129.162C 86.9461,130.599 87.1002,132.262 87.1002,134.109C 87.1006,138.047 86.2978,140.936 84.7135,142.694 Z "/>
		<path fill="#2D2C2C" fill-opacity="1" stroke-linejoin="round" d="M 118.551,139.276C 118.551,140.58 118.432,141.693 118.192,142.582C 117.97,143.411 117.642,144.088 117.215,144.595C 116.807,145.083 116.307,145.426 115.691,145.646C 115.019,145.886 114.159,146.007 113.135,146.007C 112.05,146.007 111.156,145.869 110.476,145.594C 109.824,145.328 109.299,144.951 108.871,144.437C 108.442,143.92 108.134,143.272 107.957,142.507C 107.759,141.662 107.659,140.668 107.659,139.55L 107.659,115.199L 98.5831,115.199L 98.5831,139.96C 98.5831,142.007 98.8367,143.884 99.3351,145.542C 99.8536,147.263 100.709,148.752 101.878,149.963C 103.046,151.173 104.577,152.109 106.425,152.743C 108.222,153.363 110.394,153.676 112.88,153.676C 115.101,153.676 117.139,153.362 118.936,152.743C 120.774,152.113 122.359,151.159 123.645,149.904C 124.933,148.647 125.932,147.065 126.616,145.203C 127.286,143.375 127.627,141.233 127.627,138.838L 127.627,115.198L 118.55,115.198L 118.551,139.276 Z "/>
		<path fill="#2D2C2C" fill-opacity="1" stroke-linejoin="round" d="M 132.27,122.812L 140.414,122.812L 140.414,145.378L 132.27,145.378L 132.27,153.047L 157.75,153.047L 157.75,145.378L 149.605,145.378L 149.605,122.812L 157.75,122.812L 157.75,115.197L 132.27,115.197L 132.27,122.812 Z "/>
		<path fill="#2D2C2C" fill-opacity="1" stroke-linejoin="round" d="M 183.008,136.764L 172.862,115.197L 162.588,115.197L 162.588,153.047L 171.043,153.047L 171.043,131.07L 181.244,153.047L 191.465,153.047L 191.465,115.197L 183.009,115.197L 183.009,136.764"/>
		<path fill="#2D2C2C" fill-opacity="1" stroke-linejoin="round" d="M 220.849,119.676C 218.2,116.305 214.226,114.597 209.043,114.597C 206.825,114.597 204.711,114.99 202.756,115.765C 200.775,116.55 199.024,117.773 197.552,119.402C 196.092,121.017 194.934,123.094 194.108,125.574C 193.294,128.022 192.88,130.957 192.88,134.3C 192.88,140.475 194.193,145.28 196.784,148.582C 199.435,151.962 203.408,153.675 208.59,153.675C 210.808,153.675 212.925,153.282 214.879,152.507C 216.862,151.721 218.611,150.497 220.082,148.872C 221.539,147.257 222.699,145.181 223.525,142.7C 224.34,140.251 224.753,137.316 224.753,133.972C 224.753,127.779 223.439,122.969 220.849,119.676 Z M 214.876,139.341C 214.615,140.74 214.21,141.916 213.67,142.843C 213.159,143.726 212.524,144.372 211.733,144.819C 210.946,145.263 209.964,145.488 208.817,145.488C 206.548,145.488 204.967,144.645 203.983,142.908C 202.901,141 202.353,137.995 202.353,133.972C 202.353,132.083 202.49,130.386 202.761,128.931C 203.019,127.537 203.428,126.362 203.975,125.435C 204.496,124.548 205.132,123.9 205.92,123.452C 206.696,123.01 207.671,122.785 208.818,122.785C 211.104,122.785 212.69,123.628 213.664,125.361C 214.738,127.269 215.282,130.278 215.282,134.301C 215.281,136.194 215.144,137.891 214.876,139.341 Z "/>
		<path fill="#2D2C2C" fill-opacity="1" stroke-linejoin="round" d="M 211.64,5.07092L 213.251,5.07092L 213.251,9.30457L 214.393,9.30457L 214.393,5.07092L 216.017,5.07092L 216.017,4.01917L 211.64,4.01917L 211.64,5.07092"/>
		<path fill="#2D2C2C" fill-opacity="1" stroke-linejoin="round" d="M 219.991,4.01917L 218.89,7.62122L 217.75,4.01917L 216.26,4.01917L 216.26,9.30457L 217.334,9.30457L 217.334,5.92786L 218.399,9.30457L 219.38,9.30457L 220.392,6.01563L 220.392,9.30457L 221.46,9.30457L 221.46,4.0188L 219.991,4.01917 Z "/>
		<path fill="#CDD520" fill-opacity="1" stroke-linejoin="round" d="M 167.434,106.3C 153.044,106.3 140.741,101.448 129.914,91.5236C 123.226,85.3962 117.712,77.8879 112.638,70.0808C 107.565,77.8879 102.051,85.3962 95.3625,91.5236C 83.7284,102.186 70.3905,106.994 54.5932,106.219C 24.4686,106.089 0,82.3141 0,53.1099C 0,23.825 24.6025,-0.00012207 54.8434,-0.00012207C 71.3915,-0.00012207 85.324,5.47717 97.4331,16.7415C 103.25,22.1528 108.16,28.4292 112.638,34.9967C 117.117,28.4292 122.028,22.1528 127.844,16.7415C 139.953,5.47717 153.886,-0.00012207 170.434,-0.00012207C 200.674,-0.00012207 225.277,23.825 225.277,53.1099C 225.277,82.3132 200.809,106.088 170.682,106.219C 169.589,106.273 168.504,106.3 167.434,106.3 Z M 123.657,52.4016C 129.658,62.1392 135.483,71.2037 142.579,77.7047C 150.588,85.0443 159.03,88.0643 169.943,87.4882L 170.434,87.4741C 190.338,87.4741 206.532,72.059 206.532,53.1095C 206.532,34.1609 190.338,18.7434 170.434,18.7434C 158.684,18.7434 149.207,22.4681 140.612,30.4636C 134.192,36.4376 128.892,44.0901 123.657,52.4016 Z M 54.8438,18.7445C 34.9389,18.7445 18.7451,34.1613 18.7451,53.1106C 18.7451,72.0603 34.9389,87.4756 54.8438,87.4756L 55.3353,87.4893C 66.2493,88.0654 74.6898,85.0458 82.6988,77.7062C 89.7946,71.205 95.6208,62.1403 101.622,52.4027C 96.3868,44.092 91.0862,36.439 84.6668,30.4658C 76.0702,22.4686 66.5939,18.7445 54.8438,18.7445 Z "/>
		<path fill="#2D2C2C" fill-opacity="1" stroke-linejoin="round" d="M 172.913,46.2979L 172.913,36.1324L 162.334,36.1324L 162.334,46.2979L 152.17,46.2979L 152.17,56.8264L 162.334,56.8264L 162.334,67.0652L 172.913,67.0652L 172.913,56.8264L 183.077,56.8264L 183.077,46.2979L 172.913,46.2979 Z "/>
		<rect x="39.6239" y="46.1711" fill="#2D2C2C" fill-opacity="1" stroke-linejoin="round" width="33.4084" height="10.858"/>
	</g>
</svg>
