<?xml version="1.0" encoding="utf-8"?>
<!DOCTYPE svg PUBLIC "-//W3C//DTD SVG 1.1//EN" "http://www.w3.org/Graphics/SVG/1.1/DTD/svg11.dtd">
<svg xmlns="http://www.w3.org/2000/svg" xmlns:xlink="http://www.w3.org/1999/xlink" version="1.1" baseProfile="full" width="481.474" height="741.852" viewBox="0 0 481.47 741.85" enable-background="new 0 0 481.47 741.85" xml:space="preserve">
	<g>
		<g>
			<path fill="#CDD520" fill-opacity="1" stroke-width="0.2" stroke-linejoin="round" d="M 316.495,390.101C 296.012,390.101 279.392,373.482 279.392,352.998C 279.392,332.506 296.012,315.894 316.495,315.894C 336.98,315.894 353.6,332.506 353.6,352.998C 353.6,373.482 336.98,390.101 316.495,390.101 Z M 382.457,361.242L 382.457,344.752L 369.397,344.752C 368.801,340.912 367.817,337.208 366.45,333.681L 377.738,327.159L 369.493,312.875L 358.22,319.389C 355.804,316.409 353.1,313.688 350.104,311.28L 356.625,300L 342.342,291.755L 335.82,303.053C 332.293,301.683 328.589,300.693 324.739,300.105L 324.739,287.036L 308.251,287.036L 308.251,300.105C 304.418,300.693 300.714,301.691 297.187,303.053L 290.666,291.756L 276.381,300L 282.886,311.28C 279.907,313.689 277.186,316.41 274.786,319.389L 263.498,312.876L 255.252,327.15L 266.557,333.681C 265.188,337.208 264.198,340.912 263.612,344.752L 250.534,344.752L 250.534,361.242L 263.612,361.242C 264.198,365.083 265.188,368.787 266.557,372.314L 255.252,378.836L 263.498,393.12L 274.786,386.606C 277.186,389.585 279.907,392.305 282.888,394.715L 276.381,405.996L 290.666,414.239L 297.187,402.942C 300.714,404.311 304.418,405.293 308.252,405.892L 308.252,418.958L 324.739,418.958L 324.739,405.892C 328.589,405.293 332.293,404.311 335.821,402.942L 342.342,414.239L 356.625,405.996L 350.104,394.715C 353.101,392.305 355.805,389.585 358.22,386.599L 369.494,393.113L 377.738,378.836L 366.45,372.314C 367.819,368.787 368.801,365.083 369.398,361.242L 382.457,361.242 Z "/>
			<path fill="#CDD520" fill-opacity="1" stroke-width="0.2" stroke-linejoin="round" d="M 215.957,541.333C 210.381,541.333 205.859,536.809 205.859,531.235C 205.859,525.657 210.381,521.136 215.957,521.136C 221.532,521.136 226.056,525.657 226.056,531.235C 226.056,536.809 221.532,541.333 215.957,541.333 Z M 233.909,533.478L 233.909,528.99L 230.356,528.99C 230.193,527.945 229.926,526.937 229.553,525.977L 232.626,524.202L 230.381,520.315L 227.313,522.088C 226.655,521.276 225.919,520.536 225.104,519.881L 226.879,516.811L 222.991,514.566L 221.216,517.641C 220.257,517.268 219.248,516.998 218.2,516.838L 218.2,513.283L 213.712,513.283L 213.712,516.838C 212.669,516.998 211.661,517.27 210.702,517.641L 208.926,514.567L 205.039,516.811L 206.809,519.881C 205.999,520.536 205.259,521.276 204.604,522.088L 201.532,520.315L 199.289,524.199L 202.365,525.977C 201.992,526.937 201.722,527.945 201.563,528.99L 198.004,528.99L 198.004,533.478L 201.563,533.478C 201.722,534.524 201.992,535.532 202.365,536.492L 199.289,538.267L 201.532,542.154L 204.604,540.381C 205.259,541.193 205.999,541.933 206.809,542.589L 205.039,545.659L 208.926,547.903L 210.702,544.827C 211.661,545.201 212.669,545.467 213.712,545.631L 213.712,549.186L 218.2,549.186L 218.2,545.631C 219.248,545.467 220.257,545.201 221.216,544.827L 222.991,547.903L 226.879,545.659L 225.104,542.589C 225.919,541.933 226.655,541.193 227.313,540.38L 230.381,542.153L 232.626,538.267L 229.553,536.492C 229.926,535.532 230.193,534.524 230.356,533.478L 233.909,533.478 Z "/>
			<path fill="#CDD520" fill-opacity="1" stroke-width="0.2" stroke-linejoin="round" d="M 398.092,396.957C 393.077,396.957 389.009,392.888 389.009,387.872C 389.009,382.856 393.077,378.789 398.092,378.789C 403.108,378.789 407.176,382.856 407.176,387.872C 407.176,392.888 403.108,396.957 398.092,396.957 Z M 414.243,389.892L 414.243,385.854L 411.044,385.854C 410.898,384.914 410.658,384.007 410.323,383.143L 413.087,381.546L 411.068,378.049L 408.309,379.645C 407.718,378.914 407.054,378.249 406.321,377.66L 407.918,374.898L 404.421,372.878L 402.822,375.644C 401.96,375.309 401.053,375.066 400.111,374.923L 400.111,371.724L 396.073,371.724L 396.073,374.923C 395.135,375.066 394.229,375.311 393.365,375.644L 391.769,372.879L 388.27,374.898L 389.863,377.66C 389.135,378.249 388.467,378.914 387.88,379.645L 385.116,378.049L 383.097,381.544L 385.866,383.143C 385.531,384.007 385.288,384.914 385.145,385.854L 381.942,385.854L 381.942,389.892L 385.145,389.892C 385.288,390.832 385.531,391.739 385.866,392.603L 383.097,394.2L 385.116,397.697L 387.88,396.101C 388.467,396.832 389.135,397.497 389.863,398.087L 388.27,400.849L 391.769,402.868L 393.365,400.101C 394.229,400.437 395.135,400.677 396.073,400.823L 396.073,404.022L 400.111,404.022L 400.111,400.823C 401.053,400.677 401.96,400.437 402.822,400.101L 404.421,402.868L 407.918,400.849L 406.321,398.087C 407.054,397.497 407.718,396.832 408.309,396.1L 411.069,397.696L 413.087,394.2L 410.323,392.603C 410.658,391.739 410.898,390.832 411.044,389.892L 414.243,389.892 Z "/>
			<path fill="#CDD520" fill-opacity="1" stroke-width="0.2" stroke-linejoin="round" d="M 261.318,428.042C 256.303,428.042 252.235,423.973 252.235,418.958C 252.235,413.941 256.303,409.874 261.318,409.874C 266.333,409.874 270.402,413.941 270.402,418.958C 270.402,423.973 266.333,428.042 261.318,428.042 Z M 277.469,420.978L 277.469,416.939L 274.27,416.939C 274.124,415.999 273.884,415.092 273.549,414.228L 276.312,412.631L 274.294,409.134L 271.534,410.73C 270.944,409.999 270.28,409.334 269.546,408.746L 271.143,405.983L 267.646,403.963L 266.048,406.729C 265.186,406.394 264.279,406.152 263.337,406.008L 263.337,402.809L 259.299,402.809L 259.299,406.008C 258.361,406.152 257.455,406.396 256.591,406.729L 254.995,403.964L 251.496,405.983L 253.089,408.746C 252.361,409.334 251.693,409.999 251.106,410.73L 248.342,409.134L 246.323,412.629L 249.092,414.228C 248.757,415.092 248.514,415.999 248.37,416.939L 245.168,416.939L 245.168,420.978L 248.37,420.978C 248.514,421.918 248.757,422.824 249.092,423.688L 246.323,425.285L 248.342,428.782L 251.106,427.186C 251.693,427.917 252.361,428.582 253.089,429.172L 251.496,431.935L 254.995,433.953L 256.591,431.186C 257.455,431.522 258.361,431.762 259.299,431.908L 259.299,435.107L 263.337,435.107L 263.337,431.908C 264.279,431.762 265.186,431.522 266.048,431.186L 267.646,433.953L 271.143,431.935L 269.546,429.172C 270.28,428.582 270.944,427.917 271.534,427.185L 274.295,428.781L 276.312,425.285L 273.549,423.688C 273.884,422.824 274.124,421.918 274.27,420.978L 277.469,420.978 Z "/>
			<path fill="#CDD520" fill-opacity="1" stroke-width="0.2" stroke-linejoin="round" d="M 372.419,96.1718C 361.887,96.1718 353.341,87.6271 353.341,77.0932C 353.341,66.5569 361.887,58.0157 372.419,58.0157C 382.952,58.0157 391.498,66.5569 391.498,77.0932C 391.498,87.6271 382.952,96.1718 372.419,96.1718 Z M 406.335,81.3329L 406.335,72.8546L 399.621,72.8546C 399.314,70.8798 398.808,68.9749 398.104,67.1617L 403.909,63.8084L 399.671,56.4638L 393.873,59.8122C 392.631,58.2805 391.24,56.882 389.7,55.6438L 393.053,49.8428L 385.71,45.6042L 382.355,51.4125C 380.542,50.709 378.637,50.1992 376.657,49.8974L 376.657,43.1779L 368.18,43.1779L 368.18,49.8974C 366.209,50.1992 364.304,50.7126 362.491,51.4125L 359.138,45.6042L 351.793,49.844L 355.138,55.6438C 353.606,56.882 352.207,58.2805 350.973,59.8122L 345.169,56.4638L 340.929,63.8036L 346.743,67.1617C 346.038,68.9749 345.529,70.8798 345.227,72.8546L 338.504,72.8546L 338.504,81.3329L 345.227,81.3329C 345.529,83.3078 346.038,85.2126 346.743,87.0258L 340.929,90.3791L 345.169,97.7249L 350.973,94.3752C 352.207,95.9069 353.606,97.3066 355.138,98.5437L 351.793,104.345L 359.138,108.583L 362.492,102.775C 364.306,103.478 366.209,103.984 368.18,104.291L 368.18,111.01L 376.657,111.01L 376.657,104.291C 378.637,103.984 380.542,103.478 382.355,102.775L 385.71,108.583L 393.053,104.345L 389.701,98.5437C 391.241,97.3066 392.632,95.9069 393.874,94.3704L 399.671,97.7202L 403.909,90.3791L 398.104,87.0258C 398.809,85.2126 399.314,83.3078 399.621,81.3329L 406.335,81.3329 Z "/>
			<path fill="#CDD520" fill-opacity="1" stroke-width="0.2" stroke-linejoin="round" d="M 57.2682,170.563C 67.0345,161.758 82.1432,162.54 90.9483,172.305C 99.7545,182.073 98.9726,197.18 89.2075,205.987C 79.4412,214.792 64.3324,214.01 55.5274,204.242C 46.7224,194.477 47.5031,179.368 57.2682,170.563 Z M 26.0265,152.398C 24.2203,154.769 22.6055,157.248 21.2057,159.801L 9.79838,156.106L 7.65357,155.413L 6.95963,157.556L 1.53998,174.27L 0.842476,176.416L 2.98847,177.111L 14.3827,180.798C 14.012,183.755 13.8587,186.714 13.9264,189.635L 2.20659,192.126L 0,192.595L 0.470551,194.802L 4.13751,211.985L 4.60926,214.188L 6.81348,213.719L 18.5463,211.216C 19.6811,213.919 21.0322,216.555 22.5829,219.085L 13.6567,227.132L 11.9812,228.643L 13.4915,230.317L 25.2553,243.365L 26.7656,245.04L 28.441,243.529L 37.3672,235.48C 39.7057,237.265 42.1821,238.875 44.7653,240.293L 41.0639,251.707L 40.3688,253.851L 42.5124,254.547L 59.2265,259.967L 61.3713,260.661L 62.0664,258.518L 65.7655,247.127C 68.6957,247.494 71.6521,247.646 74.593,247.578L 77.0943,259.303L 77.5661,261.506L 79.7691,261.038L 96.9478,257.375L 99.152,256.906L 98.6827,254.701L 96.1802,242.955C 98.8823,241.819 101.514,240.471 104.042,238.925L 112.096,247.856L 113.605,249.53L 115.28,248.021L 128.329,236.256L 130.002,234.748L 128.491,233.073L 120.439,224.141C 122.236,221.787 123.851,219.307 125.257,216.737L 136.675,220.443L 138.82,221.139L 139.516,218.995L 144.937,202.279L 145.631,200.134L 143.488,199.438L 132.085,195.74C 132.455,192.821 132.61,189.867 132.546,186.915L 144.26,184.41L 146.463,183.94L 145.992,181.736L 142.326,164.551L 141.857,162.347L 139.653,162.817L 127.917,165.318C 126.79,162.638 125.442,160.009 123.89,157.466L 132.818,149.416L 134.493,147.906L 132.984,146.231L 121.219,133.183L 119.71,131.509L 118.035,133.019L 109.107,141.07C 106.733,139.259 104.254,137.643 101.7,136.243L 105.399,124.828L 106.094,122.685L 103.95,121.99L 87.2349,116.57L 85.0901,115.874L 84.395,118.02L 80.7079,129.42C 77.8061,129.051 74.8449,128.899 71.8672,128.966L 69.373,117.254L 68.9036,115.048L 66.6983,115.518L 49.5196,119.178L 47.3141,119.649L 47.7847,121.853L 50.2824,133.581C 47.5993,134.709 44.9673,136.06 42.4221,137.613L 34.3799,128.693L 32.8708,127.018L 31.1966,128.529L 18.1483,140.292L 16.4728,141.803L 17.9831,143.478L 26.0265,152.398 Z "/>
			<path fill="#CDD520" fill-opacity="1" stroke-width="0.2" stroke-linejoin="round" d="M 344.877,130.498C 348.305,127.407 353.609,127.682 356.699,131.11C 359.789,134.538 359.516,139.842 356.089,142.932C 352.66,146.024 347.355,145.748 344.265,142.321C 341.174,138.893 341.447,133.59 344.877,130.498 Z M 333.91,124.122C 333.274,124.954 332.709,125.824 332.217,126.72L 328.214,125.423L 327.46,125.179L 327.215,125.932L 325.313,131.799L 325.068,132.552L 325.822,132.796L 329.821,134.09C 329.693,135.129 329.638,136.167 329.662,137.193L 325.548,138.068L 324.774,138.231L 324.939,139.007L 326.226,145.039L 326.391,145.812L 327.166,145.647L 331.284,144.769C 331.682,145.718 332.156,146.643 332.701,147.531L 329.567,150.356L 328.979,150.886L 329.509,151.473L 333.638,156.054L 334.168,156.642L 334.755,156.111L 337.89,153.286C 338.712,153.913 339.579,154.478 340.487,154.975L 339.188,158.982L 338.944,159.734L 339.697,159.98L 345.563,161.882L 346.316,162.126L 346.56,161.373L 347.86,157.374C 348.888,157.504 349.926,157.556 350.957,157.533L 351.835,161.648L 352.001,162.422L 352.775,162.258L 358.805,160.972L 359.579,160.807L 359.414,160.033L 358.536,155.91C 359.485,155.511 360.407,155.038 361.296,154.495L 364.122,157.631L 364.652,158.218L 365.241,157.689L 369.821,153.559L 370.408,153.029L 369.878,152.44L 367.051,149.306C 367.682,148.479 368.25,147.609 368.743,146.707L 372.751,148.007L 373.504,148.252L 373.748,147.498L 375.65,141.632L 375.895,140.879L 375.143,140.634L 371.14,139.336C 371.27,138.312 371.325,137.275 371.3,136.238L 375.412,135.358L 376.187,135.194L 376.021,134.419L 374.734,128.388L 374.568,127.613L 373.796,127.778L 369.677,128.657C 369.281,127.716 368.808,126.793 368.263,125.901L 371.396,123.074L 371.984,122.545L 371.454,121.957L 367.325,117.376L 366.795,116.789L 366.207,117.319L 363.074,120.145C 362.239,119.509 361.37,118.942 360.474,118.45L 361.772,114.443L 362.016,113.69L 361.263,113.446L 355.395,111.544L 354.642,111.301L 354.399,112.054L 353.104,116.056C 352.085,115.926 351.046,115.872 350,115.895L 349.125,111.784L 348.962,111.011L 348.186,111.176L 342.157,112.46L 341.383,112.625L 341.547,113.399L 342.425,117.516C 341.483,117.912 340.558,118.386 339.664,118.931L 336.842,115.8L 336.312,115.212L 335.723,115.743L 331.143,119.873L 330.556,120.401L 331.086,120.991L 333.91,124.122 Z "/>
			<path fill="#CDD520" fill-opacity="1" stroke-width="0.2" stroke-linejoin="round" d="M 146.061,15.2657C 148.745,12.844 152.9,13.0603 155.321,15.7446C 157.741,18.4301 157.527,22.5854 154.843,25.0059C 152.156,27.4263 148.002,27.2113 145.582,24.5258C 143.16,21.8415 143.374,17.6874 146.061,15.2657 Z M 137.471,10.2715C 136.973,10.9226 136.529,11.6046 136.143,12.3069L 133.007,11.2898L 132.418,11.0996L 132.226,11.689L 130.737,16.2852L 130.544,16.8745L 131.134,17.0659L 134.267,18.0796C 134.166,18.8922 134.124,19.7062 134.143,20.5095L 130.921,21.1951L 130.314,21.3235L 130.442,21.9306L 131.451,26.6552L 131.58,27.2612L 132.186,27.1316L 135.413,26.4438C 135.724,27.1875 136.096,27.9123 136.522,28.6075L 134.069,30.82L 133.608,31.2359L 134.023,31.6958L 137.257,35.2843L 137.673,35.7442L 138.132,35.3283L 140.587,33.1158C 141.231,33.6065 141.911,34.0498 142.622,34.4383L 141.605,37.5777L 141.412,38.167L 142.003,38.3595L 146.599,39.8484L 147.187,40.0398L 147.379,39.4504L 148.397,36.3181C 149.202,36.4191 150.015,36.4607 150.823,36.4429L 151.511,39.6667L 151.642,40.2715L 152.248,40.1443L 156.971,39.1366L 157.577,39.0072L 157.448,38.4012L 156.76,35.1714C 157.503,34.8589 158.226,34.4882 158.922,34.0628L 161.136,36.519L 161.549,36.9788L 162.012,36.5641L 165.599,33.3296L 166.059,32.9149L 165.644,32.4539L 163.429,29.9978C 163.924,29.3501 164.369,28.6681 164.754,27.9622L 167.895,28.9806L 168.484,29.1731L 168.675,28.5826L 170.166,23.9863L 170.358,23.3969L 169.767,23.2056L 166.632,22.1884C 166.734,21.3864 166.778,20.5737 166.758,19.762L 169.979,19.0729L 170.586,18.9434L 170.456,18.3374L 169.448,13.6128L 169.318,13.0056L 168.714,13.1352L 165.487,13.8232C 165.176,13.0864 164.805,12.364 164.379,11.664L 166.834,9.45035L 167.295,9.03561L 166.88,8.57571L 163.644,4.98727L 163.23,4.52737L 162.769,4.94211L 160.315,7.15579C 159.661,6.65799 158.979,6.21353 158.278,5.82858L 159.295,2.69034L 159.485,2.09982L 158.896,1.90964L 154.299,0.418365L 153.709,0.22702L 153.519,0.817596L 152.504,3.9523C 151.706,3.85129 150.893,3.8085 150.073,3.82755L 149.388,0.60733L 149.259,0.000152588L 148.653,0.129608L 143.93,1.13614L 143.323,1.26559L 143.452,1.87277L 144.139,5.09659C 143.401,5.40671 142.678,5.77859 141.976,6.20523L 139.766,3.75266L 139.352,3.29166L 138.891,3.70749L 135.302,6.94315L 134.843,7.3566L 135.257,7.81766L 137.471,10.2715 Z "/>
			<path fill="#CDD520" fill-opacity="1" stroke-width="0.2" stroke-linejoin="round" d="M 147.687,465.252C 151.629,461.696 157.731,462.012 161.286,465.956C 164.84,469.899 164.527,476.001 160.584,479.555C 156.639,483.111 150.537,482.795 146.983,478.851C 143.428,474.909 143.743,468.807 147.687,465.252 Z M 135.073,457.918C 134.341,458.874 133.69,459.877 133.125,460.906L 128.519,459.415L 127.653,459.136L 127.371,459.999L 125.183,466.749L 124.902,467.615L 125.768,467.897L 130.369,469.384C 130.221,470.577 130.159,471.773 130.186,472.953L 125.454,473.959L 124.563,474.147L 124.752,475.039L 126.233,481.976L 126.423,482.868L 127.314,482.677L 132.052,481.666C 132.509,482.758 133.056,483.824 133.681,484.844L 130.077,488.095L 129.399,488.703L 130.01,489.379L 134.76,494.649L 135.369,495.325L 136.045,494.716L 139.651,491.467C 140.595,492.185 141.593,492.836 142.637,493.407L 141.144,498.018L 140.863,498.883L 141.729,499.163L 148.478,501.352L 149.342,501.633L 149.624,500.767L 151.118,496.169C 152.302,496.319 153.495,496.376 154.681,496.352L 155.692,501.085L 155.882,501.974L 156.773,501.785L 163.708,500.305L 164.599,500.116L 164.409,499.228L 163.399,494.483C 164.491,494.024 165.552,493.48 166.574,492.854L 169.824,496.462L 170.434,497.137L 171.111,496.528L 176.38,491.78L 177.055,491.17L 176.445,490.493L 173.194,486.885C 173.92,485.934 174.572,484.934 175.14,483.895L 179.751,485.393L 180.617,485.674L 180.896,484.808L 183.086,478.059L 183.368,477.192L 182.502,476.912L 177.896,475.418C 178.047,474.238 178.11,473.047 178.082,471.856L 182.813,470.842L 183.703,470.652L 183.512,469.763L 182.031,462.824L 181.841,461.933L 180.953,462.124L 176.215,463.135C 175.759,462.052 175.215,460.99 174.588,459.963L 178.192,456.712L 178.869,456.103L 178.26,455.426L 173.509,450.157L 172.9,449.482L 172.223,450.093L 168.619,453.343C 167.66,452.61 166.659,451.958 165.628,451.393L 167.121,446.784L 167.402,445.917L 166.536,445.637L 159.786,443.449L 158.919,443.169L 158.64,444.036L 157.151,448.639C 155.98,448.49 154.784,448.427 153.579,448.453L 152.573,443.726L 152.385,442.835L 151.494,443.025L 144.558,444.503L 143.668,444.692L 143.857,445.583L 144.866,450.319C 143.782,450.774 142.72,451.319 141.691,451.948L 138.444,448.344L 137.834,447.669L 137.159,448.278L 131.89,453.029L 131.214,453.639L 131.822,454.315L 135.073,457.918 Z "/>
			<path fill="#CDD520" fill-opacity="1" stroke-width="0.2" stroke-linejoin="round" d="M 75.1809,361.441C 79.1235,357.886 85.2253,358.202 88.7805,362.146C 92.3346,366.088 92.0209,372.19 88.0783,375.744C 84.1332,379.301 78.0315,378.985 74.4774,375.041C 70.9221,371.098 71.2371,364.996 75.1809,361.441 Z M 62.5675,354.107C 61.8355,355.064 61.1844,356.067 60.6188,357.096L 56.013,355.604L 55.1468,355.325L 54.8652,356.189L 52.6776,362.938L 52.396,363.805L 53.2622,364.086L 57.8632,365.574C 57.7146,366.767 57.6529,367.962 57.6802,369.142L 52.9485,370.149L 52.0573,370.337L 52.2463,371.229L 53.7268,378.166L 53.917,379.057L 54.8082,378.867L 59.5458,377.856C 60.0032,378.948 60.5498,380.014 61.1749,381.033L 57.5709,384.284L 56.8936,384.893L 57.5043,385.569L 62.2538,390.839L 62.8634,391.515L 63.5395,390.905L 67.1447,387.657C 68.0893,388.374 69.0875,389.025 70.1308,389.597L 68.6383,394.207L 68.3567,395.073L 69.2229,395.353L 75.9723,397.542L 76.8361,397.822L 77.1178,396.957L 78.6126,392.359C 79.7961,392.508 80.9891,392.565 82.175,392.542L 83.1862,397.274L 83.3763,398.163L 84.2675,397.974L 91.2022,396.495L 92.0934,396.306L 91.9033,395.417L 90.8932,390.672C 91.9853,390.214 93.0464,389.669 94.0683,389.043L 97.3182,392.652L 97.9278,393.327L 98.6051,392.717L 103.874,387.969L 104.549,387.36L 103.939,386.682L 100.688,383.075C 101.414,382.124 102.066,381.124 102.634,380.085L 107.245,381.582L 108.111,381.864L 108.39,380.998L 110.58,374.248L 110.862,373.382L 109.996,373.102L 105.39,371.608C 105.541,370.428 105.604,369.236 105.577,368.046L 110.307,367.032L 111.197,366.842L 111.006,365.953L 109.525,359.014L 109.335,358.122L 108.447,358.314L 103.709,359.325C 103.254,358.241 102.709,357.18 102.082,356.152L 105.686,352.901L 106.363,352.293L 105.754,351.615L 101.003,346.347L 100.395,345.672L 99.7173,346.283L 96.1133,349.532C 95.1544,348.799 94.1527,348.148 93.1224,347.583L 94.6149,342.973L 94.8965,342.107L 94.0303,341.827L 87.2798,339.639L 86.4135,339.359L 86.1343,340.226L 84.6454,344.828C 83.4738,344.68 82.2784,344.617 81.0735,344.643L 80.067,339.916L 79.8792,339.025L 78.9881,339.215L 72.0522,340.693L 71.1622,340.882L 71.3511,341.773L 72.36,346.508C 71.2762,346.963 70.214,347.509 69.1849,348.137L 65.9386,344.533L 65.3278,343.858L 64.6529,344.468L 59.3841,349.219L 58.708,349.828L 59.3164,350.504L 62.5675,354.107 Z "/>
			<path fill="#CDD520" fill-opacity="1" stroke-width="0.2" stroke-linejoin="round" d="M 114.012,283.922C 117.955,280.367 124.057,280.683 127.612,284.627C 131.166,288.57 130.852,294.671 126.91,298.225C 122.965,301.782 116.863,301.466 113.309,297.522C 109.754,293.579 110.068,287.478 114.012,283.922 Z M 101.399,276.588C 100.667,277.545 100.016,278.548 99.4502,279.577L 94.8444,278.086L 93.9782,277.806L 93.6966,278.67L 91.509,285.419L 91.2274,286.286L 92.0936,286.567L 96.6946,288.055C 96.546,289.248 96.4842,290.443 96.5116,291.623L 91.7799,292.63L 90.8888,292.818L 91.0777,293.71L 92.5583,300.647L 92.7483,301.538L 93.6395,301.348L 98.3772,300.337C 98.8346,301.429 99.3812,302.495 100.006,303.514L 96.4023,306.765L 95.725,307.374L 96.3357,308.05L 101.085,313.32L 101.695,313.996L 102.371,313.386L 105.976,310.138C 106.921,310.855 107.919,311.507 108.962,312.078L 107.47,316.689L 107.188,317.554L 108.054,317.834L 114.804,320.023L 115.668,320.303L 115.949,319.438L 117.444,314.84C 118.627,314.989 119.821,315.046 121.006,315.023L 122.018,319.755L 122.208,320.644L 123.099,320.455L 130.034,318.976L 130.925,318.787L 130.735,317.898L 129.725,313.153C 130.817,312.695 131.878,312.151 132.9,311.524L 136.15,315.133L 136.759,315.808L 137.436,315.199L 142.705,310.45L 143.38,309.841L 142.771,309.163L 139.52,305.556C 140.246,304.605 140.898,303.605 141.466,302.566L 146.076,304.063L 146.943,304.345L 147.222,303.479L 149.412,296.729L 149.693,295.863L 148.827,295.583L 144.221,294.089C 144.372,292.909 144.435,291.717 144.408,290.527L 149.138,289.513L 150.028,289.323L 149.837,288.434L 148.357,281.495L 148.166,280.603L 147.279,280.795L 142.54,281.806C 142.085,280.722 141.541,279.661 140.913,278.633L 144.517,275.382L 145.195,274.774L 144.585,274.097L 139.834,268.828L 139.226,268.153L 138.549,268.764L 134.945,272.014C 133.986,271.28 132.984,270.629 131.954,270.064L 133.446,265.454L 133.728,264.588L 132.862,264.308L 126.111,262.12L 125.245,261.84L 124.966,262.707L 123.477,267.309C 122.305,267.161 121.11,267.098 119.905,267.124L 118.898,262.397L 118.711,261.506L 117.819,261.696L 110.884,263.174L 109.994,263.363L 110.183,264.254L 111.191,268.989C 110.108,269.444 109.045,269.99 108.016,270.618L 104.77,267.014L 104.159,266.34L 103.484,266.949L 98.2156,271.7L 97.5394,272.309L 98.1478,272.986L 101.399,276.588 Z "/>
			<path fill="#CDD520" fill-opacity="1" stroke-width="0.2" stroke-linejoin="round" d="M 299.311,256.933C 301.832,254.66 305.732,254.862 308.004,257.383C 310.277,259.903 310.078,263.805 307.555,266.077C 305.033,268.35 301.133,268.148 298.862,265.626C 296.588,263.106 296.789,259.206 299.311,256.933 Z M 291.247,252.244C 290.779,252.856 290.363,253.496 290.001,254.155L 287.057,253.2L 286.504,253.022L 286.323,253.575L 284.926,257.889L 284.744,258.443L 285.299,258.624L 288.241,259.574C 288.146,260.337 288.104,261.101 288.123,261.857L 285.098,262.5L 284.529,262.62L 284.65,263.19L 285.596,267.625L 285.718,268.195L 286.287,268.073L 289.316,267.426C 289.609,268.124 289.957,268.806 290.357,269.458L 288.053,271.535L 287.619,271.925L 288.01,272.356L 291.046,275.726L 291.436,276.158L 291.869,275.769L 294.174,273.692C 294.777,274.151 295.416,274.567 296.082,274.933L 295.128,277.88L 294.947,278.432L 295.502,278.613L 299.817,280.011L 300.369,280.191L 300.549,279.637L 301.505,276.697C 302.26,276.793 303.023,276.83 303.782,276.815L 304.429,279.84L 304.55,280.408L 305.12,280.288L 309.552,279.342L 310.123,279.221L 310.002,278.653L 309.355,275.619C 310.053,275.326 310.731,274.979 311.385,274.579L 313.463,276.885L 313.853,277.316L 314.286,276.928L 317.654,273.892L 318.086,273.502L 317.695,273.069L 315.617,270.763C 316.081,270.155 316.498,269.515 316.863,268.851L 319.809,269.809L 320.363,269.988L 320.541,269.434L 321.941,265.12L 322.121,264.566L 321.567,264.387L 318.624,263.431C 318.72,262.678 318.76,261.915 318.742,261.155L 321.766,260.507L 322.334,260.385L 322.213,259.817L 321.267,255.381L 321.145,254.811L 320.577,254.933L 317.549,255.579C 317.258,254.887 316.91,254.209 316.508,253.551L 318.812,251.474L 319.245,251.084L 318.855,250.652L 315.819,247.283L 315.429,246.852L 314.997,247.243L 312.693,249.32C 312.08,248.851 311.438,248.436 310.78,248.073L 311.735,245.126L 311.915,244.573L 311.361,244.393L 307.046,242.996L 306.491,242.815L 306.313,243.37L 305.361,246.312C 304.613,246.217 303.847,246.177 303.079,246.193L 302.435,243.172L 302.313,242.601L 301.744,242.724L 297.311,243.668L 296.742,243.789L 296.863,244.359L 297.507,247.386C 296.814,247.677 296.136,248.026 295.477,248.427L 293.403,246.124L 293.012,245.693L 292.58,246.082L 289.212,249.119L 288.78,249.509L 289.169,249.941L 291.247,252.244 Z "/>
			<path fill="#CDD520" fill-opacity="1" stroke-width="0.2" stroke-linejoin="round" d="M 209.448,282.432C 193.352,282.406 180.325,269.372 180.293,253.288C 180.331,237.19 193.352,224.164 209.448,224.134C 225.542,224.164 238.567,237.186 238.597,253.288C 238.567,269.382 225.542,282.406 209.448,282.432 Z M 277.468,262.999L 277.468,243.569L 257.056,243.569C 255.842,237.608 253.516,232.062 250.338,227.12L 264.906,212.55L 251.154,198.809L 236.805,213.151C 231.569,209.571 225.598,206.986 219.166,205.68L 219.166,185.267L 199.731,185.267L 199.731,205.68C 193.528,206.942 187.765,209.396 182.665,212.768L 168.704,198.809L 154.961,212.546L 168.924,226.516C 165.549,231.613 163.098,237.371 161.841,243.569L 141.429,243.569L 141.429,263.004L 161.844,263.004C 163.154,269.436 165.736,275.409 169.315,280.644L 154.966,294.992L 168.715,308.742L 183.279,294.171C 188.231,297.345 193.775,299.679 199.736,300.895L 199.736,321.306L 219.166,321.306L 219.166,300.895C 225.362,299.632 231.132,297.186 236.226,293.806L 251.16,308.742L 264.908,294.992L 249.973,280.059C 253.348,274.961 255.799,269.2 257.056,262.999L 277.468,262.999 Z "/>
			<path fill="#CDD520" fill-opacity="1" stroke-width="0.2" stroke-linejoin="round" d="M 182.514,409.007C 166.418,408.981 153.391,395.947 153.359,379.863C 153.397,363.766 166.418,350.739 182.514,350.709C 198.608,350.739 211.633,363.761 211.662,379.863C 211.633,395.957 198.608,408.981 182.514,409.007 Z M 250.534,389.575L 250.534,370.144L 230.122,370.144C 228.907,364.183 226.582,358.637 223.403,353.695L 237.971,339.125L 224.22,325.384L 209.87,339.726C 204.635,336.146 198.664,333.561 192.232,332.255L 192.232,311.842L 172.797,311.842L 172.797,332.255C 166.594,333.517 160.831,335.971 155.731,339.343L 141.77,325.384L 128.027,339.121L 141.99,353.092C 138.615,358.188 136.164,363.946 134.907,370.144L 114.495,370.144L 114.495,389.579L 134.91,389.579C 136.22,396.012 138.802,401.984 142.381,407.219L 128.031,421.567L 141.781,435.317L 156.345,420.746C 161.297,423.92 166.841,426.254 172.801,427.471L 172.801,447.881L 192.232,447.881L 192.232,427.471C 198.427,426.208 204.198,423.761 209.292,420.382L 224.226,435.317L 237.974,421.567L 223.039,406.635C 226.413,401.536 228.865,395.775 230.122,389.575L 250.534,389.575 Z "/>
			<path fill="#CDD520" fill-opacity="1" stroke-width="0.2" stroke-linejoin="round" d="M 420.51,139.037C 413.147,139.024 407.188,133.063 407.173,125.704C 407.189,118.342 413.147,112.381 420.51,112.368C 427.871,112.381 433.83,118.339 433.845,125.704C 433.83,133.066 427.871,139.024 420.51,139.037 Z M 451.626,130.148L 451.626,121.259L 442.288,121.259C 441.732,118.532 440.67,115.995 439.214,113.735L 445.88,107.069L 439.589,100.783L 433.023,107.344C 430.629,105.706 427.898,104.523 424.955,103.927L 424.955,94.5882L 416.065,94.5882L 416.065,103.927C 413.228,104.504 410.59,105.626 408.257,107.168L 401.871,100.783L 395.584,107.066L 401.972,113.458C 400.427,115.79 399.305,118.423 398.731,121.259L 389.394,121.259L 389.394,130.15L 398.734,130.15C 399.333,133.093 400.513,135.824 402.151,138.22L 395.586,144.783L 401.876,151.072L 408.539,144.407C 410.803,145.859 413.34,146.926 416.067,147.484L 416.067,156.82L 424.955,156.82L 424.955,147.484C 427.789,146.905 430.429,145.787 432.761,144.24L 439.592,151.072L 445.88,144.783L 439.048,137.951C 440.593,135.619 441.714,132.984 442.288,130.148L 451.626,130.148 Z "/>
			<path fill="#CDD520" fill-opacity="1" stroke-width="0.2" stroke-linejoin="round" d="M 124.417,71.3716C 124.417,81.1878 116.432,89.1729 106.616,89.1729C 96.7983,89.1729 88.8132,81.1878 88.8132,71.3716C 88.8132,61.5553 96.7983,53.5691 106.616,53.5691C 116.432,53.5691 124.417,61.5553 124.417,71.3716 Z M 145.207,80.1671L 146.463,80.1671L 146.463,78.9111L 146.463,64.2515L 146.463,62.9944L 145.207,62.9944L 135.23,62.9944C 134.643,60.9873 133.845,59.0434 132.844,57.198L 139.888,50.1552L 140.777,49.2664L 139.888,48.3776L 129.522,38.0124L 128.634,37.1223L 127.745,38.0124L 120.675,45.0813C 118.926,44.1438 117.09,43.3845 115.201,42.8141L 115.201,32.9895L 115.201,31.7336L 113.945,31.7336L 99.2841,31.7336L 98.0282,31.7336L 98.0282,32.9895L 98.0282,42.8153C 96.2339,43.3559 94.4907,44.0664 92.8283,44.934L 85.9044,38.0124L 85.0155,37.1223L 84.1267,38.0124L 73.7615,48.3776L 72.8727,49.2664L 73.7615,50.154L 80.5346,56.927C 79.5329,58.7273 78.7225,60.6201 78.12,62.5749L 68.4428,62.5749L 67.1857,62.5749L 67.1857,63.8308L 67.1857,78.4916L 67.1857,79.7476L 68.4428,79.7476L 77.9988,79.7476C 78.6156,81.8532 79.464,83.8864 80.5346,85.8137L 73.7615,92.5867L 72.8727,93.4768L 73.7615,94.3656L 84.1267,104.73L 85.0155,105.621L 85.9044,104.73L 92.8283,97.808C 94.6143,98.7431 96.4977,99.493 98.4488,100.047L 98.4488,109.752L 98.4488,111.01L 99.7024,111.01L 114.364,111.01L 115.622,111.01L 115.622,109.752L 115.622,99.7983C 117.364,99.2458 119.057,98.5305 120.675,97.6618L 127.745,104.73L 128.634,105.62L 129.522,104.73L 139.888,94.3644L 140.777,93.4768L 139.888,92.5867L 132.844,85.5439C 133.777,83.8233 134.535,82.0208 135.109,80.1658L 145.207,80.1658L 145.207,80.1671 Z "/>
			<path fill="#CDD520" fill-opacity="1" stroke-width="0.2" stroke-linejoin="round" d="M 303.616,212.311C 303.616,218.045 298.951,222.711 293.217,222.711C 287.483,222.711 282.816,218.045 282.816,212.311C 282.816,206.576 287.483,201.911 293.217,201.911C 298.951,201.911 303.616,206.576 303.616,212.311 Z M 315.761,217.449L 316.495,217.449L 316.495,216.716L 316.495,208.152L 316.495,207.418L 315.761,207.418L 309.933,207.418C 309.59,206.245 309.123,205.109 308.54,204.031L 312.654,199.916L 313.173,199.397L 312.654,198.878L 306.599,192.823L 306.079,192.303L 305.561,192.823L 301.431,196.953C 300.409,196.405 299.336,195.962 298.233,195.628L 298.233,189.888L 298.233,189.155L 297.5,189.155L 288.935,189.155L 288.2,189.155L 288.2,189.888L 288.2,195.629C 287.152,195.945 286.134,196.36 285.163,196.867L 281.117,192.823L 280.599,192.303L 280.079,192.823L 274.025,198.878L 273.505,199.397L 274.025,199.915L 277.981,203.873C 277.396,204.925 276.923,206.03 276.571,207.172L 270.917,207.172L 270.183,207.172L 270.183,207.906L 270.183,216.47L 270.183,217.204L 270.917,217.204L 276.5,217.204C 276.859,218.434 277.355,219.622 277.981,220.748L 274.025,224.704L 273.505,225.224L 274.025,225.743L 280.079,231.798L 280.599,232.319L 281.117,231.798L 285.163,227.755C 286.207,228.301 287.306,228.739 288.445,229.063L 288.445,234.732L 288.445,235.467L 289.178,235.467L 297.745,235.467L 298.478,235.467L 298.478,234.732L 298.478,228.918C 299.496,228.595 300.485,228.177 301.431,227.669L 305.561,231.798L 306.079,232.318L 306.599,231.798L 312.654,225.743L 313.173,225.224L 312.654,224.704L 308.54,220.59C 309.085,219.585 309.527,218.531 309.862,217.449L 315.761,217.449 Z "/>
			<path fill="#CDD520" fill-opacity="1" stroke-width="0.2" stroke-linejoin="round" d="M 345.159,28.1028C 345.159,33.8373 340.493,38.5024 334.76,38.5024C 329.026,38.5024 324.359,33.8373 324.359,28.1028C 324.359,22.3682 329.026,17.703 334.76,17.703C 340.493,17.703 345.159,22.3682 345.159,28.1028 Z M 357.304,33.2407L 358.038,33.2407L 358.038,32.5075L 358.038,23.9438L 358.038,23.2095L 357.304,23.2095L 351.475,23.2095C 351.133,22.0367 350.666,20.9006 350.083,19.8229L 354.196,15.708L 354.716,15.1887L 354.196,14.6695L 348.142,8.6152L 347.622,8.09476L 347.104,8.6152L 342.973,12.7444C 341.951,12.1967 340.878,11.7534 339.776,11.4196L 339.776,5.68021L 339.776,4.94705L 339.043,4.94705L 330.478,4.94705L 329.743,4.94705L 329.743,5.68021L 329.743,11.4207C 328.695,11.7368 327.677,12.1515 326.706,12.6589L 322.66,8.6152L 322.142,8.09476L 321.621,8.6152L 315.567,14.6695L 315.048,15.1887L 315.567,15.7068L 319.524,19.6648C 318.938,20.7165 318.465,21.8216 318.114,22.9635L 312.46,22.9635L 311.726,22.9635L 311.726,23.6978L 311.726,32.2616L 311.726,32.996L 312.46,32.996L 318.042,32.996C 318.401,34.2259 318.898,35.4141 319.524,36.5393L 315.567,40.4963L 315.048,41.0156L 315.567,41.5349L 321.621,47.5901L 322.142,48.1106L 322.66,47.5901L 326.706,43.5465C 327.749,44.0932 328.848,44.5304 329.988,44.8549L 329.988,50.5241L 329.988,51.2583L 330.721,51.2583L 339.287,51.2583L 340.021,51.2583L 340.021,50.5241L 340.021,44.7099C 341.039,44.3866 342.027,43.9684 342.973,43.461L 347.104,47.5901L 347.622,48.1094L 348.142,47.5901L 354.196,41.5349L 354.716,41.0156L 354.196,40.4963L 350.083,36.3813C 350.628,35.3772 351.07,34.3232 351.405,33.2407L 357.304,33.2407 Z "/>
			<path fill="#CDD520" fill-opacity="1" stroke-width="0.2" stroke-linejoin="round" d="M 325.316,174.019C 325.316,178.278 321.851,181.743 317.593,181.743C 313.333,181.743 309.867,178.278 309.867,174.019C 309.867,169.76 313.333,166.295 317.593,166.295C 321.851,166.295 325.316,169.76 325.316,174.019 Z M 334.337,177.836L 334.882,177.836L 334.882,177.29L 334.882,170.93L 334.882,170.384L 334.337,170.384L 330.008,170.384C 329.754,169.513 329.406,168.671 328.973,167.87L 332.029,164.812L 332.415,164.427L 332.029,164.042L 327.532,159.545L 327.145,159.159L 326.76,159.545L 323.694,162.612C 322.933,162.205 322.137,161.875 321.318,161.628L 321.318,157.364L 321.318,156.82L 320.773,156.82L 314.411,156.82L 313.867,156.82L 313.867,157.364L 313.867,161.629C 313.087,161.863 312.331,162.171 311.61,162.549L 308.605,159.545L 308.22,159.159L 307.834,159.545L 303.336,164.042L 302.951,164.427L 303.336,164.812L 306.276,167.752C 305.84,168.533 305.489,169.354 305.229,170.202L 301.03,170.202L 300.484,170.202L 300.484,170.748L 300.484,177.109L 300.484,177.654L 301.03,177.654L 305.176,177.654C 305.442,178.568 305.811,179.449 306.276,180.285L 303.336,183.225L 302.951,183.611L 303.336,183.996L 307.834,188.493L 308.22,188.88L 308.605,188.493L 311.61,185.489C 312.385,185.896 313.202,186.221 314.048,186.461L 314.048,190.673L 314.048,191.218L 314.593,191.218L 320.955,191.218L 321.499,191.218L 321.499,190.673L 321.499,186.353C 322.257,186.114 322.99,185.803 323.694,185.426L 326.76,188.493L 327.145,188.88L 327.532,188.493L 332.029,183.996L 332.415,183.611L 332.029,183.225L 328.973,180.168C 329.378,179.422 329.706,178.64 329.955,177.835L 334.337,177.835L 334.337,177.836 Z "/>
			<path fill="#CDD520" fill-opacity="1" stroke-width="0.2" stroke-linejoin="round" d="M 21.8223,267.265C 21.8223,270.624 19.0905,273.355 15.7336,273.355C 12.3744,273.355 9.64262,270.624 9.64262,267.265C 9.64262,263.907 12.3744,261.175 15.7336,261.175C 19.0905,261.175 21.8223,263.907 21.8223,267.265 Z M 28.934,270.275L 29.3642,270.275L 29.3642,269.845L 29.3642,264.83L 29.3642,264.4L 28.934,264.4L 25.5213,264.4C 25.3217,263.713 25.0472,263.049 24.7062,262.417L 27.116,260.007L 27.419,259.704L 27.116,259.399L 23.569,255.853L 23.2648,255.549L 22.9606,255.853L 20.5425,258.272C 19.9436,257.952 19.3162,257.691 18.6698,257.496L 18.6698,254.135L 18.6698,253.706L 18.2397,253.706L 13.2252,253.706L 12.7962,253.706L 12.7962,254.135L 12.7962,257.496C 12.1807,257.682 11.5854,257.924 11.0162,258.222L 8.64803,255.853L 8.34384,255.549L 8.03965,255.853L 4.49387,259.399L 4.18967,259.704L 4.49387,260.007L 6.81097,262.324C 6.46757,262.94 6.19071,263.587 5.98515,264.256L 2.67465,264.256L 2.24451,264.256L 2.24451,264.687L 2.24451,269.701L 2.24451,270.131L 2.67465,270.131L 5.94355,270.131C 6.15388,270.851 6.44499,271.548 6.81097,272.206L 4.49387,274.524L 4.18967,274.827L 4.49387,275.131L 8.03965,278.677L 8.34384,278.983L 8.64803,278.677L 11.0162,276.31C 11.627,276.629 12.271,276.886 12.9389,277.075L 12.9389,280.395L 12.9389,280.826L 13.3678,280.826L 18.3834,280.826L 18.8124,280.826L 18.8124,280.395L 18.8124,276.991C 19.4101,276.802 19.9888,276.557 20.5425,276.259L 22.9606,278.677L 23.2648,278.981L 23.569,278.677L 27.116,275.131L 27.419,274.827L 27.116,274.524L 24.7062,272.114C 25.0246,271.525 25.2837,270.908 25.4797,270.274L 28.934,270.274L 28.934,270.275 Z "/>
			<path fill="#CDD520" fill-opacity="1" stroke-width="0.2" stroke-linejoin="round" d="M 268.164,534.624C 268.164,538.766 264.795,542.135 260.657,542.135C 256.512,542.135 253.141,538.766 253.141,534.624C 253.141,530.482 256.512,527.115 260.657,527.115C 264.795,527.115 268.164,530.482 268.164,534.624 Z M 276.937,538.337L 277.468,538.337L 277.468,537.807L 277.468,531.622L 277.468,531.089L 276.937,531.089L 272.729,531.089C 272.482,530.243 272.142,529.423 271.722,528.644L 274.694,525.673L 275.069,525.298L 274.694,524.921L 270.32,520.549L 269.944,520.173L 269.571,520.549L 266.589,523.532C 265.849,523.136 265.073,522.817 264.277,522.574L 264.277,518.43L 264.277,517.9L 263.746,517.9L 257.561,517.9L 257.031,517.9L 257.031,518.43L 257.031,522.577C 256.273,522.804 255.539,523.104 254.838,523.47L 251.915,520.549L 251.542,520.173L 251.165,520.549L 246.792,524.921L 246.417,525.298L 246.792,525.672L 249.65,528.531C 249.226,529.289 248.885,530.089 248.633,530.912L 244.549,530.912L 244.018,530.912L 244.018,531.442L 244.018,537.627L 244.018,538.159L 244.549,538.159L 248.58,538.159C 248.838,539.048 249.198,539.905 249.65,540.719L 246.792,543.577L 246.417,543.953L 246.792,544.327L 251.165,548.702L 251.542,549.076L 251.915,548.702L 254.838,545.781C 255.591,546.174 256.385,546.492 257.207,546.726L 257.207,550.819L 257.207,551.35L 257.738,551.35L 263.924,551.35L 264.454,551.35L 264.454,550.819L 264.454,546.621C 265.19,546.386 265.904,546.086 266.589,545.718L 269.571,548.702L 269.944,549.075L 270.32,548.702L 274.694,544.327L 275.069,543.953L 274.694,543.577L 271.722,540.605C 272.115,539.879 272.436,539.117 272.677,538.337L 276.937,538.337 Z "/>
			<path fill="#CDD520" fill-opacity="1" stroke-width="0.2" stroke-linejoin="round" d="M 257.365,472.403C 257.365,481.827 249.7,489.494 240.277,489.494C 230.853,489.494 223.185,481.827 223.185,472.403C 223.185,462.979 230.853,455.312 240.277,455.312C 249.7,455.312 257.365,462.979 257.365,472.403 Z M 277.325,480.847L 278.531,480.847L 278.531,479.642L 278.531,465.567L 278.531,464.361L 277.325,464.361L 267.746,464.361C 267.183,462.434 266.416,460.568 265.456,458.796L 272.219,452.033L 273.072,451.182L 272.219,450.329L 262.268,440.377L 261.414,439.523L 260.561,440.377L 253.774,447.163C 252.094,446.263 250.332,445.535 248.519,444.986L 248.519,435.555L 248.519,434.35L 247.313,434.35L 233.238,434.35L 232.034,434.35L 232.034,435.555L 232.034,444.989C 230.307,445.508 228.636,446.189 227.04,447.023L 220.393,440.377L 219.539,439.523L 218.686,440.377L 208.735,450.329L 207.881,451.182L 208.735,452.033L 215.238,458.536C 214.275,460.264 213.498,462.082 212.92,463.959L 203.629,463.959L 202.423,463.959L 202.423,465.163L 202.423,479.238L 202.423,480.445L 203.629,480.445L 212.803,480.445C 213.395,482.467 214.21,484.418 215.238,486.268L 208.735,492.772L 207.881,493.624L 208.735,494.477L 218.686,504.428L 219.539,505.283L 220.393,504.428L 227.04,497.782C 228.756,498.68 230.562,499.4 232.436,499.933L 232.436,509.25L 232.436,510.457L 233.639,510.457L 247.715,510.457L 248.922,510.457L 248.922,509.25L 248.922,499.694C 250.595,499.164 252.22,498.476 253.774,497.643L 260.561,504.428L 261.414,505.282L 262.268,504.428L 272.219,494.475L 273.072,493.624L 272.219,492.772L 265.456,486.009C 266.351,484.357 267.079,482.627 267.631,480.847L 277.325,480.847 Z "/>
			<path fill="#CDD520" fill-opacity="1" stroke-width="0.2" stroke-linejoin="round" d="M 299.391,509.308C 299.391,514 295.574,517.817 290.883,517.817C 286.19,517.817 282.374,514 282.374,509.308C 282.374,504.616 286.19,500.8 290.883,500.8C 295.574,500.8 299.391,504.616 299.391,509.308 Z M 309.327,513.513L 309.928,513.513L 309.928,512.912L 309.928,505.906L 309.928,505.304L 309.327,505.304L 304.56,505.304C 304.278,504.344 303.897,503.416 303.419,502.533L 306.787,499.167L 307.211,498.742L 306.787,498.317L 301.831,493.363L 301.406,492.938L 300.982,493.363L 297.602,496.742C 296.767,496.294 295.889,495.931 294.986,495.658L 294.986,490.963L 294.986,490.363L 294.386,490.363L 287.379,490.363L 286.779,490.363L 286.779,490.963L 286.779,495.659C 285.919,495.917 285.087,496.257 284.293,496.672L 280.982,493.363L 280.557,492.938L 280.134,493.363L 275.179,498.317L 274.755,498.742L 275.179,499.167L 278.417,502.404C 277.937,503.264 277.549,504.17 277.262,505.104L 272.636,505.104L 272.036,505.104L 272.036,505.704L 272.036,512.711L 272.036,513.312L 272.636,513.312L 277.204,513.312C 277.498,514.319 277.905,515.291 278.417,516.211L 275.179,519.449L 274.755,519.875L 275.179,520.299L 280.134,525.253L 280.557,525.678L 280.982,525.253L 284.293,521.945C 285.147,522.392 286.047,522.75 286.978,523.014L 286.978,527.653L 286.978,528.255L 287.578,528.255L 294.587,528.255L 295.187,528.255L 295.187,527.653L 295.187,522.897C 296.02,522.632 296.829,522.289 297.602,521.875L 300.982,525.253L 301.406,525.677L 301.831,525.253L 306.787,520.298L 307.211,519.875L 306.787,519.449L 303.419,516.082C 303.866,515.26 304.227,514.398 304.502,513.513L 309.327,513.513 Z "/>
			<path fill="#CDD520" fill-opacity="1" stroke-width="0.2" stroke-linejoin="round" d="M 181.99,534.624C 181.99,539.606 177.937,543.66 172.955,543.66C 167.973,543.66 163.921,539.606 163.921,534.624C 163.921,529.643 167.973,525.59 172.955,525.59C 177.937,525.59 181.99,529.643 181.99,534.624 Z M 192.54,539.089L 193.178,539.089L 193.178,538.451L 193.178,531.011L 193.178,530.373L 192.54,530.373L 187.477,530.373C 187.179,529.353 186.774,528.368 186.266,527.431L 189.842,523.856L 190.292,523.406L 189.842,522.956L 184.58,517.695L 184.13,517.243L 183.678,517.695L 180.091,521.281C 179.203,520.806 178.272,520.421 177.312,520.131L 177.312,515.145L 177.312,514.508L 176.676,514.508L 169.235,514.508L 168.598,514.508L 168.598,515.145L 168.598,520.132C 167.685,520.407 166.801,520.767 165.959,521.208L 162.444,517.695L 161.992,517.243L 161.542,517.695L 156.282,522.956L 155.83,523.406L 156.282,523.856L 159.719,527.294C 159.211,528.208 158.798,529.168 158.493,530.16L 153.582,530.16L 152.944,530.16L 152.944,530.797L 152.944,538.238L 152.944,538.876L 153.582,538.876L 158.431,538.876C 158.745,539.944 159.176,540.977 159.719,541.954L 156.282,545.392L 155.83,545.843L 156.282,546.294L 161.542,551.554L 161.992,552.006L 162.444,551.554L 165.959,548.041C 166.866,548.515 167.821,548.897 168.81,549.177L 168.81,554.104L 168.81,554.742L 169.446,554.742L 176.888,554.742L 177.525,554.742L 177.525,554.104L 177.525,549.052C 178.411,548.771 179.269,548.408 180.091,547.967L 183.678,551.554L 184.13,552.005L 184.58,551.554L 189.842,546.293L 190.292,545.843L 189.842,545.392L 186.266,541.817C 186.74,540.942 187.124,540.03 187.415,539.089L 192.54,539.089 Z "/>
			<path fill="#CDD520" fill-opacity="1" stroke-width="0.2" stroke-linejoin="round" d="M 425.725,342.013C 425.325,348.685 419.574,353.788 412.904,353.388C 406.234,352.99 401.13,347.239 401.529,340.568C 401.927,333.897 407.677,328.795 414.351,329.194C 421.02,329.592 426.123,335.342 425.725,342.013 Z M 439.494,348.836L 440.35,348.887L 440.401,348.033L 440.996,338.07L 441.047,337.216L 440.192,337.165L 433.412,336.761C 433.094,335.372 432.631,334.02 432.026,332.723L 437.1,328.223L 437.739,327.655L 437.172,327.016L 430.548,319.553L 429.98,318.911L 429.339,319.48L 424.249,323.995C 423.099,323.287 421.881,322.698 420.62,322.232L 421.019,315.556L 421.07,314.704L 420.217,314.653L 410.254,314.058L 409.402,314.007L 409.35,314.86L 408.951,321.537C 407.708,321.832 406.494,322.243 405.332,322.766L 400.905,317.781L 400.337,317.139L 399.699,317.71L 392.233,324.332L 391.593,324.9L 392.162,325.539L 396.49,330.417C 395.735,331.599 395.107,332.853 394.618,334.156L 388.043,333.764L 387.187,333.713L 387.136,334.565L 386.541,344.529L 386.489,345.383L 387.345,345.434L 393.839,345.823C 394.173,347.277 394.667,348.695 395.317,350.047L 390.439,354.376L 389.799,354.944L 390.367,355.584L 396.99,363.048L 397.557,363.688L 398.197,363.12L 403.184,358.697C 404.361,359.406 405.609,359.991 406.912,360.447L 406.518,367.041L 406.467,367.897L 407.32,367.947L 417.283,368.543L 418.136,368.594L 418.188,367.739L 418.592,360.975C 419.8,360.67 420.979,360.252 422.115,359.729L 426.631,364.818L 427.199,365.457L 427.839,364.891L 435.306,358.266L 435.945,357.7L 435.377,357.061L 430.875,351.987C 431.58,350.855 432.169,349.662 432.632,348.426L 439.494,348.836 Z "/>
			<path fill="#CDD520" fill-opacity="1" stroke-width="0.2" stroke-linejoin="round" d="M 233.479,145.822C 205.482,145.822 182.764,123.106 182.764,95.1075C 182.764,67.0977 205.482,44.3924 233.479,44.3924C 261.478,44.3924 284.196,67.0977 284.196,95.1075C 284.196,123.106 261.478,145.822 233.479,145.822 Z M 323.64,106.377L 323.64,83.8367L 305.789,83.8367C 304.973,78.5871 303.631,73.5251 301.76,68.7043L 317.19,59.7888L 305.921,40.2657L 290.511,49.1681C 287.21,45.0959 283.511,41.3767 279.418,38.0852L 288.333,22.6663L 268.809,11.3969L 259.893,26.8383C 255.072,24.9668 250.01,23.6133 244.749,22.8101L 244.749,4.94693L 222.21,4.94693L 222.21,22.8101C 216.971,23.6133 211.909,24.9774 207.087,26.8383L 198.173,11.3969L 178.647,22.6663L 187.54,38.0864C 183.469,41.3767 179.749,45.0959 176.469,49.1692L 161.038,40.2657L 149.769,59.7781L 165.221,68.7043C 163.349,73.5251 161.996,78.5871 161.194,83.8367L 143.32,83.8367L 143.32,106.377L 161.194,106.377C 161.996,111.628 163.349,116.69 165.221,121.511L 149.769,130.425L 161.039,149.95L 176.469,141.047C 179.749,145.118 183.469,148.838 187.541,152.129L 178.648,167.549L 198.174,178.818L 207.088,163.377C 211.909,165.248 216.971,166.591 222.21,167.406L 222.21,185.268L 244.749,185.268L 244.749,167.406C 250.01,166.591 255.074,165.248 259.894,163.377L 268.809,178.818L 288.333,167.549L 279.419,152.129C 283.513,148.838 287.211,145.118 290.512,141.035L 305.922,149.939L 317.191,130.425L 301.762,121.511C 303.632,116.69 304.975,111.627 305.79,106.377L 323.64,106.377 Z "/>
			<path fill="#CDD520" fill-opacity="1" stroke-width="0.2" stroke-linejoin="round" d="M 233.479,120.861C 219.262,120.861 207.726,109.325 207.726,95.1076C 207.726,80.8828 219.262,69.3532 233.479,69.3532C 247.698,69.3532 259.234,80.8828 259.234,95.1076C 259.234,109.325 247.698,120.861 233.479,120.861 Z "/>
			<path fill="#CDD520" fill-opacity="1" stroke-width="0.2" stroke-linejoin="round" d="M 406.417,277.625C 382.516,278.98 362.026,260.687 360.67,236.785C 359.314,212.875 377.607,192.393 401.508,191.039C 425.41,189.683 445.901,207.967 447.256,231.877C 448.612,255.779 430.319,276.27 406.417,277.625 Z M 481.474,239.589L 480.383,220.347L 465.144,221.211C 464.195,216.77 462.803,212.513 460.973,208.488L 473.714,200.131L 463.148,184.009L 450.425,192.356C 447.409,189.039 444.071,186.043 440.419,183.431L 447.283,169.838L 430.07,161.161L 423.208,174.775C 419,173.411 414.614,172.5 410.085,172.069L 409.22,156.82L 389.978,157.911L 390.843,173.16C 386.41,174.099 382.155,175.509 378.128,177.331L 369.772,164.581L 353.65,175.146L 361.985,187.879C 358.67,190.884 355.676,194.24 353.072,197.875L 339.468,191.022L 330.792,208.224L 344.416,215.096C 343.053,219.301 342.141,223.688 341.71,228.21L 326.45,229.075L 327.542,248.315L 342.801,247.45C 343.739,251.893 345.142,256.149 346.971,260.174L 334.211,268.532L 344.777,284.655L 357.519,276.307C 360.515,279.623 363.871,282.619 367.506,285.231L 360.661,298.824L 377.875,307.5L 384.737,293.887C 388.943,295.251 393.33,296.152 397.841,296.594L 398.706,311.843L 417.946,310.752L 417.082,295.503C 421.535,294.554 425.791,293.162 429.816,291.331L 438.173,304.081L 454.294,293.517L 445.939,280.784C 449.275,277.778 452.25,274.424 454.871,270.778L 468.457,277.633L 477.134,260.429L 463.529,253.566C 464.893,249.361 465.795,244.974 466.236,240.452L 481.474,239.589 Z "/>
			<path fill="#CDD520" fill-opacity="1" stroke-width="0.2" stroke-linejoin="round" d="M 405.209,256.316C 393.072,257.004 382.666,247.714 381.978,235.577C 381.29,223.436 390.579,213.035 402.716,212.347C 414.854,211.659 425.259,220.943 425.949,233.085C 426.637,245.222 417.347,255.628 405.209,256.316 Z "/>
			<path fill="#CDD520" fill-opacity="1" stroke-width="0.2" stroke-linejoin="round" d="M 53.2049,323.955C 42.0258,324.59 32.4425,316.034 31.8091,304.855C 31.1746,293.672 39.7301,284.092 50.9092,283.459C 62.0884,282.824 71.6717,291.376 72.3062,302.56C 72.9396,313.738 64.3841,323.321 53.2049,323.955 Z M 88.3097,306.166L 87.8,297.167L 80.6716,297.571C 80.2284,295.493 79.5772,293.503 78.7217,291.62L 84.6796,287.712L 79.7388,280.171L 73.788,284.074C 72.3776,282.524 70.8161,281.123 69.1074,279.901L 72.3181,273.543L 64.2677,269.485L 61.0582,275.853C 59.0904,275.215 57.0395,274.788 54.9208,274.587L 54.5168,267.455L 45.5169,267.965L 45.9209,275.097C 43.8474,275.535 41.8571,276.196 39.9737,277.047L 36.0655,271.084L 28.5248,276.026L 32.4246,281.981C 30.874,283.386 29.473,284.956 28.255,286.656L 21.8919,283.452L 17.8352,291.497L 24.2066,294.71C 23.5685,296.677 23.1431,298.729 22.9411,300.844L 15.8045,301.248L 16.3154,310.247L 23.4509,309.844C 23.8906,311.921 24.5453,313.911 25.402,315.794L 19.4346,319.703L 24.3754,327.244L 30.3345,323.339C 31.7367,324.89 33.3063,326.292 35.0055,327.512L 31.8044,333.872L 39.856,337.929L 43.0644,331.562C 45.0321,332.2 47.0842,332.621 49.1946,332.83L 49.5986,339.959L 58.5973,339.451L 58.1933,332.319C 60.2751,331.873 62.2654,331.223 64.1488,330.366L 68.057,336.329L 75.5977,331.388L 71.6895,325.433C 73.2497,324.027 74.6424,322.457 75.8675,320.755L 82.2211,323.959L 86.279,315.914L 79.9171,312.703C 80.5552,310.736 80.977,308.684 81.1825,306.57L 88.3097,306.166 Z "/>
			<path fill="#CDD520" fill-opacity="1" stroke-width="0.2" stroke-linejoin="round" d="M 52.6398,313.99C 46.9635,314.312 42.0964,309.966 41.7744,304.29C 41.4523,298.611 45.7978,293.746 51.4741,293.424C 57.1504,293.102 62.0176,297.446 62.3408,303.124C 62.6616,308.801 58.3161,313.668 52.6398,313.99 Z "/>
			<path fill="#CDD520" fill-opacity="1" stroke-width="0.2" stroke-linejoin="round" d="M 314.308,476.868C 304.033,477.453 295.222,469.588 294.64,459.313C 294.058,449.033 301.923,440.227 312.198,439.645C 322.474,439.063 331.282,446.924 331.864,457.203C 332.448,467.478 324.583,476.286 314.308,476.868 Z M 346.576,460.518L 346.107,452.245L 339.556,452.617C 339.147,450.708 338.548,448.876 337.762,447.148L 343.241,443.554L 338.697,436.624L 333.227,440.212C 331.931,438.785 330.496,437.498 328.926,436.375L 331.875,430.531L 324.477,426.8L 321.527,432.654C 319.718,432.067 317.832,431.675 315.885,431.491L 315.514,424.934L 307.241,425.402L 307.612,431.958C 305.707,432.363 303.877,432.97 302.147,433.752L 298.554,428.271L 291.623,432.814L 295.207,438.287C 293.781,439.578 292.494,441.022 291.374,442.583L 285.526,439.638L 281.796,447.035L 287.653,449.988C 287.066,451.795 286.675,453.682 286.49,455.625L 279.929,455.998L 280.398,464.268L 286.958,463.899C 287.362,465.807 287.964,467.637 288.751,469.368L 283.266,472.96L 287.807,479.891L 293.285,476.303C 294.574,477.729 296.017,479.017 297.58,480.138L 294.637,485.983L 302.038,489.713L 304.986,483.861C 306.796,484.448 308.683,484.833 310.621,485.026L 310.993,491.579L 319.264,491.112L 318.892,484.556C 320.806,484.148 322.636,483.55 324.367,482.762L 327.959,488.242L 334.89,483.701L 331.299,478.228C 332.733,476.935 334.013,475.492 335.139,473.926L 340.98,476.873L 344.71,469.477L 338.861,466.526C 339.447,464.718 339.834,462.831 340.025,460.889L 346.576,460.518 Z "/>
			<path fill="#CDD520" fill-opacity="1" stroke-width="0.2" stroke-linejoin="round" d="M 313.788,467.709C 308.57,468.004 304.098,464.011 303.802,458.793C 303.506,453.574 307.499,449.101 312.717,448.806C 317.935,448.51 322.409,452.502 322.705,457.722C 323.001,462.938 319.006,467.413 313.788,467.709 Z "/>
			<path fill="#CDD520" fill-opacity="1" stroke-width="0.2" stroke-linejoin="round" d="M 353.797,435.574C 349.556,435.815 345.918,432.57 345.68,428.328C 345.438,424.085 348.685,420.45 352.927,420.21C 357.168,419.969 360.803,423.216 361.044,427.457C 361.284,431.698 358.038,435.334 353.797,435.574 Z M 367.115,428.826L 366.922,425.411L 364.219,425.565C 364.05,424.777 363.802,424.021 363.477,423.308L 365.74,421.825L 363.864,418.963L 361.606,420.445C 361.071,419.855 360.478,419.323 359.829,418.861L 361.049,416.448L 357.994,414.909L 356.776,417.326C 356.029,417.082 355.251,416.921 354.448,416.843L 354.295,414.138L 350.881,414.333L 351.034,417.037C 350.247,417.205 349.493,417.455 348.776,417.777L 347.294,415.515L 344.433,417.39L 345.913,419.65C 345.324,420.184 344.793,420.779 344.331,421.423L 341.916,420.207L 340.378,423.261L 342.795,424.479C 342.552,425.225 342.392,426.005 342.316,426.806L 339.609,426.96L 339.801,430.374L 342.508,430.221C 342.674,431.009 342.924,431.764 343.248,432.48L 340.984,433.962L 342.86,436.823L 345.12,435.341C 345.652,435.929 346.248,436.461 346.89,436.924L 345.677,439.336L 348.731,440.876L 349.95,438.462C 350.696,438.704 351.475,438.863 352.276,438.941L 352.429,441.646L 355.843,441.454L 355.69,438.748C 356.479,438.578 357.235,438.332 357.948,438.008L 359.431,440.269L 362.291,438.395L 360.81,436.136C 361.401,435.601 361.93,435.006 362.395,434.361L 364.806,435.576L 366.346,432.525L 363.93,431.306C 364.173,430.558 364.334,429.781 364.413,428.978L 367.115,428.826 Z "/>
			<path fill="#CDD520" fill-opacity="1" stroke-width="0.2" stroke-linejoin="round" d="M 353.582,431.793C 351.429,431.916 349.582,430.268 349.46,428.113C 349.339,425.96 350.986,424.114 353.14,423.992C 355.293,423.87 357.14,425.517 357.263,427.67C 357.384,429.826 355.735,431.671 353.582,431.793 Z "/>
			<path fill="#CDD520" fill-opacity="1" stroke-width="0.2" stroke-linejoin="round" d="M 310.308,548.228C 305.554,548.499 301.476,544.86 301.208,540.105C 300.937,535.347 304.578,531.274 309.332,531.004C 314.087,530.733 318.161,534.374 318.432,539.128C 318.699,543.882 315.062,547.958 310.308,548.228 Z M 325.236,540.663L 325.021,536.835L 321.99,537.007C 321.801,536.124 321.523,535.277 321.16,534.477L 323.695,532.814L 321.592,529.607L 319.062,531.268C 318.462,530.607 317.796,530.011 317.07,529.49L 318.436,526.787L 315.012,525.063L 313.647,527.771C 312.808,527.499 311.937,527.317 311.036,527.23L 310.865,524.198L 307.038,524.415L 307.21,527.449C 306.327,527.635 305.481,527.915 304.68,528.278L 303.018,525.741L 299.811,527.844L 301.47,530.377C 300.809,530.973 300.215,531.642 299.697,532.363L 296.99,531.002L 295.265,534.424L 297.975,535.789C 297.703,536.626 297.522,537.501 297.437,538.4L 294.401,538.571L 294.618,542.398L 297.653,542.226C 297.84,543.109 298.118,543.957 298.484,544.758L 295.944,546.419L 298.046,549.626L 300.581,547.965C 301.176,548.625 301.845,549.221 302.566,549.74L 301.206,552.445L 304.629,554.172L 305.995,551.465C 306.83,551.734 307.704,551.914 308.6,552.003L 308.773,555.035L 312.601,554.818L 312.428,551.786C 313.313,551.595 314.16,551.32 314.962,550.956L 316.624,553.491L 319.831,551.39L 318.169,548.856C 318.834,548.258 319.424,547.591 319.946,546.866L 322.649,548.23L 324.373,544.808L 321.667,543.443C 321.939,542.606 322.119,541.733 322.207,540.833L 325.236,540.663 Z "/>
			<path fill="#CDD520" fill-opacity="1" stroke-width="0.2" stroke-linejoin="round" d="M 310.065,543.989C 307.653,544.126 305.583,542.278 305.444,539.865C 305.31,537.45 307.157,535.38 309.571,535.245C 311.986,535.107 314.054,536.952 314.193,539.367C 314.329,541.784 312.48,543.852 310.065,543.989 Z "/>
			<path fill="#CDD520" fill-opacity="1" stroke-width="0.2" stroke-linejoin="round" d="M 193.581,503.689C 189.656,503.912 186.291,500.91 186.07,496.984C 185.847,493.058 188.852,489.695 192.775,489.473C 196.7,489.249 200.065,492.253 200.288,496.179C 200.51,500.103 197.506,503.467 193.581,503.689 Z M 205.906,497.445L 205.727,494.285L 203.225,494.428C 203.069,493.699 202.84,492.999 202.541,492.339L 204.633,490.966L 202.896,488.319L 200.808,489.69C 200.313,489.145 199.765,488.653 199.164,488.224L 200.291,485.991L 197.465,484.567L 196.338,486.803C 195.647,486.579 194.926,486.428 194.184,486.357L 194.042,483.853L 190.883,484.034L 191.025,486.536C 190.297,486.691 189.598,486.924 188.936,487.222L 187.565,485.128L 184.916,486.863L 186.286,488.954C 185.742,489.448 185.25,489.999 184.822,490.594L 182.588,489.47L 181.164,492.295L 183.401,493.422C 183.177,494.113 183.028,494.835 182.958,495.576L 180.452,495.718L 180.63,498.878L 183.135,498.736C 183.29,499.465 183.52,500.163 183.821,500.825L 181.725,502.197L 183.461,504.845L 185.553,503.473C 186.044,504.017 186.596,504.509 187.192,504.939L 186.068,507.171L 188.895,508.595L 190.021,506.361C 190.711,506.586 191.433,506.733 192.173,506.806L 192.316,509.308L 195.474,509.13L 195.333,506.626C 196.062,506.469 196.763,506.241 197.423,505.942L 198.795,508.033L 201.443,506.3L 200.071,504.208C 200.619,503.715 201.107,503.165 201.538,502.566L 203.768,503.691L 205.193,500.868L 202.959,499.74C 203.183,499.049 203.332,498.329 203.404,497.586L 205.906,497.445 Z "/>
			<path fill="#CDD520" fill-opacity="1" stroke-width="0.2" stroke-linejoin="round" d="M 193.383,500.19C 191.391,500.304 189.681,498.78 189.568,496.786C 189.455,494.793 190.981,493.086 192.974,492.972C 194.967,492.859 196.675,494.382 196.788,496.376C 196.901,498.37 195.375,500.077 193.383,500.19 Z "/>
			<path fill="#CDD520" fill-opacity="1" stroke-width="0.2" stroke-linejoin="round" d="M 110.189,420.274C 104.976,420.571 100.507,416.582 100.213,411.369C 99.9168,406.154 103.907,401.687 109.12,401.391C 114.332,401.095 118.801,405.086 119.095,410.297C 119.39,415.51 115.402,419.979 110.189,420.274 Z M 126.556,411.981L 126.32,407.784L 122.996,407.973C 122.79,407.006 122.485,406.075 122.087,405.199L 124.867,403.376L 122.56,399.86L 119.787,401.681C 119.13,400.955 118.401,400.303 117.604,399.734L 119.101,396.769L 115.348,394.877L 113.85,397.847C 112.933,397.548 111.976,397.349 110.989,397.255L 110.801,393.929L 106.606,394.169L 106.793,397.493C 105.827,397.698 104.899,398.007 104.02,398.403L 102.198,395.622L 98.6822,397.926L 100.5,400.703C 99.7765,401.359 99.1242,402.091 98.5562,402.883L 95.5879,401.389L 93.6974,405.142L 96.6681,406.639C 96.3699,407.556 96.1738,408.515 96.0787,409.499L 92.7528,409.688L 92.9892,413.884L 96.3164,413.696C 96.5195,414.663 96.8261,415.592 97.2254,416.47L 94.4425,418.292L 96.7477,421.808L 99.5258,419.988C 100.179,420.71 100.913,421.364 101.703,421.933L 100.211,424.897L 103.964,426.789L 105.461,423.822C 106.379,424.119 107.335,424.315 108.319,424.412L 108.508,427.736L 112.704,427.5L 112.516,424.174C 113.484,423.966 114.415,423.664 115.292,423.265L 117.114,426.043L 120.629,423.741L 118.809,420.964C 119.536,420.307 120.185,419.576 120.756,418.782L 123.719,420.276L 125.612,416.526L 122.643,415.029C 122.942,414.111 123.139,413.155 123.235,412.168L 126.556,411.981 Z "/>
			<path fill="#CDD520" fill-opacity="1" stroke-width="0.2" stroke-linejoin="round" d="M 109.925,415.628C 107.28,415.777 105.009,413.753 104.86,411.105C 104.71,408.459 106.735,406.19 109.382,406.041C 112.028,405.891 114.298,407.913 114.449,410.56C 114.599,413.21 112.573,415.478 109.925,415.628 Z "/>
		</g>
		<path fill="#FFFFFF" fill-opacity="1" stroke-width="0.2" stroke-linejoin="round" d="M 334.755,575.608C 334.755,584.858 327.256,592.36 318.001,592.36L 156.755,592.36C 147.499,592.36 140.001,584.858 140.001,575.608C 140.001,566.356 147.499,558.857 156.755,558.857L 318.001,558.857C 327.256,558.857 334.755,566.356 334.755,575.608 Z M 334.755,618.787C 334.755,628.04 327.256,635.539 318.001,635.539L 156.755,635.539C 147.499,635.539 140.001,628.04 140.001,618.787C 140.001,609.535 147.499,602.036 156.755,602.036L 318.001,602.036C 327.256,602.036 334.755,609.535 334.755,618.787 Z M 334.755,661.968C 334.755,671.219 327.256,678.718 318.001,678.718L 156.755,678.718C 147.499,678.718 140.001,671.219 140.001,661.968C 140.001,652.715 147.499,645.215 156.755,645.215L 318.001,645.215C 327.256,645.215 334.755,652.715 334.755,661.968 Z M 176.363,688.881L 298.392,688.881L 298.392,698.53C 298.392,722.456 278.996,741.852 255.07,741.852L 219.686,741.852C 195.759,741.852 176.363,722.456 176.363,698.53L 176.363,688.881 Z "/>
	</g>
</svg>
