<svg style="position: absolute; width: 0; height: 0;" width="0" height="0" version="1.1" xmlns="http://www.w3.org/2000/svg" xmlns:xlink="http://www.w3.org/1999/xlink">
    <defs>
        <symbol id="logo" viewBox="0 0 42.00 42.00">
            <title>logo</title>
            <g>
                <path fill="#6B65B8" fill-opacity="1" stroke-width="0.2" stroke-linejoin="round" d="M 26.9601,5.10364L 15.8326,5.10364L 25.3715,36.8976L 30.1393,36.8976L 33.3191,26.299L 26.9601,5.10364 Z "/>
                <linearGradient id="SVGID_Fill1_" gradientUnits="objectBoundingBox" x1="0.267509" y1="0.198821" x2="1.11154" y2="0.198821" gradientTransform="rotate(70.709808 0.267509 0.198821)">
                    <stop offset="0.223256" stop-color="#48447C" stop-opacity="1"/>
                    <stop offset="0.865116" stop-color="#6B65B8" stop-opacity="0"/>
                </linearGradient>
                <path fill="url(#SVGID_Fill1_)" stroke-width="0.2" stroke-linejoin="round" d="M 26.9612,5.10242L 15.8337,5.10242L 25.3726,36.8964L 36.5,36.8964L 26.9612,5.10242 Z "/>
                <path fill="#F5F5F5" fill-opacity="1" stroke-width="0.2" stroke-linejoin="round" d="M 15.0388,5.10242L 26.1663,5.10242L 16.6275,36.8964L 5.50003,36.8964L 15.0388,5.10242 Z "/>
            </g>
        </symbol>
        <symbol id="arrow-left" viewBox="0 0 42.00 42.00">
            <title>arrow-left</title>
	        <path class="symbol-path" d="M 11.8357,20.9882L 27.8732,4.95071L 30.1642,7.24185L 16.4058,21L 30.1642,34.7585L 27.8733,37.0495L 11.8358,21.0121L 11.8477,21.0002L 11.8357,20.9882 Z "/>
        </symbol>
        <symbol id="arrow-right" viewBox="0 0 42.00 42.00">
            <title>arrow-right</title>	        
            <path class="symbol-path" d="M 30.1643,21.0119L 14.1268,37.0493L 11.8358,34.7582L 25.5942,20.9999L 11.8358,7.24161L 14.1267,4.95047L 30.1642,20.9879L 30.1523,20.9999L 30.1643,21.0119 Z "/>
        </symbol>
        <symbol id="arrow-down" viewBox="0 0 42.00 42.00">
            <title>arrow-down</title>
            <path class="symbol-path" d="M 20.9881,30.1644L 4.95063,14.1268L 7.24172,11.8358L 21,25.5942L 34.7584,11.8358L 37.0494,14.1268L 21.012,30.1643L 21.0001,30.1525L 20.9881,30.1644 Z "/>
        </symbol>
        <symbol id="search" viewBox="0 0 42.00 42.00">
            <title>search</title>
            <path class="symbol-path" d="M 31.8761,18.575C 31.8761,26.0722 25.8596,32.1498 18.4381,32.1498C 11.0165,32.1498 5.00006,26.0722 5.00006,18.575C 5.00006,11.0778 11.0165,5.00003 18.4381,5.00003C 25.8596,5.00003 31.8761,11.0778 31.8761,18.575 Z M 8.37177,18.5752C 8.37177,24.1912 12.8786,28.7437 18.438,28.7437C 23.9973,28.7437 28.5041,24.1912 28.5041,18.5752C 28.5041,12.9593 23.9973,8.40652 18.438,8.40652C 12.8786,8.40652 8.37177,12.9593 8.37177,18.5752 Z M 30.9573,28.6642L 37.0381,34.7449L 34.783,37L 28.7023,30.9193L 30.9573,28.6642 Z "/>
        </symbol>
        <symbol id="users" viewBox="0 0 42.00 42.00">
            <title>users</title>
            <path class="symbol-path" d="M 4.91194,27.8182C 4.91194,28.0531 4.91194,28.4669 4.91194,29.0597C 4.91194,29.6525 4.91194,30.0436 4.91194,30.2329C 4.91194,30.3732 4.9716,30.5616 5.09092,30.7982C 5.21024,31.035 5.45929,31.1534 5.83808,31.1534C 6.12217,31.1534 7.11649,31.1534 8.82103,31.1534C 10.5256,31.1534 11.8987,31.1534 12.9403,31.1534C 13.2699,31.1534 13.518,31.1534 13.6847,31.1534C 13.8513,31.1534 13.9347,31.1534 13.9347,31.1534L 14.1449,31.1534L 14.2159,31.1534C 14.2633,31.1534 14.3343,31.1534 14.429,31.1534C 14.429,31.4375 14.429,31.6866 14.429,31.9006C 14.429,32.1146 14.429,32.2689 14.429,32.3636C 14.429,32.5985 14.5123,32.8466 14.679,33.108C 14.8456,33.3694 15.1657,33.5001 15.6392,33.5001C 15.9687,33.5001 17.1989,33.5001 19.3295,33.5001C 21.4602,33.5001 23.1411,33.5001 24.3721,33.5001C 24.8002,33.5001 25.1202,33.5001 25.3324,33.5001C 25.5445,33.5001 25.6506,33.5001 25.6506,33.5001L 25.8665,33.5001C 25.8665,33.5001 25.9848,33.5001 26.2216,33.5001C 26.4583,33.5001 26.7661,33.5001 27.1449,33.5001C 28.4214,33.5001 30.125,33.5001 32.2557,33.5001C 34.3863,33.5001 35.6183,33.5001 35.9517,33.5001C 36.3759,33.5001 36.6714,33.3694 36.838,33.108C 37.0047,32.8466 37.088,32.5985 37.088,32.3636C 37.088,32.1743 37.088,31.7122 37.088,30.9773C 37.088,30.2424 37.088,29.7103 37.088,29.3807C 37.088,29.0966 37.017,28.7889 36.875,28.4574C 36.7329,28.126 36.4252,27.8656 35.9517,27.6761C 35.6676,27.5322 35.2651,27.3656 34.7443,27.1761C 34.2235,26.9867 33.679,26.7747 33.1108,26.5398C 32.4933,26.3505 31.8892,26.1487 31.2983,25.9347C 30.7074,25.7207 30.1506,25.5436 29.6278,25.4034C 29.5824,25.4034 29.5473,25.3674 29.5227,25.2955C 29.4981,25.2235 29.4858,25.0227 29.4858,24.6932C 29.4858,24.3143 29.5095,23.9943 29.5568,23.733C 29.6041,23.4716 29.6524,23.2462 29.7017,23.0569C 29.8418,22.7727 29.9716,22.4413 30.0909,22.0626C 30.2102,21.6837 30.2926,21.2822 30.3381,20.858C 30.5274,20.714 30.7055,20.465 30.8721,20.1108C 31.0388,19.7567 31.1922,19.2482 31.3324,18.5853C 31.4271,18.0625 31.463,17.6714 31.4403,17.412C 31.4176,17.1525 31.3589,16.9281 31.2642,16.7386L 31.2642,16.5966C 31.2149,16.4528 31.214,16.109 31.2613,15.5654C 31.3087,15.0219 31.3797,14.4659 31.4744,13.8977C 31.5237,13.5645 31.4886,13.0549 31.3693,12.3693C 31.25,11.6837 30.9308,11.0322 30.4119,10.4148C 30.268,10.1799 30.0776,9.95557 29.8409,9.74158C 29.6041,9.52747 29.321,9.35046 28.9915,9.21033C 28.6581,9.02087 28.2784,8.8551 27.8523,8.71313C 27.4261,8.57104 26.9536,8.50012 26.4346,8.50012L 25.2244,8.50012C 24.6562,8.50012 24.1591,8.57104 23.7329,8.71313C 23.3068,8.8551 22.929,9.02087 22.5994,9.21033C 22.2661,9.35046 21.9934,9.52747 21.7812,9.74158C 21.5691,9.95557 21.3684,10.1799 21.179,10.4148C 20.7055,11.0322 20.3977,11.6837 20.2557,12.3693C 20.1136,13.0549 20.09,13.5645 20.1847,13.8977C 20.2794,14.4659 20.3381,15.0219 20.3608,15.5654C 20.3835,16.109 20.3949,16.4528 20.3608,16.6307L 20.3267,16.7386C 20.2775,16.9281 20.2292,17.1525 20.1818,17.412C 20.1345,17.6714 20.1828,18.0625 20.3267,18.5853C 20.4214,19.2482 20.5634,19.7567 20.7528,20.1108C 20.9422,20.465 21.107,20.714 21.2472,20.858C 21.2964,21.2822 21.3797,21.6837 21.4972,22.0626C 21.6146,22.4413 21.7453,22.7727 21.8892,23.0569C 21.9839,23.2955 22.0786,23.5569 22.1733,23.8409C 22.268,24.125 22.3153,24.4092 22.3153,24.6932C 22.3153,25.0227 22.303,25.2112 22.2784,25.2585C 22.2538,25.3059 22.2187,25.3541 22.1733,25.4034C 21.9347,25.4489 21.7093,25.5077 21.4972,25.5795C 21.285,25.6515 21.0597,25.7349 20.821,25.8296C 20.5369,25.7349 20.2292,25.6278 19.8977,25.5085C 19.5663,25.3893 19.2585,25.2822 18.9744,25.1875C 18.6449,25.0474 18.3258,24.9299 18.017,24.8352C 17.7083,24.7406 17.4365,24.6686 17.2017,24.6193C 17.107,24.5739 17.0597,24.5275 17.0597,24.4801C 17.0597,24.4327 17.0597,24.267 17.0597,23.983C 17.0597,23.6989 17.071,23.4498 17.0937,23.2358C 17.1165,23.0219 17.1752,22.8447 17.2699,22.7046C 17.3646,22.4659 17.4593,22.1932 17.554,21.8864C 17.6487,21.5796 17.7206,21.2594 17.7699,20.9261C 17.8646,20.786 17.9829,20.5739 18.125,20.2899C 18.267,20.0057 18.4081,19.6023 18.5483,19.0796C 18.5975,18.6554 18.6098,18.3362 18.5852,18.1222C 18.5606,17.9082 18.5256,17.7064 18.4801,17.4489C 18.4309,17.3541 18.4299,17.0814 18.4773,16.6307C 18.5246,16.1799 18.5729,15.7424 18.6222,15.3182C 18.6676,15.0341 18.643,14.608 18.5483,14.0398C 18.4536,13.4717 18.1941,12.9261 17.7699,12.4034C 17.6752,12.2633 17.5331,12.1099 17.3437,11.9432C 17.1544,11.7766 16.9176,11.6232 16.6335,11.483C 16.3949,11.339 16.0985,11.2084 15.7443,11.0909C 15.3901,10.9735 14.999,10.9148 14.571,10.9148L 13.5767,10.9148C 13.1525,10.9148 12.7623,10.9735 12.4063,11.0909C 12.0502,11.2084 11.7547,11.339 11.5199,11.483C 11.2358,11.6232 10.9991,11.7766 10.8097,11.9432C 10.6203,12.1099 10.4782,12.2633 10.3835,12.4034C 9.9555,12.9261 9.69413,13.4717 9.59943,14.0398C 9.50474,14.608 9.48201,15.0341 9.53126,15.3182C 9.57671,15.7424 9.62311,16.1799 9.67046,16.6307C 9.71781,17.0814 9.71876,17.3541 9.6733,17.5171C 9.57861,17.7064 9.51894,17.9082 9.49432,18.1222C 9.4697,18.3362 9.50474,18.6554 9.59943,19.0796C 9.74338,19.6023 9.88637,20.0057 10.0284,20.2899C 10.1705,20.5739 10.2888,20.786 10.3835,20.9261C 10.429,21.2594 10.4991,21.5796 10.5938,21.8864C 10.6885,22.1932 10.7831,22.4659 10.8778,22.7046C 10.9725,22.8939 11.0559,23.0947 11.1278,23.3068C 11.1998,23.5189 11.2358,23.7444 11.2358,23.983C 11.2358,24.267 11.2358,24.4327 11.2358,24.4801C 11.2358,24.5275 11.1885,24.5511 11.0938,24.5511C 10.715,24.6913 10.2888,24.8324 9.81535,24.9745C 9.34187,25.1166 8.86838,25.2822 8.39489,25.4716C 7.92141,25.6156 7.4716,25.7699 7.04546,25.9347C 6.61933,26.0995 6.28694,26.2292 6.0483,26.3239C 5.66952,26.4679 5.38543,26.6819 5.19603,26.9659C 5.00664,27.25 4.91194,27.5341 4.91194,27.8182 Z M 15.6392,29.3807C 15.6392,29.3314 15.6865,29.2245 15.7813,29.0597C 15.8759,28.8949 16.0407,28.7651 16.2756,28.6705C 16.6089,28.5265 17.0237,28.3599 17.5199,28.1705C 18.0161,27.9811 18.5729,27.7916 19.1903,27.6023C 19.7585,27.4128 20.3381,27.2235 20.929,27.0341C 21.5199,26.8447 22.0294,26.6799 22.4574,26.5398C 22.9763,26.3959 23.2831,26.1232 23.3778,25.7217C 23.4725,25.3201 23.5199,24.9773 23.5199,24.6932C 23.5199,24.2653 23.4612,23.8741 23.3437,23.5199C 23.2263,23.1658 23.0956,22.8466 22.9517,22.5626C 22.857,22.3239 22.7623,22.0388 22.6676,21.7074C 22.5729,21.376 22.5028,21.0455 22.4574,20.7159L 22.3835,20.358L 22.1733,20.0739C 22.0786,20.0284 21.9716,19.875 21.8523,19.6136C 21.7329,19.3523 21.6032,18.9376 21.4631,18.3693C 21.3684,17.9451 21.3324,17.662 21.3551,17.5199C 21.3778,17.3779 21.4138,17.2595 21.4631,17.1648L 21.4631,17.0909L 21.4972,17.0199L 21.5312,16.9489L 21.5312,16.8807L 21.5312,16.8807C 21.5805,16.5966 21.5814,16.1108 21.5341,15.4232C 21.4867,14.7358 21.4157,14.1554 21.321,13.6818C 21.2718,13.4926 21.2945,13.1373 21.3892,12.6165C 21.4839,12.0957 21.7206,11.5985 22.0994,11.1251C 22.2888,10.8903 22.4905,10.6895 22.7045,10.5228C 22.9185,10.3561 23.1676,10.2255 23.4517,10.1307C 23.6865,9.9906 23.9583,9.88452 24.267,9.81262C 24.5757,9.7406 24.9195,9.68188 25.2983,9.63635L 26.3608,9.63635C 26.7888,9.68188 27.1685,9.75195 27.5,9.84668C 27.8314,9.94128 28.1392,10.0607 28.4233,10.2046C 28.6581,10.3447 28.8589,10.4982 29.0256,10.6648C 29.1922,10.8314 29.3456,10.9849 29.4858,11.1251C 29.8646,11.5985 30.1013,12.0957 30.196,12.6165C 30.2907,13.1373 30.3153,13.4926 30.2699,13.6818C 30.1752,14.1554 30.1041,14.7358 30.0568,15.4232C 30.0095,16.1108 30.0085,16.572 30.054,16.8069L 30.054,16.8807L 30.054,16.8807C 30.1032,16.9261 30.1278,16.9725 30.1278,17.0199C 30.1278,17.0673 30.1506,17.1156 30.196,17.1648C 30.196,17.2595 30.2083,17.3779 30.2329,17.5199C 30.2576,17.662 30.2225,17.9451 30.1278,18.3693C 30.0331,18.9376 29.9148,19.3523 29.7727,19.6136C 29.6307,19.875 29.535,20.0284 29.4858,20.0739L 29.2017,20.358L 29.2017,20.7159C 29.1562,21.0455 29.0738,21.376 28.9545,21.7074C 28.8352,22.0388 28.7282,22.3239 28.6335,22.5626C 28.5388,22.8466 28.4564,23.1544 28.3863,23.4858C 28.3163,23.8173 28.2812,24.2197 28.2812,24.6932C 28.2812,25.0227 28.3286,25.377 28.4233,25.7557C 28.518,26.1344 28.8021,26.3959 29.2756,26.5398C 29.749,26.6799 30.2935,26.8571 30.9091,27.071C 31.5246,27.285 32.1165,27.4867 32.6846,27.6761C 33.2528,27.8656 33.785,28.0551 34.2812,28.2443C 34.7774,28.4337 35.1676,28.5985 35.4517,28.7386C 35.6411,28.8334 35.7594,28.9281 35.8068,29.0228C 35.8541,29.1174 35.8778,29.2368 35.8778,29.3807L 35.8778,32.3636L 15.6392,32.3636L 15.6392,29.3807 Z M 6.12217,27.8182C 6.12217,27.7689 6.14584,27.7094 6.19319,27.6393C 6.24054,27.5691 6.33429,27.5095 6.47444,27.4602C 6.75853,27.3202 7.10228,27.179 7.50569,27.037C 7.9091,26.8949 8.34754,26.7292 8.82103,26.5398C 9.29451,26.3959 9.75568,26.2528 10.2046,26.1108C 10.6534,25.9689 11.0672,25.8276 11.446,25.6875C 11.9688,25.5436 12.2652,25.2822 12.3352,24.9034C 12.4053,24.5247 12.4403,24.2179 12.4403,23.983C 12.4403,23.6497 12.393,23.3296 12.2983,23.0228C 12.2036,22.7159 12.0862,22.4205 11.946,22.1364C 11.8968,21.9926 11.8248,21.7908 11.7301,21.5313C 11.6354,21.2717 11.5881,21.0228 11.5881,20.7841L 11.5199,20.4319L 11.304,20.1477C 11.2585,20.0985 11.1885,19.9791 11.0938,19.7898C 10.9991,19.6005 10.9044,19.2936 10.8097,18.8693C 10.7604,18.536 10.7358,18.3219 10.7358,18.2273C 10.7358,18.1327 10.7358,18.0625 10.7358,18.017L 10.7358,17.9432L 10.8097,17.9432L 10.8097,17.8011L 10.8097,17.733L 10.8778,17.733C 10.9271,17.4489 10.928,17.0104 10.8807,16.4176C 10.8333,15.8248 10.7623,15.3864 10.6676,15.1023C 10.6676,14.962 10.7027,14.7026 10.7727,14.3239C 10.8428,13.9452 11.0199,13.5663 11.304,13.1876C 11.3987,12.9982 11.5294,12.8438 11.696,12.7245C 11.8627,12.6051 12.0407,12.4982 12.2301,12.4034C 12.465,12.3087 12.6894,12.2378 12.9034,12.1903C 13.1174,12.1429 13.3665,12.0966 13.6506,12.0511L 14.5028,12.0511C 15.1657,12.0966 15.6742,12.2378 16.0284,12.4745C 16.3826,12.7113 16.6544,12.9489 16.8437,13.1876C 17.1278,13.5663 17.3059,13.9452 17.3778,14.3239C 17.4498,14.7026 17.4858,14.962 17.4858,15.1023C 17.3911,15.4357 17.3201,15.8864 17.2727,16.4546C 17.2254,17.0227 17.2244,17.4489 17.2699,17.733L 17.2699,17.733C 17.3191,17.7784 17.3437,17.8248 17.3437,17.8722C 17.3437,17.9196 17.3665,17.9679 17.4119,18.017C 17.4119,18.0625 17.4119,18.1327 17.4119,18.2273C 17.4119,18.3219 17.3892,18.536 17.3437,18.8693C 17.249,19.2936 17.1544,19.6005 17.0597,19.7898C 16.965,19.9791 16.893,20.0985 16.8437,20.1477L 16.6335,20.4319L 16.5597,20.7841C 16.5597,21.0228 16.5123,21.2717 16.4176,21.5313C 16.3229,21.7908 16.2282,22.0151 16.1335,22.2046C 16.0388,22.4432 15.9678,22.7046 15.9204,22.9886C 15.8731,23.2728 15.8494,23.6041 15.8494,23.983C 15.8494,24.267 15.8854,24.5862 15.9574,24.9403C 16.0294,25.2946 16.3248,25.5663 16.8437,25.7557C 17.1278,25.8049 17.4593,25.9005 17.8381,26.0426C 18.2169,26.1847 18.5956,26.3031 18.9744,26.3978C 18.3608,26.6326 17.7699,26.8571 17.2017,27.071C 16.6335,27.285 16.1828,27.4622 15.8494,27.6023C 15.3759,27.7916 15.0208,28.0643 14.7841,28.4204C 14.5473,28.7766 14.429,29.0966 14.429,29.3807C 14.429,29.4755 14.429,29.5701 14.429,29.6648C 14.429,29.7594 14.429,29.8542 14.429,29.9489L 6.12217,29.9489L 6.12217,27.8182 Z "/>
        </symbol>
        <symbol id="report" viewBox="0 0 42.00 42.00">
            <title>report</title>
            <path class="symbol-path" d="M 37,21.003C 37,18.8477 36.5994,16.8184 35.7981,14.9156C 34.9969,13.0125 33.9192,11.336 32.5651,9.88565C 31.1629,8.43143 29.5233,7.27859 27.6464,6.42728C 25.7695,5.57596 23.7793,5.10013 21.676,5.00003L 20.3239,5.00003L 20.3239,5.00003C 18.2207,5.10013 16.2296,5.57596 14.3506,6.42728C 12.4717,7.27859 10.8311,8.43143 9.42891,9.88565C 8.07881,11.336 7.00313,13.0125 6.20189,14.9156C 5.40062,16.8184 5,18.8477 5,21.003C 5,23.2065 5.41264,25.2847 6.23793,27.2378C 7.06322,29.1908 8.203,30.8924 9.65727,32.3427C 11.1075,33.7969 12.8092,34.9368 14.7623,35.7621C 16.7153,36.5874 18.7936,37 20.997,37C 21.7982,37 22.5624,36.95 23.2896,36.8498C 24.0167,36.7495 24.7549,36.5994 25.504,36.3991C 26.2051,36.1988 26.8812,35.9483 27.5322,35.6479C 28.1832,35.3474 28.8353,34.9969 29.4883,34.5962L 29.939,34.2957L 30.5399,33.9231L 30.5399,33.845C 31.4894,33.144 32.3647,32.3177 33.166,31.3662C 33.9673,30.4147 34.6684,29.4141 35.2693,28.3645C 35.8222,27.2627 36.2488,26.086 36.5493,24.834C 36.8498,23.5821 37,22.3051 37,21.003 Z M 34.446,15.0657L 21.676,20.1016L 21.676,6.28006C 23.0782,6.32816 24.4304,6.57742 25.7324,7.02811C 27.0344,7.47879 28.2603,8.10477 29.4101,8.90604C 30.5119,9.65921 31.4884,10.5617 32.3397,11.6133C 33.191,12.6649 33.8931,13.8157 34.446,15.0657 Z M 20.997,35.726C 18.9458,35.726 17.0308,35.3374 15.252,34.5602C 13.4732,33.783 11.9088,32.7433 10.5587,31.4413C 9.25665,30.0911 8.21703,28.5268 7.43982,26.7481C 6.6626,24.9693 6.27399,23.0542 6.27399,21.003C 6.27399,19.048 6.63756,17.194 7.36469,15.4413C 8.09184,13.6885 9.1064,12.1372 10.4084,10.787C 11.6584,9.48502 13.1347,8.43338 14.8374,7.63211C 16.54,6.83084 18.3689,6.38016 20.3239,6.28006L 20.3239,21.2254L 28.7371,33.5446C 28.1842,33.8971 27.5953,34.2106 26.9703,34.4851C 26.3454,34.7596 25.7064,34.9729 25.0533,35.125C 24.4043,35.3255 23.7413,35.4756 23.0642,35.5757C 22.3872,35.6759 21.6981,35.726 20.997,35.726 Z M 29.7887,32.7935L 21.9765,21.3035L 34.9688,16.2676C 35.069,16.6201 35.1691,16.9967 35.2693,17.3974C 35.3694,17.798 35.4456,18.1986 35.4977,18.5993C 35.5978,18.9478 35.6599,19.3355 35.6839,19.7621C 35.708,20.1888 35.72,20.6023 35.72,21.003C 35.72,22.2049 35.5828,23.3687 35.3083,24.4945C 35.0339,25.6201 34.6463,26.6839 34.1456,27.6855C 33.5927,28.687 32.9537,29.6265 32.2285,30.5039C 31.5034,31.3811 30.6901,32.1443 29.7887,32.7935 Z "/>
        </symbol>
        <symbol id="settings" viewBox="0 0 42.00 42.00">
            <title>settings</title>
            <path class="symbol-path" d="M 22.95,6.27991L 22.95,9.35669L 23.8515,9.65723C 24.1519,9.70923 24.4273,9.7854 24.6778,9.88562C 24.9281,9.98572 25.2036,10.0858 25.5041,10.186C 25.7564,10.2863 26.0078,10.3983 26.2582,10.5226C 26.5086,10.6467 26.734,10.785 26.9343,10.9371L 27.8357,11.4601L 30.0892,9.20642L 32.7934,11.9108L 30.5399,14.2423L 30.9906,15.0657C 31.1388,15.318 31.2761,15.5564 31.4023,15.7809C 31.5284,16.0051 31.6416,16.2435 31.7418,16.496C 31.8419,16.7964 31.9291,17.0718 32.0032,17.3221C 32.0773,17.5726 32.1404,17.8219 32.1925,18.0703L 32.4148,19.0499L 35.72,19.0499L 35.72,22.9559L 32.3427,22.9559L 32.1143,23.8574C 32.0142,24.1058 31.9271,24.3551 31.853,24.6056C 31.7788,24.856 31.6917,25.1073 31.5916,25.3597C 31.4914,25.6082 31.3782,25.8456 31.252,26.0719C 31.1258,26.2982 30.9886,26.5355 30.8404,26.7839L 30.3116,27.6133L 32.7934,30.0891L 30.0892,32.7933L 27.6073,30.3175L 26.7059,30.7682C 26.5056,30.9164 26.2933,31.0406 26.0689,31.1407C 25.8446,31.2408 25.6062,31.3411 25.3538,31.4413C 25.1054,31.5414 24.856,31.6295 24.6056,31.7057C 24.3553,31.7817 24.1039,31.87 23.8515,31.9701L 22.95,32.1924L 22.95,35.726L 19.0439,35.726L 19.0439,32.1924L 18.1425,31.9701C 17.8941,31.87 17.6447,31.7817 17.3944,31.7057C 17.144,31.6295 16.8926,31.5414 16.6402,31.4413C 16.3918,31.3411 16.1544,31.2408 15.9281,31.1407C 15.7017,31.0406 15.4884,30.9164 15.2881,30.7682L 14.3867,30.3175L 11.9108,32.7933L 9.20657,30.0891L 11.6824,27.6133L 11.1596,26.7839C 11.0074,26.5355 10.8692,26.2982 10.745,26.0719C 10.6208,25.8456 10.5086,25.6082 10.4084,25.3597C 10.3083,25.1073 10.2202,24.856 10.144,24.6056C 10.0679,24.3551 9.97977,24.1058 9.87961,23.8574L 9.65729,22.9559L 6.27399,22.9559L 6.27399,19.0499L 9.57916,19.0499L 9.80753,18.0703C 9.85559,17.8219 9.91769,17.5726 9.9938,17.3221C 10.0699,17.0718 10.1581,16.7964 10.2582,16.496C 10.3584,16.2435 10.4706,16.0051 10.5948,15.7809C 10.7189,15.5564 10.8571,15.318 11.0094,15.0657L 11.4601,14.2423L 9.20657,11.9108L 11.9108,9.20642L 14.1643,11.4601L 15.0657,10.9371C 15.2661,10.785 15.4914,10.6467 15.7418,10.5226C 15.9922,10.3983 16.2416,10.2863 16.49,10.186C 16.7904,10.0858 17.0659,9.98572 17.3163,9.88562C 17.5666,9.7854 17.8421,9.70923 18.1425,9.65723L 19.0439,9.35669L 19.0439,6.27991L 22.95,6.27991 Z M 20.997,26.7839C 21.7982,26.7839 22.5494,26.6337 23.2505,26.3333C 23.9516,26.0328 24.5526,25.6082 25.0533,25.0592C 25.6062,24.5585 26.0329,23.9575 26.3333,23.2565C 26.6338,22.5553 26.784,21.8042 26.784,21.0029C 26.784,20.2017 26.6338,19.4506 26.3333,18.7494C 26.0329,18.0483 25.6062,17.4474 25.0533,16.9467C 24.5526,16.3938 23.9516,15.967 23.2505,15.6666C 22.5494,15.3661 21.7982,15.2159 20.997,15.2159C 20.1957,15.2159 19.4446,15.3661 18.7435,15.6666C 18.0424,15.967 17.4414,16.3938 16.9406,16.9467C 16.3918,17.4474 15.9671,18.0483 15.6667,18.7494C 15.3662,19.4506 15.216,20.2017 15.216,21.0029C 15.216,21.8042 15.3662,22.5553 15.6667,23.2565C 15.9671,23.9575 16.3918,24.5585 16.9406,25.0592C 17.4414,25.6082 18.0424,26.0328 18.7435,26.3333C 19.4446,26.6337 20.1957,26.7839 20.997,26.7839 Z M 24.23,4.99988L 17.77,4.99988L 17.77,8.38318C 17.4695,8.4834 17.169,8.5835 16.8686,8.68372C 16.5681,8.78381 16.2917,8.88403 16.0392,8.98413C 15.7388,9.13245 15.4513,9.26965 15.1769,9.39587C 14.9025,9.52197 14.6391,9.65918 14.3867,9.8075L 11.9108,7.40369L 7.40375,11.9108L 9.87961,14.3926C 9.73141,14.6931 9.59418,14.9685 9.46799,15.2189C 9.34177,15.4694 9.22861,15.7448 9.12845,16.0452C 8.98022,16.3457 8.86804,16.6331 8.79193,16.9076C 8.71579,17.182 8.62766,17.4694 8.5275,17.7699L 5,17.7699L 5,24.23L 8.67776,24.23C 8.72983,24.4823 8.80594,24.7457 8.9061,25.0203C 9.00626,25.2947 9.13046,25.5822 9.27869,25.8826C 9.37885,26.1349 9.49203,26.3983 9.61823,26.6729C 9.74442,26.9473 9.88162,27.1846 10.0299,27.3849L 7.40375,30.0891L 11.9108,34.5962L 14.615,31.892C 14.8634,32.0442 15.1128,32.1824 15.3632,32.3066C 15.6136,32.4308 15.889,32.543 16.1895,32.6432C 16.4419,32.7433 16.7053,32.8434 16.9797,32.9436C 17.2542,33.0437 17.5175,33.1199 17.77,33.172L 17.77,36.9999L 24.23,36.9999L 24.23,33.172C 24.4784,33.1199 24.7408,33.0437 25.0173,32.9436C 25.2937,32.8434 25.5561,32.7433 25.8045,32.6432C 26.105,32.543 26.3804,32.4308 26.6308,32.3066C 26.8812,32.1824 27.1326,32.0442 27.385,31.892L 30.0892,34.5962L 34.5963,30.0891L 31.9641,27.3849C 32.1164,27.1846 32.2546,26.9473 32.3788,26.6729C 32.503,26.3983 32.6151,26.1349 32.7153,25.8826C 32.8675,25.5822 32.9937,25.2947 33.0939,25.0203C 33.1941,24.7457 33.2682,24.4823 33.3163,24.23L 37,24.23L 37,17.7699L 33.4665,17.7699C 33.3663,17.4694 33.2792,17.182 33.2051,16.9076C 33.131,16.6331 33.0178,16.3457 32.8655,16.0452C 32.7654,15.7448 32.6532,15.4694 32.529,15.2189C 32.4048,14.9685 32.2666,14.6931 32.1143,14.3926L 34.5963,11.9108L 30.0892,7.40369L 27.6073,9.8075C 27.3589,9.65918 27.0965,9.52197 26.8201,9.39587C 26.5437,9.26965 26.2552,9.13245 25.9547,8.98413C 25.7064,8.88403 25.4319,8.78381 25.1314,8.68372C 24.831,8.5835 24.5305,8.4834 24.23,8.38318L 24.23,4.99988 Z M 20.997,25.51C 20.3961,25.51 19.8202,25.3848 19.2693,25.1344C 18.7184,24.884 18.2427,24.5585 17.8421,24.1578C 17.4414,23.7572 17.1159,23.2815 16.8655,22.7306C 16.6151,22.1798 16.49,21.6039 16.49,21.0029C 16.49,20.402 16.6151,19.826 16.8655,19.2753C 17.1159,18.7244 17.4414,18.2487 17.8421,17.848C 18.2427,17.4474 18.7184,17.1219 19.2693,16.8715C 19.8202,16.6211 20.3961,16.496 20.997,16.496C 21.5979,16.496 22.1738,16.6211 22.7247,16.8715C 23.2755,17.1219 23.7513,17.4474 24.1519,17.848C 24.5526,18.2487 24.8781,18.7244 25.1284,19.2753C 25.3788,19.826 25.5041,20.402 25.5041,21.0029C 25.5041,21.6039 25.3788,22.1798 25.1284,22.7306C 24.8781,23.2815 24.5526,23.7572 24.1519,24.1578C 23.7513,24.5585 23.2755,24.884 22.7247,25.1344C 22.1738,25.3848 21.5979,25.51 20.997,25.51 Z "/>
        </symbol>
        <symbol id="home" viewBox="0 0 42.00 42.00">
            <title>home</title>
            <path class="symbol-path" d="M 20.9249,4.99988L 14.5429,11.3878L 14.5429,8.83386L 9.35675,8.83386L 9.35675,16.4958L 4.8497,21.0029L 5.75111,21.9043L 20.9249,6.80261L 36.0986,21.9043L 37,21.0029L 20.9249,4.99988 Z M 10.7089,10.1078L 13.2629,10.1078L 13.2629,12.6619L 10.7089,15.2158L 10.7089,10.1078 Z M 9.35675,21.6759L 9.35675,36.9999L 18.3709,36.9999L 18.3709,28.064L 23.4789,28.064L 23.4789,36.9999L 32.493,36.9999L 32.493,21.6759L 20.9249,10.1078L 9.35675,21.6759 Z M 31.1408,35.726L 24.7589,35.726L 24.7589,26.7839L 17.0969,26.7839L 17.0969,35.726L 10.7089,35.726L 10.7089,22.2047L 20.9249,11.9106L 31.1408,22.2047L 31.1408,35.726 Z "/>
        </symbol>
        <symbol id="calendar" viewBox="0 0 42.00 42.00">
            <title>calendar</title>
            <path class="symbol-path" d="M 5.00001,5L 5.00001,36.9999L 37,36.9999L 37,5L 5.00001,5 Z M 35.6701,6.32996L 35.6701,12.3365L 6.32371,12.3365L 6.32371,6.32996L 35.6701,6.32996 Z M 6.32371,35.6763L 6.32371,13.6664L 35.6701,13.6664L 35.6701,35.6763L 6.32371,35.6763 Z M 14.9902,8.35913L 17.0195,8.35913L 17.0195,10.3884L 14.9902,10.3884L 14.9902,8.35913 Z M 24.9805,8.35913L 27.0098,8.35913L 27.0098,10.3884L 24.9805,10.3884L 24.9805,8.35913 Z M 16.4701,18.4243C 16.366,18.8407 16.2494,19.1528 16.1204,19.361C 15.9914,19.569 15.8228,19.7251 15.6146,19.8292C 15.4065,19.9332 15.1588,19.9989 14.8716,20.0259C 14.5844,20.0531 14.2597,20.0914 13.8976,20.1415L 13.6603,20.1415L 13.6603,21.234L 16.239,21.234L 16.239,28.6519L 17.6439,28.6519L 17.6439,18.1934L 16.4701,18.1934L 16.4701,18.4243 Z M 24.2749,21.5463C 23.9627,21.5463 23.6641,21.5983 23.3789,21.7023C 23.0938,21.8065 22.8201,21.9376 22.5579,22.0958L 23.0262,19.6732L 27.3969,19.6732L 27.3969,18.3495L 21.9335,18.3495L 20.922,23.9689L 22.0896,23.9689L 22.1707,23.8878C 22.3789,23.5258 22.665,23.2531 23.0293,23.0699C 23.3935,22.8866 23.7837,22.7952 24.2,22.7952C 24.5122,22.7952 24.8109,22.8607 25.096,22.9917C 25.3811,23.1229 25.6278,23.2925 25.8359,23.5006C 26.044,23.7089 26.2001,23.9554 26.3042,24.2406C 26.4083,24.5258 26.4603,24.8245 26.4603,25.1366C 26.4603,25.4489 26.4218,25.7485 26.3448,26.0358C 26.2678,26.3229 26.1252,26.5956 25.9171,26.8536C 25.7089,27.0618 25.4748,27.244 25.2146,27.4C 24.9545,27.5562 24.6412,27.6342 24.2749,27.6342C 23.9627,27.6342 23.6766,27.5822 23.4164,27.4781C 23.1562,27.3739 22.9221,27.2179 22.714,27.0099C 22.5058,26.8556 22.3497,26.6487 22.2457,26.3884C 22.1416,26.1283 22.0896,25.8422 22.0896,25.5299L 22.0896,25.2927L 20.6847,25.2927L 20.6847,25.5299C 20.6847,26.0503 20.7763,26.505 20.9594,26.8942C 21.1426,27.2834 21.3903,27.6342 21.7024,27.9464C 22.0146,28.2585 22.3789,28.4927 22.7951,28.6488C 23.2114,28.8048 23.6797,28.8829 24.2,28.8829C 24.7203,28.8829 25.2011,28.7789 25.6423,28.5707C 26.0836,28.3625 26.4603,28.1024 26.7725,27.7903C 27.1388,27.4781 27.4125,27.1014 27.5936,26.66C 27.7746,26.2189 27.8652,25.7382 27.8652,25.2178C 27.8652,24.6974 27.7871,24.203 27.631,23.7347C 27.4749,23.2665 27.2408,22.8763 26.9286,22.5641C 26.6164,22.252 26.2397,22.0042 25.7984,21.821C 25.3572,21.6379 24.8494,21.5463 24.2749,21.5463 Z "/>
        </symbol>
        <symbol id="trash" viewBox="0 0 42.00 42.00">
            <title>trash</title>
            <path class="symbol-path" d="M 33.3379,8.83679L 26.956,8.83679L 26.956,7.55688C 26.956,7.20837 26.8809,6.87073 26.7306,6.54431C 26.5804,6.21777 26.4051,5.95435 26.2048,5.75403C 25.9524,5.50574 25.676,5.31836 25.3755,5.19226C 25.075,5.06604 24.7505,5.00293 24.402,5.00293L 17.942,5.00293C 17.5894,5.00293 17.2629,5.06604 16.9624,5.19226C 16.662,5.31836 16.3875,5.50574 16.1391,5.75403C 15.9388,5.95435 15.7636,6.21777 15.6133,6.54431C 15.4631,6.87073 15.388,7.20837 15.388,7.55688L 15.388,8.83679L 9.00003,8.83679L 9.00003,10.1108L 10.3521,10.1108L 11.6321,34.4487C 11.6321,34.8013 11.6942,35.1398 11.8184,35.4642C 11.9426,35.7888 12.1309,36.0511 12.3833,36.2516C 12.5836,36.5039 12.846,36.6921 13.1705,36.8164C 13.495,36.9406 13.8336,37.0027 14.1861,37.0027L 28.2299,37.0027C 28.5825,37.0027 28.9211,36.9406 29.2455,36.8164C 29.57,36.6921 29.8325,36.5039 30.0327,36.2516C 30.2852,36.0511 30.4734,35.7888 30.5976,35.4642C 30.7218,35.1398 30.7839,34.8013 30.7839,34.4487L 32.0639,10.1108L 33.3379,10.1108L 33.3379,8.83679 Z M 16.662,7.55688C 16.662,7.20837 16.7871,6.90881 17.0375,6.65845C 17.2879,6.40808 17.5894,6.28284 17.942,6.28284L 24.402,6.28284C 24.7505,6.28284 25.05,6.40808 25.3004,6.65845C 25.5508,6.90881 25.676,7.20837 25.676,7.55688L 25.676,8.83679L 16.662,8.83679L 16.662,7.55688 Z M 29.5099,34.3766L 29.5099,34.4487L 29.5099,34.4487C 29.5099,34.8013 29.3847,35.1027 29.1344,35.3531C 28.884,35.6035 28.5825,35.7286 28.2299,35.7286L 14.1861,35.7286C 13.8336,35.7286 13.5321,35.6035 13.2817,35.3531C 13.0313,35.1027 12.9061,34.8013 12.9061,34.4487L 12.9061,34.3766L 11.6321,10.1108L 30.7839,10.1108L 29.5099,34.3766 Z M 20.4959,12.6648L 21.848,12.6648L 21.848,33.1747L 20.4959,33.1747L 20.4959,12.6648 Z M 18.0141,33.1747L 16.662,12.6648L 15.388,12.7429L 16.7401,33.2468L 18.0141,33.1747 Z M 26.956,12.7429L 25.676,12.6648L 24.402,33.1747L 25.676,33.2468L 26.956,12.7429 Z "/>
        </symbol>
        <symbol id="bell" viewBox="0 0 42.00 42.00">
            <title>bell</title>
            <path class="symbol-path" d="M 21,35.2957C 21.1863,35.2957 21.2795,35.202 21.2795,35.0137C 21.2795,34.8257 21.1863,34.7319 21,34.7319C 20.3101,34.7319 19.7175,34.4842 19.2222,33.9888C 18.7269,33.4935 18.4792,32.9009 18.4792,32.211C 18.4792,32.0245 18.3852,31.9315 18.1972,31.9315C 18.0092,31.9315 17.9152,32.0245 17.9152,32.211C 17.9152,33.0643 18.216,33.7919 18.8176,34.3934C 19.4192,34.9949 20.1467,35.2957 21,35.2957 Z M 9.61713,29.9698L 32.3828,29.9698C 29.2768,26.4649 27.7238,21.6063 27.7238,15.3942C 27.7238,14.7991 27.584,14.1868 27.3044,13.5574C 27.0249,12.9283 26.6227,12.3273 26.098,11.7552C 25.5732,11.183 24.8637,10.7131 23.9695,10.3453C 23.0753,9.97736 22.0854,9.79352 21,9.79352C 19.9145,9.79352 18.9246,9.97736 18.0305,10.3453C 17.1362,10.7131 16.4268,11.183 15.902,11.7552C 15.3773,12.3273 14.975,12.9283 14.6955,13.5574C 14.416,14.1868 14.2762,14.7991 14.2762,15.3942C 14.2762,21.6063 12.7232,26.4649 9.61713,29.9698 Z M 35.5706,29.9698C 35.5706,30.5779 35.3491,31.1035 34.9061,31.5464C 34.4631,31.9894 33.9375,32.211 33.3293,32.211L 25.4825,32.211C 25.4825,33.45 25.0452,34.5071 24.1706,35.3815C 23.296,36.2562 22.2391,36.6937 21,36.6937C 19.7608,36.6937 18.704,36.2562 17.8294,35.3815C 16.9548,34.5071 16.5175,33.45 16.5175,32.211L 8.67059,32.211C 8.0625,32.211 7.53693,31.9894 7.09393,31.5464C 6.65088,31.1035 6.42938,30.5779 6.42938,29.9698C 7.01135,29.4793 7.54181,28.9651 8.02081,28.4274C 8.49982,27.8895 8.99591,27.1916 9.50922,26.3333C 10.0226,25.475 10.4574,24.5497 10.8138,23.5574C 11.1702,22.565 11.462,21.3629 11.6892,19.9503C 11.9164,18.5378 12.0301,17.0192 12.0301,15.3942C 12.0301,13.6221 12.7134,11.9734 14.08,10.4483C 15.4467,8.92316 17.2401,7.99689 19.46,7.66998C 19.3652,7.45099 19.3178,7.22369 19.3178,6.98822C 19.3178,6.52081 19.4813,6.1236 19.8082,5.79669C 20.1352,5.46967 20.5324,5.30621 21,5.30621C 21.4675,5.30621 21.8648,5.46967 22.1917,5.79669C 22.5187,6.1236 22.6822,6.52081 22.6822,6.98822C 22.6822,7.22369 22.6348,7.45099 22.5399,7.66998C 24.7599,7.99689 26.5533,8.92316 27.9199,10.4483C 29.2866,11.9734 29.9699,13.6221 29.9699,15.3942C 29.9699,17.0192 30.0836,18.5378 30.3107,19.9503C 30.538,21.3629 30.8298,22.565 31.1862,23.5574C 31.5425,24.5497 31.9774,25.475 32.4907,26.3333C 33.004,27.1916 33.5002,27.8895 33.9792,28.4274C 34.4582,28.9651 34.9886,29.4793 35.5706,29.9698 Z "/>
        </symbol>

        <symbol id="anotation" viewBox="0 0 42.00 42.00">
            <title>anotation</title>
            <path class="symbol-path" d="M 4.93652,2L 4.93652,30L 16,21.8049L 27.0635,30L 27.0635,2L 4.93652,2 Z M 25.9052,27.678L 16,20.3735L 6.10022,27.678L 6.10022,3.1637L 25.9052,3.1637L 25.9052,27.678 Z M 10.1979,9.03687L 21.8076,9.03687L 21.8076,10.1951L 10.1979,10.1951L 10.1979,9.03687 Z M 10.1979,13.6808L 21.8076,13.6808L 21.8076,14.8391L 10.1979,14.8391L 10.1979,13.6808 Z "/>
        </symbol>
        <symbol id="conf" viewBox="0 0 42.00 42.00">
            <title>conf</title>
            <path class="symbol-path" d="M 21,35.2957C 21.1863,35.2957 21.2795,35.202 21.2795,35.0137C 21.2795,34.8257 21.1863,34.7319 21,34.7319C 20.3101,34.7319 19.7175,34.4842 19.2222,33.9888C 18.7269,33.4935 18.4792,32.9009 18.4792,32.211C 18.4792,32.0245 18.3852,31.9315 18.1972,31.9315C 18.0092,31.9315 17.9152,32.0245 17.9152,32.211C 17.9152,33.0643 18.216,33.7919 18.8176,34.3934C 19.4192,34.9949 20.1467,35.2957 21,35.2957 Z M 9.61713,29.9698L 32.3828,29.9698C 29.2768,26.4649 27.7238,21.6063 27.7238,15.3942C 27.7238,14.7991 27.584,14.1868 27.3044,13.5574C 27.0249,12.9283 26.6227,12.3273 26.098,11.7552C 25.5732,11.183 24.8637,10.7131 23.9695,10.3453C 23.0753,9.97736 22.0854,9.79352 21,9.79352C 19.9145,9.79352 18.9246,9.97736 18.0305,10.3453C 17.1362,10.7131 16.4268,11.183 15.902,11.7552C 15.3773,12.3273 14.975,12.9283 14.6955,13.5574C 14.416,14.1868 14.2762,14.7991 14.2762,15.3942C 14.2762,21.6063 12.7232,26.4649 9.61713,29.9698 Z M 35.5706,29.9698C 35.5706,30.5779 35.3491,31.1035 34.9061,31.5464C 34.4631,31.9894 33.9375,32.211 33.3293,32.211L 25.4825,32.211C 25.4825,33.45 25.0452,34.5071 24.1706,35.3815C 23.296,36.2562 22.2391,36.6937 21,36.6937C 19.7608,36.6937 18.704,36.2562 17.8294,35.3815C 16.9548,34.5071 16.5175,33.45 16.5175,32.211L 8.67059,32.211C 8.0625,32.211 7.53693,31.9894 7.09393,31.5464C 6.65088,31.1035 6.42938,30.5779 6.42938,29.9698C 7.01135,29.4793 7.54181,28.9651 8.02081,28.4274C 8.49982,27.8895 8.99591,27.1916 9.50922,26.3333C 10.0226,25.475 10.4574,24.5497 10.8138,23.5574C 11.1702,22.565 11.462,21.3629 11.6892,19.9503C 11.9164,18.5378 12.0301,17.0192 12.0301,15.3942C 12.0301,13.6221 12.7134,11.9734 14.08,10.4483C 15.4467,8.92316 17.2401,7.99689 19.46,7.66998C 19.3652,7.45099 19.3178,7.22369 19.3178,6.98822C 19.3178,6.52081 19.4813,6.1236 19.8082,5.79669C 20.1352,5.46967 20.5324,5.30621 21,5.30621C 21.4675,5.30621 21.8648,5.46967 22.1917,5.79669C 22.5187,6.1236 22.6822,6.52081 22.6822,6.98822C 22.6822,7.22369 22.6348,7.45099 22.5399,7.66998C 24.7599,7.99689 26.5533,8.92316 27.9199,10.4483C 29.2866,11.9734 29.9699,13.6221 29.9699,15.3942C 29.9699,17.0192 30.0836,18.5378 30.3107,19.9503C 30.538,21.3629 30.8298,22.565 31.1862,23.5574C 31.5425,24.5497 31.9774,25.475 32.4907,26.3333C 33.004,27.1916 33.5002,27.8895 33.9792,28.4274C 34.4582,28.9651 34.9886,29.4793 35.5706,29.9698 Z "/>
        </symbol>
        <symbol id="database" viewBox="0 0 42.00 42.00">
            <title>database</title>
            <path class="symbol-path" d="M 21,35.2957C 21.1863,35.2957 21.2795,35.202 21.2795,35.0137C 21.2795,34.8257 21.1863,34.7319 21,34.7319C 20.3101,34.7319 19.7175,34.4842 19.2222,33.9888C 18.7269,33.4935 18.4792,32.9009 18.4792,32.211C 18.4792,32.0245 18.3852,31.9315 18.1972,31.9315C 18.0092,31.9315 17.9152,32.0245 17.9152,32.211C 17.9152,33.0643 18.216,33.7919 18.8176,34.3934C 19.4192,34.9949 20.1467,35.2957 21,35.2957 Z M 9.61713,29.9698L 32.3828,29.9698C 29.2768,26.4649 27.7238,21.6063 27.7238,15.3942C 27.7238,14.7991 27.584,14.1868 27.3044,13.5574C 27.0249,12.9283 26.6227,12.3273 26.098,11.7552C 25.5732,11.183 24.8637,10.7131 23.9695,10.3453C 23.0753,9.97736 22.0854,9.79352 21,9.79352C 19.9145,9.79352 18.9246,9.97736 18.0305,10.3453C 17.1362,10.7131 16.4268,11.183 15.902,11.7552C 15.3773,12.3273 14.975,12.9283 14.6955,13.5574C 14.416,14.1868 14.2762,14.7991 14.2762,15.3942C 14.2762,21.6063 12.7232,26.4649 9.61713,29.9698 Z M 35.5706,29.9698C 35.5706,30.5779 35.3491,31.1035 34.9061,31.5464C 34.4631,31.9894 33.9375,32.211 33.3293,32.211L 25.4825,32.211C 25.4825,33.45 25.0452,34.5071 24.1706,35.3815C 23.296,36.2562 22.2391,36.6937 21,36.6937C 19.7608,36.6937 18.704,36.2562 17.8294,35.3815C 16.9548,34.5071 16.5175,33.45 16.5175,32.211L 8.67059,32.211C 8.0625,32.211 7.53693,31.9894 7.09393,31.5464C 6.65088,31.1035 6.42938,30.5779 6.42938,29.9698C 7.01135,29.4793 7.54181,28.9651 8.02081,28.4274C 8.49982,27.8895 8.99591,27.1916 9.50922,26.3333C 10.0226,25.475 10.4574,24.5497 10.8138,23.5574C 11.1702,22.565 11.462,21.3629 11.6892,19.9503C 11.9164,18.5378 12.0301,17.0192 12.0301,15.3942C 12.0301,13.6221 12.7134,11.9734 14.08,10.4483C 15.4467,8.92316 17.2401,7.99689 19.46,7.66998C 19.3652,7.45099 19.3178,7.22369 19.3178,6.98822C 19.3178,6.52081 19.4813,6.1236 19.8082,5.79669C 20.1352,5.46967 20.5324,5.30621 21,5.30621C 21.4675,5.30621 21.8648,5.46967 22.1917,5.79669C 22.5187,6.1236 22.6822,6.52081 22.6822,6.98822C 22.6822,7.22369 22.6348,7.45099 22.5399,7.66998C 24.7599,7.99689 26.5533,8.92316 27.9199,10.4483C 29.2866,11.9734 29.9699,13.6221 29.9699,15.3942C 29.9699,17.0192 30.0836,18.5378 30.3107,19.9503C 30.538,21.3629 30.8298,22.565 31.1862,23.5574C 31.5425,24.5497 31.9774,25.475 32.4907,26.3333C 33.004,27.1916 33.5002,27.8895 33.9792,28.4274C 34.4582,28.9651 34.9886,29.4793 35.5706,29.9698 Z "/>
        </symbol>
        <symbol id="info" viewBox="0 0 42.00 42.00">
            <title>info</title>
            <path class="symbol-path" d="M 21,35.2957C 21.1863,35.2957 21.2795,35.202 21.2795,35.0137C 21.2795,34.8257 21.1863,34.7319 21,34.7319C 20.3101,34.7319 19.7175,34.4842 19.2222,33.9888C 18.7269,33.4935 18.4792,32.9009 18.4792,32.211C 18.4792,32.0245 18.3852,31.9315 18.1972,31.9315C 18.0092,31.9315 17.9152,32.0245 17.9152,32.211C 17.9152,33.0643 18.216,33.7919 18.8176,34.3934C 19.4192,34.9949 20.1467,35.2957 21,35.2957 Z M 9.61713,29.9698L 32.3828,29.9698C 29.2768,26.4649 27.7238,21.6063 27.7238,15.3942C 27.7238,14.7991 27.584,14.1868 27.3044,13.5574C 27.0249,12.9283 26.6227,12.3273 26.098,11.7552C 25.5732,11.183 24.8637,10.7131 23.9695,10.3453C 23.0753,9.97736 22.0854,9.79352 21,9.79352C 19.9145,9.79352 18.9246,9.97736 18.0305,10.3453C 17.1362,10.7131 16.4268,11.183 15.902,11.7552C 15.3773,12.3273 14.975,12.9283 14.6955,13.5574C 14.416,14.1868 14.2762,14.7991 14.2762,15.3942C 14.2762,21.6063 12.7232,26.4649 9.61713,29.9698 Z M 35.5706,29.9698C 35.5706,30.5779 35.3491,31.1035 34.9061,31.5464C 34.4631,31.9894 33.9375,32.211 33.3293,32.211L 25.4825,32.211C 25.4825,33.45 25.0452,34.5071 24.1706,35.3815C 23.296,36.2562 22.2391,36.6937 21,36.6937C 19.7608,36.6937 18.704,36.2562 17.8294,35.3815C 16.9548,34.5071 16.5175,33.45 16.5175,32.211L 8.67059,32.211C 8.0625,32.211 7.53693,31.9894 7.09393,31.5464C 6.65088,31.1035 6.42938,30.5779 6.42938,29.9698C 7.01135,29.4793 7.54181,28.9651 8.02081,28.4274C 8.49982,27.8895 8.99591,27.1916 9.50922,26.3333C 10.0226,25.475 10.4574,24.5497 10.8138,23.5574C 11.1702,22.565 11.462,21.3629 11.6892,19.9503C 11.9164,18.5378 12.0301,17.0192 12.0301,15.3942C 12.0301,13.6221 12.7134,11.9734 14.08,10.4483C 15.4467,8.92316 17.2401,7.99689 19.46,7.66998C 19.3652,7.45099 19.3178,7.22369 19.3178,6.98822C 19.3178,6.52081 19.4813,6.1236 19.8082,5.79669C 20.1352,5.46967 20.5324,5.30621 21,5.30621C 21.4675,5.30621 21.8648,5.46967 22.1917,5.79669C 22.5187,6.1236 22.6822,6.52081 22.6822,6.98822C 22.6822,7.22369 22.6348,7.45099 22.5399,7.66998C 24.7599,7.99689 26.5533,8.92316 27.9199,10.4483C 29.2866,11.9734 29.9699,13.6221 29.9699,15.3942C 29.9699,17.0192 30.0836,18.5378 30.3107,19.9503C 30.538,21.3629 30.8298,22.565 31.1862,23.5574C 31.5425,24.5497 31.9774,25.475 32.4907,26.3333C 33.004,27.1916 33.5002,27.8895 33.9792,28.4274C 34.4582,28.9651 34.9886,29.4793 35.5706,29.9698 Z "/>
        </symbol>
        <symbol id="locked" viewBox="0 0 42.00 42.00">
            <title>locked</title>
            <path class="symbol-path" d="M 21,35.2957C 21.1863,35.2957 21.2795,35.202 21.2795,35.0137C 21.2795,34.8257 21.1863,34.7319 21,34.7319C 20.3101,34.7319 19.7175,34.4842 19.2222,33.9888C 18.7269,33.4935 18.4792,32.9009 18.4792,32.211C 18.4792,32.0245 18.3852,31.9315 18.1972,31.9315C 18.0092,31.9315 17.9152,32.0245 17.9152,32.211C 17.9152,33.0643 18.216,33.7919 18.8176,34.3934C 19.4192,34.9949 20.1467,35.2957 21,35.2957 Z M 9.61713,29.9698L 32.3828,29.9698C 29.2768,26.4649 27.7238,21.6063 27.7238,15.3942C 27.7238,14.7991 27.584,14.1868 27.3044,13.5574C 27.0249,12.9283 26.6227,12.3273 26.098,11.7552C 25.5732,11.183 24.8637,10.7131 23.9695,10.3453C 23.0753,9.97736 22.0854,9.79352 21,9.79352C 19.9145,9.79352 18.9246,9.97736 18.0305,10.3453C 17.1362,10.7131 16.4268,11.183 15.902,11.7552C 15.3773,12.3273 14.975,12.9283 14.6955,13.5574C 14.416,14.1868 14.2762,14.7991 14.2762,15.3942C 14.2762,21.6063 12.7232,26.4649 9.61713,29.9698 Z M 35.5706,29.9698C 35.5706,30.5779 35.3491,31.1035 34.9061,31.5464C 34.4631,31.9894 33.9375,32.211 33.3293,32.211L 25.4825,32.211C 25.4825,33.45 25.0452,34.5071 24.1706,35.3815C 23.296,36.2562 22.2391,36.6937 21,36.6937C 19.7608,36.6937 18.704,36.2562 17.8294,35.3815C 16.9548,34.5071 16.5175,33.45 16.5175,32.211L 8.67059,32.211C 8.0625,32.211 7.53693,31.9894 7.09393,31.5464C 6.65088,31.1035 6.42938,30.5779 6.42938,29.9698C 7.01135,29.4793 7.54181,28.9651 8.02081,28.4274C 8.49982,27.8895 8.99591,27.1916 9.50922,26.3333C 10.0226,25.475 10.4574,24.5497 10.8138,23.5574C 11.1702,22.565 11.462,21.3629 11.6892,19.9503C 11.9164,18.5378 12.0301,17.0192 12.0301,15.3942C 12.0301,13.6221 12.7134,11.9734 14.08,10.4483C 15.4467,8.92316 17.2401,7.99689 19.46,7.66998C 19.3652,7.45099 19.3178,7.22369 19.3178,6.98822C 19.3178,6.52081 19.4813,6.1236 19.8082,5.79669C 20.1352,5.46967 20.5324,5.30621 21,5.30621C 21.4675,5.30621 21.8648,5.46967 22.1917,5.79669C 22.5187,6.1236 22.6822,6.52081 22.6822,6.98822C 22.6822,7.22369 22.6348,7.45099 22.5399,7.66998C 24.7599,7.99689 26.5533,8.92316 27.9199,10.4483C 29.2866,11.9734 29.9699,13.6221 29.9699,15.3942C 29.9699,17.0192 30.0836,18.5378 30.3107,19.9503C 30.538,21.3629 30.8298,22.565 31.1862,23.5574C 31.5425,24.5497 31.9774,25.475 32.4907,26.3333C 33.004,27.1916 33.5002,27.8895 33.9792,28.4274C 34.4582,28.9651 34.9886,29.4793 35.5706,29.9698 Z "/>
        </symbol>
        <symbol id="unlocked" viewBox="0 0 42.00 42.00">
            <title>unlocked</title>
            <path class="symbol-path" d="M 21,35.2957C 21.1863,35.2957 21.2795,35.202 21.2795,35.0137C 21.2795,34.8257 21.1863,34.7319 21,34.7319C 20.3101,34.7319 19.7175,34.4842 19.2222,33.9888C 18.7269,33.4935 18.4792,32.9009 18.4792,32.211C 18.4792,32.0245 18.3852,31.9315 18.1972,31.9315C 18.0092,31.9315 17.9152,32.0245 17.9152,32.211C 17.9152,33.0643 18.216,33.7919 18.8176,34.3934C 19.4192,34.9949 20.1467,35.2957 21,35.2957 Z M 9.61713,29.9698L 32.3828,29.9698C 29.2768,26.4649 27.7238,21.6063 27.7238,15.3942C 27.7238,14.7991 27.584,14.1868 27.3044,13.5574C 27.0249,12.9283 26.6227,12.3273 26.098,11.7552C 25.5732,11.183 24.8637,10.7131 23.9695,10.3453C 23.0753,9.97736 22.0854,9.79352 21,9.79352C 19.9145,9.79352 18.9246,9.97736 18.0305,10.3453C 17.1362,10.7131 16.4268,11.183 15.902,11.7552C 15.3773,12.3273 14.975,12.9283 14.6955,13.5574C 14.416,14.1868 14.2762,14.7991 14.2762,15.3942C 14.2762,21.6063 12.7232,26.4649 9.61713,29.9698 Z M 35.5706,29.9698C 35.5706,30.5779 35.3491,31.1035 34.9061,31.5464C 34.4631,31.9894 33.9375,32.211 33.3293,32.211L 25.4825,32.211C 25.4825,33.45 25.0452,34.5071 24.1706,35.3815C 23.296,36.2562 22.2391,36.6937 21,36.6937C 19.7608,36.6937 18.704,36.2562 17.8294,35.3815C 16.9548,34.5071 16.5175,33.45 16.5175,32.211L 8.67059,32.211C 8.0625,32.211 7.53693,31.9894 7.09393,31.5464C 6.65088,31.1035 6.42938,30.5779 6.42938,29.9698C 7.01135,29.4793 7.54181,28.9651 8.02081,28.4274C 8.49982,27.8895 8.99591,27.1916 9.50922,26.3333C 10.0226,25.475 10.4574,24.5497 10.8138,23.5574C 11.1702,22.565 11.462,21.3629 11.6892,19.9503C 11.9164,18.5378 12.0301,17.0192 12.0301,15.3942C 12.0301,13.6221 12.7134,11.9734 14.08,10.4483C 15.4467,8.92316 17.2401,7.99689 19.46,7.66998C 19.3652,7.45099 19.3178,7.22369 19.3178,6.98822C 19.3178,6.52081 19.4813,6.1236 19.8082,5.79669C 20.1352,5.46967 20.5324,5.30621 21,5.30621C 21.4675,5.30621 21.8648,5.46967 22.1917,5.79669C 22.5187,6.1236 22.6822,6.52081 22.6822,6.98822C 22.6822,7.22369 22.6348,7.45099 22.5399,7.66998C 24.7599,7.99689 26.5533,8.92316 27.9199,10.4483C 29.2866,11.9734 29.9699,13.6221 29.9699,15.3942C 29.9699,17.0192 30.0836,18.5378 30.3107,19.9503C 30.538,21.3629 30.8298,22.565 31.1862,23.5574C 31.5425,24.5497 31.9774,25.475 32.4907,26.3333C 33.004,27.1916 33.5002,27.8895 33.9792,28.4274C 34.4582,28.9651 34.9886,29.4793 35.5706,29.9698 Z "/>
        </symbol>
        <symbol id="marker" viewBox="0 0 42.00 42.00">
            <title>marker</title>
            <path class="symbol-path" d="M 21,35.2957C 21.1863,35.2957 21.2795,35.202 21.2795,35.0137C 21.2795,34.8257 21.1863,34.7319 21,34.7319C 20.3101,34.7319 19.7175,34.4842 19.2222,33.9888C 18.7269,33.4935 18.4792,32.9009 18.4792,32.211C 18.4792,32.0245 18.3852,31.9315 18.1972,31.9315C 18.0092,31.9315 17.9152,32.0245 17.9152,32.211C 17.9152,33.0643 18.216,33.7919 18.8176,34.3934C 19.4192,34.9949 20.1467,35.2957 21,35.2957 Z M 9.61713,29.9698L 32.3828,29.9698C 29.2768,26.4649 27.7238,21.6063 27.7238,15.3942C 27.7238,14.7991 27.584,14.1868 27.3044,13.5574C 27.0249,12.9283 26.6227,12.3273 26.098,11.7552C 25.5732,11.183 24.8637,10.7131 23.9695,10.3453C 23.0753,9.97736 22.0854,9.79352 21,9.79352C 19.9145,9.79352 18.9246,9.97736 18.0305,10.3453C 17.1362,10.7131 16.4268,11.183 15.902,11.7552C 15.3773,12.3273 14.975,12.9283 14.6955,13.5574C 14.416,14.1868 14.2762,14.7991 14.2762,15.3942C 14.2762,21.6063 12.7232,26.4649 9.61713,29.9698 Z M 35.5706,29.9698C 35.5706,30.5779 35.3491,31.1035 34.9061,31.5464C 34.4631,31.9894 33.9375,32.211 33.3293,32.211L 25.4825,32.211C 25.4825,33.45 25.0452,34.5071 24.1706,35.3815C 23.296,36.2562 22.2391,36.6937 21,36.6937C 19.7608,36.6937 18.704,36.2562 17.8294,35.3815C 16.9548,34.5071 16.5175,33.45 16.5175,32.211L 8.67059,32.211C 8.0625,32.211 7.53693,31.9894 7.09393,31.5464C 6.65088,31.1035 6.42938,30.5779 6.42938,29.9698C 7.01135,29.4793 7.54181,28.9651 8.02081,28.4274C 8.49982,27.8895 8.99591,27.1916 9.50922,26.3333C 10.0226,25.475 10.4574,24.5497 10.8138,23.5574C 11.1702,22.565 11.462,21.3629 11.6892,19.9503C 11.9164,18.5378 12.0301,17.0192 12.0301,15.3942C 12.0301,13.6221 12.7134,11.9734 14.08,10.4483C 15.4467,8.92316 17.2401,7.99689 19.46,7.66998C 19.3652,7.45099 19.3178,7.22369 19.3178,6.98822C 19.3178,6.52081 19.4813,6.1236 19.8082,5.79669C 20.1352,5.46967 20.5324,5.30621 21,5.30621C 21.4675,5.30621 21.8648,5.46967 22.1917,5.79669C 22.5187,6.1236 22.6822,6.52081 22.6822,6.98822C 22.6822,7.22369 22.6348,7.45099 22.5399,7.66998C 24.7599,7.99689 26.5533,8.92316 27.9199,10.4483C 29.2866,11.9734 29.9699,13.6221 29.9699,15.3942C 29.9699,17.0192 30.0836,18.5378 30.3107,19.9503C 30.538,21.3629 30.8298,22.565 31.1862,23.5574C 31.5425,24.5497 31.9774,25.475 32.4907,26.3333C 33.004,27.1916 33.5002,27.8895 33.9792,28.4274C 34.4582,28.9651 34.9886,29.4793 35.5706,29.9698 Z "/>
        </symbol>
        <symbol id="bell" viewBox="0 0 42.00 42.00">
            <title>bell</title>
            <path class="symbol-path" d="M 21,35.2957C 21.1863,35.2957 21.2795,35.202 21.2795,35.0137C 21.2795,34.8257 21.1863,34.7319 21,34.7319C 20.3101,34.7319 19.7175,34.4842 19.2222,33.9888C 18.7269,33.4935 18.4792,32.9009 18.4792,32.211C 18.4792,32.0245 18.3852,31.9315 18.1972,31.9315C 18.0092,31.9315 17.9152,32.0245 17.9152,32.211C 17.9152,33.0643 18.216,33.7919 18.8176,34.3934C 19.4192,34.9949 20.1467,35.2957 21,35.2957 Z M 9.61713,29.9698L 32.3828,29.9698C 29.2768,26.4649 27.7238,21.6063 27.7238,15.3942C 27.7238,14.7991 27.584,14.1868 27.3044,13.5574C 27.0249,12.9283 26.6227,12.3273 26.098,11.7552C 25.5732,11.183 24.8637,10.7131 23.9695,10.3453C 23.0753,9.97736 22.0854,9.79352 21,9.79352C 19.9145,9.79352 18.9246,9.97736 18.0305,10.3453C 17.1362,10.7131 16.4268,11.183 15.902,11.7552C 15.3773,12.3273 14.975,12.9283 14.6955,13.5574C 14.416,14.1868 14.2762,14.7991 14.2762,15.3942C 14.2762,21.6063 12.7232,26.4649 9.61713,29.9698 Z M 35.5706,29.9698C 35.5706,30.5779 35.3491,31.1035 34.9061,31.5464C 34.4631,31.9894 33.9375,32.211 33.3293,32.211L 25.4825,32.211C 25.4825,33.45 25.0452,34.5071 24.1706,35.3815C 23.296,36.2562 22.2391,36.6937 21,36.6937C 19.7608,36.6937 18.704,36.2562 17.8294,35.3815C 16.9548,34.5071 16.5175,33.45 16.5175,32.211L 8.67059,32.211C 8.0625,32.211 7.53693,31.9894 7.09393,31.5464C 6.65088,31.1035 6.42938,30.5779 6.42938,29.9698C 7.01135,29.4793 7.54181,28.9651 8.02081,28.4274C 8.49982,27.8895 8.99591,27.1916 9.50922,26.3333C 10.0226,25.475 10.4574,24.5497 10.8138,23.5574C 11.1702,22.565 11.462,21.3629 11.6892,19.9503C 11.9164,18.5378 12.0301,17.0192 12.0301,15.3942C 12.0301,13.6221 12.7134,11.9734 14.08,10.4483C 15.4467,8.92316 17.2401,7.99689 19.46,7.66998C 19.3652,7.45099 19.3178,7.22369 19.3178,6.98822C 19.3178,6.52081 19.4813,6.1236 19.8082,5.79669C 20.1352,5.46967 20.5324,5.30621 21,5.30621C 21.4675,5.30621 21.8648,5.46967 22.1917,5.79669C 22.5187,6.1236 22.6822,6.52081 22.6822,6.98822C 22.6822,7.22369 22.6348,7.45099 22.5399,7.66998C 24.7599,7.99689 26.5533,8.92316 27.9199,10.4483C 29.2866,11.9734 29.9699,13.6221 29.9699,15.3942C 29.9699,17.0192 30.0836,18.5378 30.3107,19.9503C 30.538,21.3629 30.8298,22.565 31.1862,23.5574C 31.5425,24.5497 31.9774,25.475 32.4907,26.3333C 33.004,27.1916 33.5002,27.8895 33.9792,28.4274C 34.4582,28.9651 34.9886,29.4793 35.5706,29.9698 Z "/>
        </symbol>
        <symbol id="bell" viewBox="0 0 42.00 42.00">
            <title>bell</title>
            <path class="symbol-path" d="M 21,35.2957C 21.1863,35.2957 21.2795,35.202 21.2795,35.0137C 21.2795,34.8257 21.1863,34.7319 21,34.7319C 20.3101,34.7319 19.7175,34.4842 19.2222,33.9888C 18.7269,33.4935 18.4792,32.9009 18.4792,32.211C 18.4792,32.0245 18.3852,31.9315 18.1972,31.9315C 18.0092,31.9315 17.9152,32.0245 17.9152,32.211C 17.9152,33.0643 18.216,33.7919 18.8176,34.3934C 19.4192,34.9949 20.1467,35.2957 21,35.2957 Z M 9.61713,29.9698L 32.3828,29.9698C 29.2768,26.4649 27.7238,21.6063 27.7238,15.3942C 27.7238,14.7991 27.584,14.1868 27.3044,13.5574C 27.0249,12.9283 26.6227,12.3273 26.098,11.7552C 25.5732,11.183 24.8637,10.7131 23.9695,10.3453C 23.0753,9.97736 22.0854,9.79352 21,9.79352C 19.9145,9.79352 18.9246,9.97736 18.0305,10.3453C 17.1362,10.7131 16.4268,11.183 15.902,11.7552C 15.3773,12.3273 14.975,12.9283 14.6955,13.5574C 14.416,14.1868 14.2762,14.7991 14.2762,15.3942C 14.2762,21.6063 12.7232,26.4649 9.61713,29.9698 Z M 35.5706,29.9698C 35.5706,30.5779 35.3491,31.1035 34.9061,31.5464C 34.4631,31.9894 33.9375,32.211 33.3293,32.211L 25.4825,32.211C 25.4825,33.45 25.0452,34.5071 24.1706,35.3815C 23.296,36.2562 22.2391,36.6937 21,36.6937C 19.7608,36.6937 18.704,36.2562 17.8294,35.3815C 16.9548,34.5071 16.5175,33.45 16.5175,32.211L 8.67059,32.211C 8.0625,32.211 7.53693,31.9894 7.09393,31.5464C 6.65088,31.1035 6.42938,30.5779 6.42938,29.9698C 7.01135,29.4793 7.54181,28.9651 8.02081,28.4274C 8.49982,27.8895 8.99591,27.1916 9.50922,26.3333C 10.0226,25.475 10.4574,24.5497 10.8138,23.5574C 11.1702,22.565 11.462,21.3629 11.6892,19.9503C 11.9164,18.5378 12.0301,17.0192 12.0301,15.3942C 12.0301,13.6221 12.7134,11.9734 14.08,10.4483C 15.4467,8.92316 17.2401,7.99689 19.46,7.66998C 19.3652,7.45099 19.3178,7.22369 19.3178,6.98822C 19.3178,6.52081 19.4813,6.1236 19.8082,5.79669C 20.1352,5.46967 20.5324,5.30621 21,5.30621C 21.4675,5.30621 21.8648,5.46967 22.1917,5.79669C 22.5187,6.1236 22.6822,6.52081 22.6822,6.98822C 22.6822,7.22369 22.6348,7.45099 22.5399,7.66998C 24.7599,7.99689 26.5533,8.92316 27.9199,10.4483C 29.2866,11.9734 29.9699,13.6221 29.9699,15.3942C 29.9699,17.0192 30.0836,18.5378 30.3107,19.9503C 30.538,21.3629 30.8298,22.565 31.1862,23.5574C 31.5425,24.5497 31.9774,25.475 32.4907,26.3333C 33.004,27.1916 33.5002,27.8895 33.9792,28.4274C 34.4582,28.9651 34.9886,29.4793 35.5706,29.9698 Z "/>
        </symbol>
        <symbol id="bell" viewBox="0 0 42.00 42.00">
            <title>bell</title>
            <path class="symbol-path" d="M 21,35.2957C 21.1863,35.2957 21.2795,35.202 21.2795,35.0137C 21.2795,34.8257 21.1863,34.7319 21,34.7319C 20.3101,34.7319 19.7175,34.4842 19.2222,33.9888C 18.7269,33.4935 18.4792,32.9009 18.4792,32.211C 18.4792,32.0245 18.3852,31.9315 18.1972,31.9315C 18.0092,31.9315 17.9152,32.0245 17.9152,32.211C 17.9152,33.0643 18.216,33.7919 18.8176,34.3934C 19.4192,34.9949 20.1467,35.2957 21,35.2957 Z M 9.61713,29.9698L 32.3828,29.9698C 29.2768,26.4649 27.7238,21.6063 27.7238,15.3942C 27.7238,14.7991 27.584,14.1868 27.3044,13.5574C 27.0249,12.9283 26.6227,12.3273 26.098,11.7552C 25.5732,11.183 24.8637,10.7131 23.9695,10.3453C 23.0753,9.97736 22.0854,9.79352 21,9.79352C 19.9145,9.79352 18.9246,9.97736 18.0305,10.3453C 17.1362,10.7131 16.4268,11.183 15.902,11.7552C 15.3773,12.3273 14.975,12.9283 14.6955,13.5574C 14.416,14.1868 14.2762,14.7991 14.2762,15.3942C 14.2762,21.6063 12.7232,26.4649 9.61713,29.9698 Z M 35.5706,29.9698C 35.5706,30.5779 35.3491,31.1035 34.9061,31.5464C 34.4631,31.9894 33.9375,32.211 33.3293,32.211L 25.4825,32.211C 25.4825,33.45 25.0452,34.5071 24.1706,35.3815C 23.296,36.2562 22.2391,36.6937 21,36.6937C 19.7608,36.6937 18.704,36.2562 17.8294,35.3815C 16.9548,34.5071 16.5175,33.45 16.5175,32.211L 8.67059,32.211C 8.0625,32.211 7.53693,31.9894 7.09393,31.5464C 6.65088,31.1035 6.42938,30.5779 6.42938,29.9698C 7.01135,29.4793 7.54181,28.9651 8.02081,28.4274C 8.49982,27.8895 8.99591,27.1916 9.50922,26.3333C 10.0226,25.475 10.4574,24.5497 10.8138,23.5574C 11.1702,22.565 11.462,21.3629 11.6892,19.9503C 11.9164,18.5378 12.0301,17.0192 12.0301,15.3942C 12.0301,13.6221 12.7134,11.9734 14.08,10.4483C 15.4467,8.92316 17.2401,7.99689 19.46,7.66998C 19.3652,7.45099 19.3178,7.22369 19.3178,6.98822C 19.3178,6.52081 19.4813,6.1236 19.8082,5.79669C 20.1352,5.46967 20.5324,5.30621 21,5.30621C 21.4675,5.30621 21.8648,5.46967 22.1917,5.79669C 22.5187,6.1236 22.6822,6.52081 22.6822,6.98822C 22.6822,7.22369 22.6348,7.45099 22.5399,7.66998C 24.7599,7.99689 26.5533,8.92316 27.9199,10.4483C 29.2866,11.9734 29.9699,13.6221 29.9699,15.3942C 29.9699,17.0192 30.0836,18.5378 30.3107,19.9503C 30.538,21.3629 30.8298,22.565 31.1862,23.5574C 31.5425,24.5497 31.9774,25.475 32.4907,26.3333C 33.004,27.1916 33.5002,27.8895 33.9792,28.4274C 34.4582,28.9651 34.9886,29.4793 35.5706,29.9698 Z "/>
        </symbol>
        <symbol id="bell" viewBox="0 0 42.00 42.00">
            <title>bell</title>
            <path class="symbol-path" d="M 21,35.2957C 21.1863,35.2957 21.2795,35.202 21.2795,35.0137C 21.2795,34.8257 21.1863,34.7319 21,34.7319C 20.3101,34.7319 19.7175,34.4842 19.2222,33.9888C 18.7269,33.4935 18.4792,32.9009 18.4792,32.211C 18.4792,32.0245 18.3852,31.9315 18.1972,31.9315C 18.0092,31.9315 17.9152,32.0245 17.9152,32.211C 17.9152,33.0643 18.216,33.7919 18.8176,34.3934C 19.4192,34.9949 20.1467,35.2957 21,35.2957 Z M 9.61713,29.9698L 32.3828,29.9698C 29.2768,26.4649 27.7238,21.6063 27.7238,15.3942C 27.7238,14.7991 27.584,14.1868 27.3044,13.5574C 27.0249,12.9283 26.6227,12.3273 26.098,11.7552C 25.5732,11.183 24.8637,10.7131 23.9695,10.3453C 23.0753,9.97736 22.0854,9.79352 21,9.79352C 19.9145,9.79352 18.9246,9.97736 18.0305,10.3453C 17.1362,10.7131 16.4268,11.183 15.902,11.7552C 15.3773,12.3273 14.975,12.9283 14.6955,13.5574C 14.416,14.1868 14.2762,14.7991 14.2762,15.3942C 14.2762,21.6063 12.7232,26.4649 9.61713,29.9698 Z M 35.5706,29.9698C 35.5706,30.5779 35.3491,31.1035 34.9061,31.5464C 34.4631,31.9894 33.9375,32.211 33.3293,32.211L 25.4825,32.211C 25.4825,33.45 25.0452,34.5071 24.1706,35.3815C 23.296,36.2562 22.2391,36.6937 21,36.6937C 19.7608,36.6937 18.704,36.2562 17.8294,35.3815C 16.9548,34.5071 16.5175,33.45 16.5175,32.211L 8.67059,32.211C 8.0625,32.211 7.53693,31.9894 7.09393,31.5464C 6.65088,31.1035 6.42938,30.5779 6.42938,29.9698C 7.01135,29.4793 7.54181,28.9651 8.02081,28.4274C 8.49982,27.8895 8.99591,27.1916 9.50922,26.3333C 10.0226,25.475 10.4574,24.5497 10.8138,23.5574C 11.1702,22.565 11.462,21.3629 11.6892,19.9503C 11.9164,18.5378 12.0301,17.0192 12.0301,15.3942C 12.0301,13.6221 12.7134,11.9734 14.08,10.4483C 15.4467,8.92316 17.2401,7.99689 19.46,7.66998C 19.3652,7.45099 19.3178,7.22369 19.3178,6.98822C 19.3178,6.52081 19.4813,6.1236 19.8082,5.79669C 20.1352,5.46967 20.5324,5.30621 21,5.30621C 21.4675,5.30621 21.8648,5.46967 22.1917,5.79669C 22.5187,6.1236 22.6822,6.52081 22.6822,6.98822C 22.6822,7.22369 22.6348,7.45099 22.5399,7.66998C 24.7599,7.99689 26.5533,8.92316 27.9199,10.4483C 29.2866,11.9734 29.9699,13.6221 29.9699,15.3942C 29.9699,17.0192 30.0836,18.5378 30.3107,19.9503C 30.538,21.3629 30.8298,22.565 31.1862,23.5574C 31.5425,24.5497 31.9774,25.475 32.4907,26.3333C 33.004,27.1916 33.5002,27.8895 33.9792,28.4274C 34.4582,28.9651 34.9886,29.4793 35.5706,29.9698 Z "/>
        </symbol>
        <symbol id="bell" viewBox="0 0 42.00 42.00">
            <title>bell</title>
            <path class="symbol-path" d="M 21,35.2957C 21.1863,35.2957 21.2795,35.202 21.2795,35.0137C 21.2795,34.8257 21.1863,34.7319 21,34.7319C 20.3101,34.7319 19.7175,34.4842 19.2222,33.9888C 18.7269,33.4935 18.4792,32.9009 18.4792,32.211C 18.4792,32.0245 18.3852,31.9315 18.1972,31.9315C 18.0092,31.9315 17.9152,32.0245 17.9152,32.211C 17.9152,33.0643 18.216,33.7919 18.8176,34.3934C 19.4192,34.9949 20.1467,35.2957 21,35.2957 Z M 9.61713,29.9698L 32.3828,29.9698C 29.2768,26.4649 27.7238,21.6063 27.7238,15.3942C 27.7238,14.7991 27.584,14.1868 27.3044,13.5574C 27.0249,12.9283 26.6227,12.3273 26.098,11.7552C 25.5732,11.183 24.8637,10.7131 23.9695,10.3453C 23.0753,9.97736 22.0854,9.79352 21,9.79352C 19.9145,9.79352 18.9246,9.97736 18.0305,10.3453C 17.1362,10.7131 16.4268,11.183 15.902,11.7552C 15.3773,12.3273 14.975,12.9283 14.6955,13.5574C 14.416,14.1868 14.2762,14.7991 14.2762,15.3942C 14.2762,21.6063 12.7232,26.4649 9.61713,29.9698 Z M 35.5706,29.9698C 35.5706,30.5779 35.3491,31.1035 34.9061,31.5464C 34.4631,31.9894 33.9375,32.211 33.3293,32.211L 25.4825,32.211C 25.4825,33.45 25.0452,34.5071 24.1706,35.3815C 23.296,36.2562 22.2391,36.6937 21,36.6937C 19.7608,36.6937 18.704,36.2562 17.8294,35.3815C 16.9548,34.5071 16.5175,33.45 16.5175,32.211L 8.67059,32.211C 8.0625,32.211 7.53693,31.9894 7.09393,31.5464C 6.65088,31.1035 6.42938,30.5779 6.42938,29.9698C 7.01135,29.4793 7.54181,28.9651 8.02081,28.4274C 8.49982,27.8895 8.99591,27.1916 9.50922,26.3333C 10.0226,25.475 10.4574,24.5497 10.8138,23.5574C 11.1702,22.565 11.462,21.3629 11.6892,19.9503C 11.9164,18.5378 12.0301,17.0192 12.0301,15.3942C 12.0301,13.6221 12.7134,11.9734 14.08,10.4483C 15.4467,8.92316 17.2401,7.99689 19.46,7.66998C 19.3652,7.45099 19.3178,7.22369 19.3178,6.98822C 19.3178,6.52081 19.4813,6.1236 19.8082,5.79669C 20.1352,5.46967 20.5324,5.30621 21,5.30621C 21.4675,5.30621 21.8648,5.46967 22.1917,5.79669C 22.5187,6.1236 22.6822,6.52081 22.6822,6.98822C 22.6822,7.22369 22.6348,7.45099 22.5399,7.66998C 24.7599,7.99689 26.5533,8.92316 27.9199,10.4483C 29.2866,11.9734 29.9699,13.6221 29.9699,15.3942C 29.9699,17.0192 30.0836,18.5378 30.3107,19.9503C 30.538,21.3629 30.8298,22.565 31.1862,23.5574C 31.5425,24.5497 31.9774,25.475 32.4907,26.3333C 33.004,27.1916 33.5002,27.8895 33.9792,28.4274C 34.4582,28.9651 34.9886,29.4793 35.5706,29.9698 Z "/>
        </symbol>
        <symbol id="bell" viewBox="0 0 42.00 42.00">
            <title>bell</title>
            <path class="symbol-path" d="M 21,35.2957C 21.1863,35.2957 21.2795,35.202 21.2795,35.0137C 21.2795,34.8257 21.1863,34.7319 21,34.7319C 20.3101,34.7319 19.7175,34.4842 19.2222,33.9888C 18.7269,33.4935 18.4792,32.9009 18.4792,32.211C 18.4792,32.0245 18.3852,31.9315 18.1972,31.9315C 18.0092,31.9315 17.9152,32.0245 17.9152,32.211C 17.9152,33.0643 18.216,33.7919 18.8176,34.3934C 19.4192,34.9949 20.1467,35.2957 21,35.2957 Z M 9.61713,29.9698L 32.3828,29.9698C 29.2768,26.4649 27.7238,21.6063 27.7238,15.3942C 27.7238,14.7991 27.584,14.1868 27.3044,13.5574C 27.0249,12.9283 26.6227,12.3273 26.098,11.7552C 25.5732,11.183 24.8637,10.7131 23.9695,10.3453C 23.0753,9.97736 22.0854,9.79352 21,9.79352C 19.9145,9.79352 18.9246,9.97736 18.0305,10.3453C 17.1362,10.7131 16.4268,11.183 15.902,11.7552C 15.3773,12.3273 14.975,12.9283 14.6955,13.5574C 14.416,14.1868 14.2762,14.7991 14.2762,15.3942C 14.2762,21.6063 12.7232,26.4649 9.61713,29.9698 Z M 35.5706,29.9698C 35.5706,30.5779 35.3491,31.1035 34.9061,31.5464C 34.4631,31.9894 33.9375,32.211 33.3293,32.211L 25.4825,32.211C 25.4825,33.45 25.0452,34.5071 24.1706,35.3815C 23.296,36.2562 22.2391,36.6937 21,36.6937C 19.7608,36.6937 18.704,36.2562 17.8294,35.3815C 16.9548,34.5071 16.5175,33.45 16.5175,32.211L 8.67059,32.211C 8.0625,32.211 7.53693,31.9894 7.09393,31.5464C 6.65088,31.1035 6.42938,30.5779 6.42938,29.9698C 7.01135,29.4793 7.54181,28.9651 8.02081,28.4274C 8.49982,27.8895 8.99591,27.1916 9.50922,26.3333C 10.0226,25.475 10.4574,24.5497 10.8138,23.5574C 11.1702,22.565 11.462,21.3629 11.6892,19.9503C 11.9164,18.5378 12.0301,17.0192 12.0301,15.3942C 12.0301,13.6221 12.7134,11.9734 14.08,10.4483C 15.4467,8.92316 17.2401,7.99689 19.46,7.66998C 19.3652,7.45099 19.3178,7.22369 19.3178,6.98822C 19.3178,6.52081 19.4813,6.1236 19.8082,5.79669C 20.1352,5.46967 20.5324,5.30621 21,5.30621C 21.4675,5.30621 21.8648,5.46967 22.1917,5.79669C 22.5187,6.1236 22.6822,6.52081 22.6822,6.98822C 22.6822,7.22369 22.6348,7.45099 22.5399,7.66998C 24.7599,7.99689 26.5533,8.92316 27.9199,10.4483C 29.2866,11.9734 29.9699,13.6221 29.9699,15.3942C 29.9699,17.0192 30.0836,18.5378 30.3107,19.9503C 30.538,21.3629 30.8298,22.565 31.1862,23.5574C 31.5425,24.5497 31.9774,25.475 32.4907,26.3333C 33.004,27.1916 33.5002,27.8895 33.9792,28.4274C 34.4582,28.9651 34.9886,29.4793 35.5706,29.9698 Z "/>
        </symbol>
    </defs>
</svg>