<?xml version="1.0" encoding="utf-8"?>
<!DOCTYPE svg PUBLIC "-//W3C//DTD SVG 1.1//EN" "http://www.w3.org/Graphics/SVG/1.1/DTD/svg11.dtd">
<svg xmlns="http://www.w3.org/2000/svg" xmlns:xlink="http://www.w3.org/1999/xlink" version="1.1" baseProfile="full" width="632.527" height="566.836" viewBox="0 0 632.53 566.84" enable-background="new 0 0 632.53 566.84" xml:space="preserve">
	<g>
		<rect x="201.827" y="373.168" fill="#EEBA4C" fill-opacity="1" stroke-width="5" stroke-linejoin="round" stroke="#020100" stroke-opacity="1" width="228.667" height="41.3333"/>
		<path fill="#EEBA4C" fill-opacity="1" stroke-width="5" stroke-linejoin="round" stroke="#020100" stroke-opacity="1" d="M 216.494,414.502L 415.825,414.502L 408.494,564.328L 225.988,564.336L 216.494,414.502 Z "/>
		<path fill="#EEBA4C" fill-opacity="1" stroke-width="5" stroke-linejoin="round" stroke="#020100" stroke-opacity="1" d="M 569.97,2.50024C 591.877,2.50024 609.637,20.2595 609.637,42.1675C 609.637,64.075 591.877,81.8347 569.97,81.8347C 548.062,81.8347 530.302,64.075 530.302,42.1675C 530.302,20.2595 548.062,2.50024 569.97,2.50024 Z "/>
		<path fill="#DBDAD6" fill-opacity="1" stroke-width="5" stroke-linejoin="round" stroke="#C0BDB8" stroke-opacity="1" d="M 473.811,162.359C 484.989,162.359 494.05,171.419 494.05,182.597C 494.05,193.774 484.989,202.835 473.811,202.835C 462.634,202.835 453.573,193.774 453.573,182.597C 453.573,171.419 462.634,162.359 473.811,162.359 Z "/>
		<path fill="#CDD520" fill-opacity="1" stroke-width="5" stroke-linejoin="round" stroke="#020100" stroke-opacity="1" d="M 399.256,41.3586C 410.433,41.3586 419.494,50.4194 419.494,61.5967C 419.494,72.7739 410.433,81.835 399.256,81.835C 388.079,81.835 379.018,72.7739 379.018,61.5967C 379.018,50.4194 388.078,41.3586 399.256,41.3586 Z "/>
		<ellipse fill="#DBDAD6" fill-opacity="1" stroke-width="5" stroke-linejoin="round" stroke="#C0BDB8" stroke-opacity="1" cx="61.984" cy="162.073" rx="20.2382" ry="20.2383"/>
		<path fill="#CDD520" fill-opacity="1" stroke-width="5" stroke-linejoin="round" stroke="#020100" stroke-opacity="1" d="M 114.988,62.509C 131.83,62.509 145.482,76.1616 145.482,93.0032C 145.482,109.844 131.83,123.497 114.988,123.497C 98.1467,123.497 84.4941,109.844 84.4941,93.0032C 84.4941,76.1616 98.1465,62.509 114.988,62.509 Z "/>
		<path fill="#CDD520" fill-opacity="1" stroke-width="5" stroke-linejoin="round" stroke="#020100" stroke-opacity="1" d="M 224.484,77.8464C 241.326,77.8464 254.978,91.4993 254.978,108.341C 254.978,125.182 241.325,138.835 224.484,138.835C 207.642,138.835 193.99,125.182 193.99,108.341C 193.99,91.4993 207.642,77.8464 224.484,77.8464 Z "/>
		<path fill="#CDD520" fill-opacity="1" stroke-width="5" stroke-linejoin="round" stroke="#020100" stroke-opacity="1" d="M 24.7419,189.841C 37.0259,189.841 46.9839,199.799 46.9839,212.083C 46.9839,224.366 37.0258,234.325 24.7419,234.325C 12.4581,234.325 2.5,224.366 2.5,212.083C 2.5,199.799 12.458,189.841 24.7419,189.841 Z "/>
		<path fill="#DBDAD6" fill-opacity="1" stroke-width="5" stroke-linejoin="round" stroke="#C0BDB8" stroke-opacity="1" d="M 358.494,206.501C 367.331,206.501 374.494,213.665 374.494,222.502C 374.494,231.338 367.331,238.502 358.494,238.502C 349.658,238.502 342.494,231.338 342.494,222.502C 342.494,213.665 349.657,206.501 358.494,206.501 Z "/>
		<path fill="#DBDAD6" fill-opacity="1" stroke-width="5" stroke-linejoin="round" stroke="#C0BDB8" stroke-opacity="1" d="M 501.194,295.949C 512.447,295.949 521.569,305.071 521.569,316.324C 521.569,327.577 512.447,336.699 501.194,336.699C 489.941,336.699 480.819,327.577 480.819,316.324C 480.819,305.071 489.941,295.949 501.194,295.949 Z "/>
		<path fill="#DBDAD6" fill-opacity="1" stroke-width="5" stroke-linejoin="round" stroke="#C0BDB8" stroke-opacity="1" d="M 609.652,198.574C 620.905,198.574 630.027,207.696 630.027,218.949C 630.027,230.202 620.905,239.324 609.652,239.324C 598.399,239.324 589.277,230.202 589.277,218.949C 589.277,207.696 598.399,198.574 609.652,198.574 Z "/>
		<ellipse fill="#DBDAD6" fill-opacity="1" stroke-width="5" stroke-linejoin="round" stroke="#C0BDB8" stroke-opacity="1" cx="609.453" cy="109.616" rx="8.95825" ry="8.95825"/>
		<path fill="#DBDAD6" fill-opacity="1" stroke-width="5" stroke-linejoin="round" stroke="#C0BDB8" stroke-opacity="1" d="M 465.697,83.0273C 479.616,83.0273 490.899,94.3108 490.899,108.23C 490.899,122.149 479.616,133.432 465.697,133.432C 451.778,133.432 440.494,122.149 440.494,108.23C 440.494,94.3108 451.778,83.0273 465.697,83.0273 Z "/>
		<path fill="#020100" fill-opacity="1" stroke-linejoin="round" d="M 122.994,158.083L 122.994,168.749L 117.994,168.749L 117.994,158.083L 122.994,158.083 Z M 122.994,179.416L 122.994,190.083L 117.994,190.083L 117.994,179.416L 122.994,179.416 Z M 122.994,200.749L 122.994,211.416L 117.994,211.416L 117.994,200.749L 122.994,200.749 Z M 122.994,222.083L 122.994,232.749L 117.994,232.749L 117.994,222.083L 122.994,222.083 Z M 122.994,243.416L 122.994,254.083L 117.994,254.083L 117.994,243.416L 122.994,243.416 Z M 122.994,264.749L 122.994,275.416L 117.994,275.416L 117.994,264.749L 122.994,264.749 Z M 122.994,286.083L 122.994,296.749L 117.994,296.749L 117.994,286.083L 122.994,286.083 Z M 123.012,307.332L 123.05,308.032L 123.189,309.501L 123.46,311.424L 123.909,313.703L 124.576,316.241L 124.886,317.145L 120.097,318.582L 119.787,317.678L 119.033,314.811L 118.528,312.246L 118.221,310.074L 118.063,308.388L 118.015,307.499L 123.012,307.332 Z M 129.398,325.976L 130.227,327.109L 132.574,329.563L 135.381,331.755L 136.497,332.378L 133.723,336.538L 132.607,335.915L 129.211,333.263L 126.386,330.31L 125.192,328.68L 129.398,325.976 Z M 145.745,335.7L 147.192,335.997L 152.494,336.335L 155.675,336.335L 155.675,341.335L 152.494,341.335L 146.531,340.953L 144.371,340.508L 145.745,335.7 Z M 166.342,336.335L 177.009,336.335L 177.009,341.335L 166.342,341.335L 166.342,336.335 Z M 187.675,336.335L 198.342,336.335L 198.342,341.335L 187.675,341.335L 187.675,336.335 Z M 209.009,336.335L 219.675,336.335L 219.675,341.335L 209.009,341.335L 209.009,336.335 Z M 230.342,336.335L 241.009,336.335L 241.009,341.335L 230.342,341.335L 230.342,336.335 Z M 251.842,336.425L 253.796,336.611L 256.372,337.006L 259.253,337.65L 262.348,338.602L 262.896,338.828L 261.219,343.539L 260.671,343.313L 257.985,342.486L 255.46,341.922L 253.192,341.574L 251.504,341.414L 251.842,336.425 Z M 272.736,344.702L 274.926,346.792L 277.585,350.238L 279.521,353.784L 275.338,356.523L 273.403,352.977L 271.218,350.146L 269.556,348.56L 272.736,344.702 Z M 282.645,365.103L 282.994,370.835L 277.994,370.835L 277.685,365.734L 282.645,365.103 Z M 122.994,136.749L 122.994,147.416L 117.994,147.416L 117.994,136.749L 122.994,136.749 Z "/>
		<path fill="#020100" fill-opacity="1" stroke-linejoin="round" d="M 33.0542,261.508L 34.2272,263.109L 36.5742,265.563L 39.3809,267.755L 39.9893,268.094L 37.2159,272.255L 36.6074,271.915L 33.2109,269.263L 30.386,266.31L 28.8483,264.211L 33.0542,261.508 Z M 49.1758,271.583L 51.1917,271.997L 56.4941,272.335L 59.0944,272.335L 59.0944,277.335L 56.4941,277.335L 50.5309,276.953L 47.8022,276.39L 49.1758,271.583 Z M 69.761,272.335L 80.4277,272.335L 80.4277,277.335L 69.761,277.335L 69.761,272.335 Z M 91.0944,272.335L 101.761,272.335L 101.761,277.335L 91.0944,277.335L 91.0944,272.335 Z M 112.428,272.335L 123.094,272.335L 123.094,277.335L 112.428,277.335L 112.428,272.335 Z M 133.761,272.335L 144.428,272.335L 144.428,277.335L 133.761,277.335L 133.761,272.335 Z M 155.094,272.335L 165.761,272.335L 165.761,277.335L 155.094,277.335L 155.094,272.335 Z M 176.428,272.335L 187.094,272.335L 187.094,277.335L 176.428,277.335L 176.428,272.335 Z M 197.761,272.335L 208.428,272.335L 208.428,277.335L 197.761,277.335L 197.761,272.335 Z M 219.094,272.335L 229.761,272.335L 229.761,277.335L 219.094,277.335L 219.094,272.335 Z M 240.428,272.335L 251.094,272.335L 251.094,277.335L 240.428,277.335L 240.428,272.335 Z M 261.761,272.335L 264.639,272.335L 264.645,272.335L 264.651,272.335L 264.656,272.335L 264.662,272.335L 264.668,272.335L 264.673,272.335L 264.679,272.335L 264.684,272.335L 265.129,272.352L 266.248,272.431L 267.949,272.619L 270.139,272.963L 272.725,273.509L 272.915,273.561L 271.743,278.422L 271.553,278.37L 269.245,277.882L 267.298,277.577L 265.809,277.412L 264.876,277.346L 264.594,277.334L 264.639,277.335L 261.761,277.335L 261.761,272.335 Z M 283.345,277.677L 285.184,278.736L 288.347,281.068L 291.323,283.918L 292.185,285.017L 288.488,288.384L 287.626,287.284L 285.14,284.904L 282.461,282.929L 281.077,282.133L 283.345,277.677 Z M 297.615,294.975L 297.986,295.969L 299.089,301.239L 299.411,306.203L 294.456,306.875L 294.134,301.91L 293.184,297.36L 293.083,297.088L 297.615,294.975 Z M 299.463,317.208L 299.46,319.027L 299.443,324.844L 299.432,327.879L 294.432,327.863L 294.443,324.827L 294.46,319.016L 294.463,317.201L 299.463,317.208 Z M 299.383,338.55L 299.368,341.281L 299.338,346.267L 299.318,349.22L 294.318,349.188L 294.338,346.235L 294.368,341.253L 294.383,338.525L 299.383,338.55 Z M 299.238,359.891L 299.217,362.486L 299.192,365.375L 299.17,367.704L 299.154,369.426L 299.143,370.494L 299.142,370.562L 294.142,370.511L 294.143,370.444L 294.154,369.377L 294.17,367.657L 294.192,365.33L 294.217,362.443L 294.239,359.85L 299.238,359.891 Z M 26.9941,242.835L 27.0005,243.111L 27.0503,244.032L 27.1887,245.501L 27.4601,247.424L 27.9085,249.703L 28.5762,252.241L 28.6978,252.595L 23.9087,254.032L 23.7871,253.678L 23.0329,250.811L 22.5281,248.246L 22.2215,246.074L 22.063,244.388L 22.0034,243.278L 21.9941,242.835L 26.9941,242.835 Z "/>
		<path fill="#020100" fill-opacity="1" stroke-linejoin="round" d="M 216.182,177.777L 215.557,179.495L 213.29,183.964L 210.763,187.602L 206.461,185.053L 208.988,181.416L 210.963,177.521L 211.397,176.328L 216.182,177.777 Z M 202.459,195.37L 201.587,196.031L 195.776,199.087L 192.157,200.315L 190.186,195.72L 193.805,194.492L 198.902,191.813L 199.119,191.649L 202.459,195.37 Z M 181.422,202.806L 180.884,202.907L 171.655,203.428L 170.145,203.426L 170.145,198.426L 171.655,198.428L 180.294,197.942L 180.166,197.967L 181.422,202.806 Z M 159.473,203.408L 154.756,203.392L 148.8,203.356L 148.823,198.356L 154.779,198.392L 159.484,198.408L 159.473,203.408 Z M 138.118,203.246L 137.081,203.233L 132.935,203.162L 129.536,203.086L 127.418,203.024L 127.545,198.026L 129.663,198.087L 133.034,198.163L 137.156,198.234L 138.173,198.247L 138.118,203.246 Z M 218.97,155.74L 219.04,156.336L 219.161,157.867L 219.24,160.203L 219.18,163.218L 218.882,166.782L 218.843,167.024L 213.878,166.437L 213.916,166.194L 214.186,162.972L 214.24,160.25L 214.17,158.164L 214.066,156.848L 214.019,156.437L 218.97,155.74 Z "/>
		<path fill="#020100" fill-opacity="1" stroke-linejoin="round" d="M 309.994,349.501L 309.994,338.835L 314.994,338.835L 314.994,349.501L 309.994,349.501 Z M 309.994,328.168L 309.994,317.501L 314.994,317.501L 314.994,328.168L 309.994,328.168 Z M 309.994,306.835L 309.994,296.168L 314.994,296.168L 314.994,306.835L 309.994,306.835 Z M 309.994,285.501L 309.994,274.835L 314.994,274.835L 314.994,285.501L 309.994,285.501 Z M 309.994,264.168L 309.994,253.501L 314.994,253.501L 314.994,264.168L 309.994,264.168 Z M 309.994,242.835L 309.994,232.168L 314.994,232.168L 314.994,242.835L 309.994,242.835 Z M 309.994,221.501L 309.994,210.835L 314.994,210.835L 314.994,221.501L 309.994,221.501 Z M 311.538,199.653L 312.386,196.966L 313.731,193.755L 315.509,190.521L 316.339,189.37L 320.574,192.029L 319.744,193.179L 318.241,195.914L 317.086,198.672L 316.365,200.958L 311.538,199.653 Z M 324.774,181.348L 328.127,179.509L 332.874,177.801L 335.398,177.298L 336.734,182.116L 334.211,182.619L 330.183,184.067L 327.52,185.527L 324.774,181.348 Z M 346.671,176.335L 357.338,176.335L 357.338,181.335L 346.671,181.335L 346.671,176.335 Z M 368.004,176.335L 376.494,181.335L 376.739,176.347L 376.931,176.361L 377.624,176.388L 378.72,176.383L 378.619,181.382L 377.524,181.387L 376.622,181.351L 376.249,181.323L 375.781,181.237L 375.339,181.06L 374.941,180.801L 374.601,180.468L 374.321,180.083L 374.123,179.65L 374.013,179.188L 373.997,178.712L 374.06,178.24L 374.215,177.791L 374.454,177.38L 374.77,177.024L 375.141,176.726L 375.563,176.507L 376.02,176.375L 376.494,176.335L 368.004,181.335L 368.004,176.335 Z M 388.248,174.26L 388.035,174.343L 390.108,173.254L 392.095,171.851L 393.943,170.092L 395.322,168.287L 399.036,171.634L 397.657,173.439L 395.258,175.723L 392.704,177.527L 390.089,178.901L 389.809,179.01L 388.248,174.26 Z M 398.627,159.485L 398.866,158.227L 399.13,153.699L 399.121,149.5L 404.121,149.5L 404.13,153.699L 403.829,158.837L 403.457,160.775L 398.627,159.485 Z M 399.054,138.851L 399.038,136.929L 398.975,131.006L 398.94,128.197L 403.939,128.138L 403.975,130.948L 404.038,136.882L 404.054,138.816L 399.054,138.851 Z M 398.791,117.539L 398.727,113.449L 398.635,107.955L 398.616,106.88L 403.615,106.793L 403.634,107.868L 403.726,113.368L 403.79,117.465L 398.791,117.539 Z M 398.418,96.22L 398.37,93.7588L 398.295,90.0759L 398.231,87.0615L 398.199,85.5608L 403.198,85.4543L 403.23,86.9548L 403.293,89.9724L 403.369,93.6589L 403.417,96.124L 398.418,96.22 Z M 309.994,370.835L 309.994,360.168L 314.994,360.168L 314.994,370.835L 309.994,370.835 Z "/>
		<path fill="#020100" fill-opacity="1" stroke-linejoin="round" d="M 329.473,350.835L 329.473,340.168L 334.473,340.168L 334.473,350.835L 329.473,350.835 Z M 329.473,329.501L 329.473,318.835L 334.473,318.835L 334.473,329.501L 329.473,329.501 Z M 329.473,308.168L 329.473,306.831L 329.474,306.755L 329.477,306.678L 329.483,306.602L 329.491,306.525L 329.502,306.449L 329.515,306.374L 329.53,306.299L 329.547,306.224L 329.64,305.876L 329.898,304.988L 330.332,303.635L 330.953,301.892L 331.772,299.834L 332.8,297.535L 333.043,297.057L 337.559,299.203L 337.316,299.682L 336.38,301.773L 335.634,303.649L 335.071,305.231L 334.682,306.441L 334.461,307.203L 334.398,307.438L 334.473,306.831L 334.473,308.168L 329.473,308.168 Z M 339.056,287.718L 339.295,287.42L 341.597,285.041L 344.21,282.882L 347.151,281.036L 348.281,280.541L 350.634,284.952L 349.504,285.448L 347.151,286.926L 345.003,288.701L 343.057,290.713L 343.09,290.672L 339.056,287.718 Z M 359.843,278.343L 370.509,278.343L 370.509,283.343L 359.843,283.343L 359.843,278.343 Z M 381.176,278.343L 391.843,278.343L 391.843,283.343L 381.176,283.343L 381.176,278.343 Z M 402.509,278.343L 413.176,278.343L 413.176,283.343L 402.509,283.343L 402.509,278.343 Z M 423.843,278.343L 434.509,278.343L 434.509,283.343L 423.843,283.343L 423.843,278.343 Z M 445.176,278.343L 455.843,278.343L 455.843,283.343L 445.176,283.343L 445.176,278.343 Z M 466.509,278.343L 477.176,278.343L 477.176,283.343L 466.509,283.343L 466.509,278.343 Z M 487.843,278.343L 498.509,278.343L 498.509,283.343L 487.843,283.343L 487.843,278.343 Z M 509.176,278.343L 519.842,278.343L 519.842,283.343L 509.176,283.343L 509.176,278.343 Z M 530.509,278.343L 536.523,278.343L 536.537,278.343L 536.551,278.344L 536.564,278.344L 536.578,278.344L 536.591,278.344L 536.605,278.344L 536.618,278.345L 536.632,278.345L 536.886,278.35L 537.752,278.339L 539.137,278.263L 540.972,278.072L 541.356,283.058L 539.521,283.248L 537.908,283.337L 536.844,283.35L 536.415,283.341L 536.523,283.343L 530.509,283.343L 530.509,278.343 Z M 550.537,275.327L 550.647,275.281L 553.233,273.861L 555.716,272.072L 558.023,269.868L 558.103,269.766L 561.809,273.122L 561.73,273.225L 558.901,275.926L 555.89,278.096L 552.805,279.792L 552.241,280.028L 550.537,275.327 Z M 562.855,261.183L 563.213,260.185L 564.107,255.688L 564.37,251.414L 569.329,252.051L 569.067,256.326L 568.031,261.52L 567.413,263.239L 562.855,261.183 Z M 564.457,241.058L 564.467,238.954L 564.496,234.113L 564.521,230.386L 569.521,230.417L 569.496,234.144L 569.467,238.981L 569.457,241.079L 564.457,241.058 Z M 564.601,219.716L 564.621,217.16L 564.674,210.846L 564.689,209.048L 569.689,209.09L 569.673,210.888L 569.621,217.201L 569.601,219.754L 564.601,219.716 Z M 564.784,198.381L 564.792,197.486L 564.857,190.528L 564.884,187.713L 569.883,187.76L 569.856,190.575L 569.792,197.531L 569.784,198.425L 564.784,198.381 Z M 564.987,177.046L 564.994,176.275L 565.066,169.069L 565.093,166.379L 570.093,166.429L 570.065,169.119L 569.994,176.324L 569.986,177.094L 564.987,177.046 Z M 565.202,155.713L 565.212,154.715L 565.285,147.655L 565.312,145.046L 570.312,145.098L 570.285,147.707L 570.211,154.766L 570.201,155.763L 565.202,155.713 Z M 565.425,134.38L 565.429,133.991L 565.499,127.474L 565.54,123.713L 570.54,123.767L 570.499,127.528L 570.429,134.044L 570.425,134.432L 565.425,134.38 Z M 565.656,113.047L 565.693,109.712L 565.75,104.534L 565.774,102.38L 570.773,102.436L 570.75,104.589L 570.692,109.767L 570.656,113.101L 565.656,113.047 Z M 565.893,91.7136L 565.927,88.7068L 565.956,86.1909L 565.977,84.3396L 565.99,83.1965L 565.994,82.8059L 570.994,82.8635L 570.99,83.2539L 570.977,84.3967L 570.956,86.2478L 570.927,88.7634L 570.893,91.77L 565.893,91.7136 Z M 333.306,373.335L 331.973,373.335L 331.728,373.323L 331.485,373.287L 331.247,373.228L 331.016,373.145L 330.794,373.04L 330.584,372.914L 330.387,372.768L 330.205,372.603L 330.04,372.421L 329.894,372.224L 329.768,372.013L 329.663,371.792L 329.58,371.561L 329.52,371.323L 329.484,371.08L 329.473,370.835L 329.473,361.501L 334.473,361.501L 334.473,370.835L 331.973,368.335L 333.306,368.335L 333.306,373.335 Z "/>
	</g>
</svg>
