<?xml version="1.0" encoding="utf-8"?>
<!DOCTYPE svg PUBLIC "-//W3C//DTD SVG 1.1//EN" "http://www.w3.org/Graphics/SVG/1.1/DTD/svg11.dtd">
<svg xmlns="http://www.w3.org/2000/svg" xmlns:xlink="http://www.w3.org/1999/xlink" version="1.1" baseProfile="full" width="253.359" height="245.16" viewBox="0 0 253.36 245.16" enable-background="new 0 0 253.36 245.16" xml:space="preserve">
	<g>
		<g>
			<path fill="#CDD520" fill-opacity="1" stroke-width="0.2" stroke-linejoin="round" d="M 95.6451,159.019C 80.0768,159.902 66.73,147.986 65.8468,132.417C 64.9637,116.842 76.8795,103.501 92.4478,102.619C 108.017,101.735 121.364,113.645 122.247,129.219C 123.13,144.788 111.214,158.136 95.6451,159.019 Z M 144.536,134.243L 143.825,121.709L 133.899,122.272C 133.28,119.38 132.374,116.606 131.182,113.985L 139.481,108.541L 132.598,98.0396L 124.311,103.477C 122.347,101.316 120.172,99.3646 117.793,97.6635L 122.265,88.8088L 111.052,83.1571L 106.583,92.0248C 103.842,91.1362 100.985,90.5433 98.0344,90.2623L 97.471,80.3296L 84.9376,81.0402L 85.501,90.9729C 82.6132,91.5844 79.8416,92.5032 77.2185,93.6897L 71.7757,85.3846L 61.274,92.2662L 66.7037,100.56C 64.5442,102.518 62.5938,104.704 60.8978,107.071L 52.0363,102.608L 46.3853,113.813L 55.2593,118.289C 54.3715,121.028 53.7778,123.886 53.4968,126.831L 43.5571,127.394L 44.2684,139.927L 54.2073,139.364C 54.8188,142.258 55.7322,145.03 56.9241,147.651L 48.6121,153.096L 55.4945,163.598L 63.7942,158.16C 65.7462,160.32 67.9319,162.272 70.2996,163.973L 65.8414,172.828L 77.0536,178.479L 81.5234,169.611C 84.2634,170.5 87.1211,171.087 90.0591,171.375L 90.6226,181.307L 103.155,180.597L 102.593,170.664C 105.493,170.046 108.265,169.139 110.887,167.947L 116.33,176.252L 126.831,169.37L 121.389,161.077C 123.562,159.118 125.5,156.933 127.207,154.559L 136.057,159.024L 141.708,147.818L 132.847,143.347C 133.735,140.608 134.323,137.75 134.61,134.805L 144.536,134.243 Z "/>
			<path fill="#2D2C2C" fill-opacity="1" stroke-width="0.2" stroke-linejoin="round" d="M 95.3728,154.233C 82.4466,154.965 71.3643,145.072 70.6316,132.145C 69.8987,119.214 79.7915,108.137 92.7177,107.404C 105.645,106.671 116.727,116.559 117.461,129.491C 118.194,142.418 108.3,153.5 95.3728,154.233 Z "/>
			<g>
				<path fill="#CDD520" fill-opacity="1" stroke-width="0.2" stroke-linejoin="round" d="M 142.108,80.6969C 132.792,81.2253 124.806,74.0953 124.277,64.7793C 123.749,55.4598 130.879,47.4767 140.194,46.9487C 149.51,46.4203 157.497,53.5466 158.025,62.866C 158.554,72.1821 151.424,80.1689 142.108,80.6969 Z M 171.362,65.8718L 170.937,58.3722L 164.997,58.7089C 164.627,56.978 164.085,55.3186 163.372,53.75L 168.338,50.4927L 164.219,44.2089L 159.261,47.4624C 158.085,46.1693 156.784,45.0017 155.36,43.9838L 158.036,38.6854L 151.327,35.3035L 148.652,40.6097C 147.012,40.078 145.303,39.7233 143.537,39.5552L 143.2,33.6117L 135.701,34.0369L 136.038,39.9803C 134.31,40.3462 132.651,40.896 131.082,41.606L 127.825,36.6365L 121.541,40.7543L 124.79,45.7173C 123.498,46.8885 122.331,48.1964 121.316,49.6132L 116.013,46.9423L 112.632,53.6472L 117.942,56.3256C 117.411,57.9646 117.055,59.6744 116.887,61.4368L 110.94,61.7739L 111.365,69.2731L 117.312,68.9359C 117.678,70.6676 118.225,72.3265 118.938,73.8953L 113.964,77.153L 118.083,83.4369L 123.049,80.1833C 124.217,81.476 125.525,82.6436 126.942,83.6615L 124.274,88.9598L 130.983,92.3413L 133.658,87.0355C 135.297,87.5673 137.007,87.9182 138.765,88.0906L 139.102,94.0341L 146.602,93.6089L 146.265,87.6654C 148,87.2953 149.659,86.7529 151.228,86.0393L 154.485,91.0088L 160.769,86.891L 157.512,81.9285C 158.812,80.7567 159.972,79.4492 160.994,78.0283L 166.289,80.7002L 169.671,73.9949L 164.368,71.3197C 164.9,69.6807 165.251,67.9707 165.423,66.2085L 171.362,65.8718 Z "/>
				<path fill="#2D2C2C" fill-opacity="1" stroke-width="0.2" stroke-linejoin="round" d="M 141.945,77.8333C 134.21,78.2717 127.578,72.3514 127.14,64.6168C 126.702,56.879 132.621,50.2507 140.356,49.8123C 148.091,49.3739 154.723,55.2903 155.162,63.0288C 155.6,70.7634 149.68,77.3948 141.945,77.8333 Z "/>
			</g>
			<g>
				<path fill="#2D2C2C" fill-opacity="1" stroke-width="0.2" stroke-linejoin="round" d="M 90.9132,70.7725C 84.7657,71.1212 79.4955,66.416 79.1467,60.2683C 78.798,54.1184 83.5032,48.8502 89.6506,48.5018C 95.7984,48.1531 101.069,52.8558 101.417,59.0057C 101.766,65.1534 97.0609,70.4241 90.9132,70.7725 Z M 110.219,60.9893L 109.938,56.0402L 106.018,56.2625C 105.774,55.1202 105.416,54.0251 104.946,52.99L 108.223,50.8406L 105.505,46.6937L 102.233,48.8408C 101.457,47.9874 100.598,47.2169 99.6588,46.5452L 101.424,43.0488L 96.9971,40.817L 95.2321,44.3186C 94.1498,43.9678 93.0217,43.7336 91.8567,43.6228L 91.6342,39.7006L 86.6851,39.9812L 86.9076,43.9033C 85.7673,44.1448 84.6729,44.5076 83.6371,44.9761L 81.4879,41.6967L 77.3411,44.4141L 79.4851,47.6892C 78.6324,48.462 77.8622,49.3252 77.1925,50.2601L 73.6934,48.4976L 71.462,52.9221L 74.9661,54.6896C 74.6155,55.7712 74.3811,56.8997 74.2701,58.0625L 70.3452,58.285L 70.6261,63.2338L 74.5507,63.0114C 74.7921,64.1541 75.1528,65.2488 75.6234,66.2839L 72.3413,68.4338L 75.059,72.5806L 78.3362,70.4336C 79.107,71.2865 79.9701,72.057 80.905,72.7288L 79.1446,76.2252L 83.572,78.4567L 85.337,74.9553C 86.4189,75.3062 87.5472,75.5378 88.7075,75.6516L 88.93,79.5737L 93.8787,79.2931L 93.6566,75.371C 94.8018,75.1268 95.8965,74.7689 96.9317,74.298L 99.0812,77.5774L 103.228,74.86L 101.079,71.5852C 101.937,70.8119 102.702,69.9491 103.376,69.0115L 106.87,70.7747L 109.102,66.3497L 105.603,64.5844C 105.954,63.5028 106.186,62.3744 106.299,61.2114L 110.219,60.9893 Z "/>
				<path fill="#CDD520" fill-opacity="1" stroke-width="0.2" stroke-linejoin="round" d="M 90.8055,68.8828C 85.7014,69.1722 81.3253,65.2654 81.036,60.1611C 80.7466,55.0551 84.653,50.6809 89.7571,50.3916C 94.8618,50.1023 99.2379,54.0066 99.5277,59.1133C 99.817,64.2174 95.9102,68.5935 90.8055,68.8828 Z "/>
			</g>
		</g>
		<path fill="#2D2C2C" fill-opacity="1" stroke-linejoin="round" d="M 203.134,129.822C 206.135,130.73 209.034,131.873 211.81,133.229C 213.842,124.973 214.919,116.342 214.919,107.46C 214.919,48.1113 166.808,0 107.46,0C 48.1114,0 0,48.1113 0,107.46C 0,166.808 48.1113,214.919 107.46,214.919C 116.45,214.919 125.182,213.815 133.529,211.735C 132.165,208.963 131.014,206.068 130.097,203.07C 122.829,204.784 115.25,205.691 107.46,205.691C 53.2081,205.691 9.22858,161.711 9.22858,107.459C 9.22858,53.208 53.2081,9.22839 107.46,9.22839C 161.711,9.22839 205.691,53.208 205.691,107.459C 205.691,115.152 204.807,122.638 203.134,129.822 Z "/>
		<path fill="#CDD520" fill-opacity="1" stroke-linejoin="round" d="M 252.367,236.985C 253.69,238.307 253.69,240.451 252.367,241.774L 249.973,244.168C 248.65,245.491 246.506,245.491 245.184,244.168L 220.373,219.358C 211.885,227.538 200.342,232.568 187.623,232.568C 161.553,232.568 140.42,211.435 140.42,185.365C 140.42,159.296 161.553,138.162 187.623,138.162C 213.692,138.162 234.826,159.296 234.826,185.365C 234.826,195.044 231.912,204.043 226.915,211.532L 252.367,236.985 Z M 147.86,185.365C 147.86,207.325 165.662,225.128 187.623,225.128C 209.583,225.128 227.385,207.325 227.385,185.365C 227.385,163.405 209.583,145.602 187.623,145.602C 165.662,145.602 147.86,163.405 147.86,185.365 Z "/>
		<path fill="#2D2C2C" fill-opacity="1" stroke-linejoin="round" d="M 204.083,165.645L 211.533,165.645C 212.281,165.645 212.887,166.251 212.887,166.999L 212.887,198.004C 212.887,198.752 212.281,199.359 211.533,199.359L 204.083,199.359C 203.335,199.359 202.729,198.752 202.729,198.004L 202.729,166.999C 202.729,166.251 203.335,165.645 204.083,165.645 Z M 189.86,176.122L 197.31,176.122C 198.058,176.122 198.665,176.728 198.665,177.476L 198.665,198.005C 198.665,198.753 198.058,199.36 197.31,199.36L 189.86,199.36C 189.112,199.36 188.506,198.753 188.506,198.005L 188.506,177.476C 188.506,176.728 189.112,176.122 189.86,176.122 Z M 175.638,189.837L 183.088,189.837C 183.836,189.837 184.442,190.443 184.442,191.192L 184.442,198.006C 184.442,198.754 183.836,199.361 183.088,199.361L 175.638,199.361C 174.89,199.361 174.283,198.754 174.283,198.006L 174.283,191.192C 174.283,190.443 174.89,189.837 175.638,189.837 Z M 162.092,187.319L 169.542,187.319C 170.291,187.319 170.897,187.926 170.897,188.674L 170.897,198.006C 170.897,198.754 170.291,199.361 169.542,199.361L 162.092,199.361C 161.344,199.361 160.738,198.754 160.738,198.006L 160.738,188.674C 160.738,187.926 161.344,187.319 162.092,187.319 Z "/>
	</g>
</svg>
